<svg xmlns="http://www.w3.org/2000/svg" viewBox="0 -0.5 798 128" shape-rendering="crispEdges">
<metadata>Made with Pixels to Svg https://codepen.io/shshaw/pen/XbxvNj</metadata>
<path stroke="#81c0c8" d="M20 0h25M68 0h4M81 0h6M156 0h25M186 0h4M233 0h4M261 0h34M313 0h5M398 0h4M403 0h10M482 0h29M522 0h3M597 0h25M647 0h4M656 0h4M697 0h4M720 0h25M20 1h25M68 1h4M80 1h6M156 1h25M185 1h5M234 1h4M261 1h34M312 1h5M398 1h4M403 1h10M483 1h28M521 1h4M597 1h25M646 1h4M655 1h4M697 1h4M720 1h25M20 2h25M67 2h4M80 2h4M156 2h25M184 2h5M234 2h4M261 2h34M311 2h5M398 2h4M403 2h10M483 2h28M521 2h4M597 2h25M645 2h5M654 2h5M698 2h4M720 2h25M20 3h25M67 3h4M79 3h4M156 3h25M184 3h4M235 3h3M261 3h33M311 3h5M398 3h4M403 3h10M484 3h27M521 3h4M597 3h25M645 3h4M654 3h4M698 3h5M720 3h25M20 4h25M67 4h4M77 4h6M156 4h25M183 4h4M235 4h3M261 4h33M310 4h4M398 4h4M403 4h10M484 4h27M521 4h3M597 4h25M644 4h4M653 4h4M699 4h4M720 4h25M20 5h25M66 5h4M76 5h6M156 5h25M183 5h4M235 5h4M261 5h33M308 5h6M398 5h4M403 5h10M484 5h27M520 5h4M597 5h25M643 5h5M652 5h5M700 5h4M720 5h25M20 6h25M66 6h4M75 6h6M156 6h25M182 6h4M235 6h5M261 6h32M308 6h5M398 6h4M403 6h10M484 6h27M520 6h4M597 6h25M643 6h4M651 6h5M700 6h5M720 6h25M20 7h25M65 7h4M74 7h5M156 7h30M236 7h4M261 7h32M307 7h5M398 7h4M403 7h10M484 7h27M520 7h3M597 7h25M642 7h4M651 7h4M701 7h5M720 7h25M20 8h25M65 8h4M73 8h5M156 8h29M237 8h3M261 8h32M305 8h6M398 8h4M403 8h10M483 8h28M519 8h4M597 8h25M641 8h5M650 8h4M702 8h5M720 8h25M20 9h25M64 9h4M72 9h5M156 9h28M237 9h4M261 9h31M305 9h5M398 9h4M403 9h10M483 9h28M519 9h4M597 9h25M640 9h5M649 9h5M703 9h4M720 9h25M20 10h25M64 10h4M71 10h5M156 10h27M237 10h4M261 10h31M303 10h6M398 10h4M403 10h10M483 10h28M518 10h4M597 10h25M640 10h4M648 10h5M704 10h5M720 10h25M20 11h25M63 11h5M70 11h5M157 11h25M238 11h3M261 11h31M302 11h6M398 11h4M403 11h10M482 11h29M518 11h4M597 11h25M639 11h4M647 11h5M704 11h6M720 11h25M20 12h25M63 12h4M69 12h5M157 12h24M238 12h4M261 12h30M301 12h6M398 12h4M403 12h10M482 12h29M517 12h4M597 12h25M639 12h4M646 12h5M705 12h6M720 12h25M20 13h25M62 13h4M68 13h5M157 13h24M238 13h5M261 13h30M299 13h7M398 13h4M403 13h10M481 13h30M517 13h4M597 13h25M638 13h4M646 13h5M707 13h5M720 13h25M20 14h25M61 14h5M67 14h5M157 14h24M239 14h4M261 14h30M298 14h7M398 14h4M403 14h10M481 14h2M484 14h27M516 14h4M597 14h25M637 14h5M645 14h4M708 14h4M720 14h25M20 15h25M61 15h4M66 15h5M157 15h24M240 15h4M261 15h30M296 15h7M398 15h4M403 15h10M481 15h2M485 15h26M516 15h4M597 15h25M637 15h4M644 15h5M708 15h5M720 15h25M20 16h24M60 16h4M65 16h5M156 16h25M240 16h5M261 16h30M294 16h8M398 16h4M403 16h10M480 16h3M485 16h26M516 16h4M597 16h25M636 16h4M643 16h5M709 16h5M720 16h25M20 17h24M59 17h10M156 17h25M241 17h4M261 17h40M398 17h4M403 17h10M480 17h2M485 17h26M515 17h4M597 17h25M636 17h4M642 17h5M710 17h5M720 17h25M20 18h23M58 18h10M156 18h25M242 18h4M261 18h38M398 18h4M403 18h10M479 18h3M485 18h26M514 18h5M597 18h25M635 18h4M641 18h5M711 18h5M720 18h25M20 19h23M58 19h9M156 19h25M242 19h4M261 19h35M398 19h4M403 19h10M479 19h2M485 19h28M514 19h4M597 19h25M635 19h4M641 19h4M712 19h5M720 19h25M20 20h23M57 20h9M156 20h25M243 20h4M261 20h32M398 20h4M403 20h10M478 20h3M485 20h33M597 20h25M634 20h4M639 20h6M712 20h5M720 20h25M20 21h23M56 21h9M156 21h25M243 21h4M261 21h30M398 21h5M409 21h4M478 21h2M485 21h32M597 21h25M633 21h5M639 21h5M713 21h5M720 21h25M20 22h23M55 22h9M156 22h25M244 22h4M261 22h31M398 22h11M410 22h3M478 22h2M485 22h31M597 22h25M633 22h4M638 22h5M714 22h30M20 23h23M54 23h9M156 23h25M244 23h5M261 23h31M398 23h11M410 23h3M477 23h3M485 23h31M597 23h25M632 23h4M637 23h5M715 23h29M20 24h23M53 24h8M156 24h25M245 24h5M261 24h31M398 24h11M410 24h3M477 24h2M485 24h30M597 24h25M632 24h9M716 24h27M20 25h23M52 25h8M156 25h25M246 25h4M261 25h31M398 25h11M410 25h3M476 25h3M485 25h29M597 25h25M631 25h9M718 25h25M20 26h22M52 26h7M156 26h25M247 26h4M261 26h33M398 26h11M410 26h3M476 26h2M484 26h29M597 26h25M630 26h9M719 26h24M20 27h22M51 27h7M156 27h25M247 27h5M261 27h34M398 27h11M410 27h3M476 27h2M484 27h29M597 27h25M629 27h9M719 27h24M20 28h21M50 28h7M156 28h25M248 28h5M261 28h34M398 28h11M410 28h3M475 28h3M483 28h30M597 28h25M629 28h7M720 28h23M20 29h21M49 29h7M156 29h25M249 29h5M261 29h34M398 29h11M410 29h3M475 29h2M482 29h31M597 29h25M628 29h8M720 29h23M20 30h21M49 30h6M156 30h25M250 30h5M261 30h34M398 30h11M410 30h3M474 30h3M481 30h32M597 30h25M627 30h7M720 30h23M20 31h21M48 31h6M156 31h25M251 31h5M261 31h34M398 31h11M410 31h3M474 31h2M481 31h32M597 31h24M627 31h7M720 31h23M20 32h21M47 32h6M156 32h25M252 32h6M261 32h33M398 32h11M410 32h3M473 32h3M480 32h32M597 32h24M627 32h6M720 32h23M20 33h21M46 33h6M156 33h25M253 33h5M261 33h33M398 33h11M410 33h3M473 33h2M480 33h31M597 33h23M626 33h5M720 33h23M20 34h21M45 34h6M156 34h25M254 34h5M261 34h33M398 34h11M410 34h3M473 34h2M479 34h31M597 34h23M624 34h6M720 34h23M20 35h21M44 35h6M156 35h25M255 35h38M398 35h11M410 35h3M472 35h3M479 35h31M597 35h23M622 35h7M720 35h23M20 36h21M43 36h7M156 36h25M256 36h37M398 36h11M410 36h3M472 36h2M479 36h30M597 36h23M621 36h7M720 36h23M20 37h21M42 37h7M156 37h25M257 37h35M398 37h11M410 37h3M472 37h2M479 37h30M597 37h29M720 37h23M20 38h26M156 38h25M259 38h33M398 38h11M410 38h3M472 38h2M479 38h30M598 38h27M720 38h23M20 39h25M156 39h25M260 39h32M398 39h11M410 39h3M472 39h1M479 39h30M598 39h26M720 39h23M20 40h24M156 40h25M261 40h31M398 40h11M410 40h3M472 40h1M479 40h30M598 40h24M720 40h23M20 41h23M156 41h25M261 41h31M398 41h11M410 41h3M471 41h1M479 41h31M598 41h22M720 41h23M20 42h22M156 42h25M261 42h31M398 42h11M410 42h3M479 42h31M598 42h22M720 42h23M20 43h21M156 43h25M261 43h31M398 43h11M410 43h3M479 43h32M597 43h23M720 43h23M20 44h21M156 44h25M261 44h31M398 44h11M410 44h3M479 44h32M597 44h23M720 44h23M20 45h21M156 45h25M261 45h31M398 45h11M410 45h3M479 45h32M597 45h23M720 45h23M20 46h21M156 46h25M261 46h31M398 46h11M410 46h3M479 46h32M597 46h23M720 46h23M20 47h21M156 47h25M261 47h31M398 47h11M410 47h3M479 47h32M597 47h23M720 47h23M20 48h21M156 48h25M261 48h31M398 48h11M410 48h3M479 48h32M597 48h23M720 48h23M20 49h21M156 49h25M261 49h31M398 49h11M410 49h3M479 49h32M597 49h23M720 49h23M20 50h21M156 50h25M261 50h31M398 50h11M410 50h3M479 50h32M597 50h23M721 50h22M20 51h21M156 51h25M261 51h31M398 51h11M410 51h3M479 51h32M597 51h23M721 51h22M20 52h21M156 52h25M261 52h31M398 52h11M410 52h3M479 52h32M597 52h23M721 52h22M20 53h21M156 53h25M261 53h31M398 53h11M410 53h3M479 53h32M597 53h23M721 53h23M20 54h22M156 54h25M261 54h32M398 54h11M410 54h3M479 54h32M597 54h23M721 54h23M20 55h22M156 55h25M261 55h32M398 55h11M410 55h3M479 55h32M597 55h23M721 55h24M20 56h23M156 56h25M261 56h32M398 56h11M410 56h3M479 56h32M597 56h23M721 56h24M20 57h23M156 57h25M261 57h33M398 57h11M410 57h3M479 57h32M597 57h23M721 57h24M20 58h23M156 58h25M261 58h33M398 58h11M410 58h3M479 58h32M597 58h23M721 58h24M20 59h23M156 59h24M261 59h34M398 59h11M410 59h3M479 59h32M597 59h23M721 59h24M20 60h23M156 60h24M261 60h34M398 60h11M410 60h3M479 60h32M597 60h23M721 60h24M20 61h23M156 61h23M261 61h34M398 61h11M410 61h3M479 61h32M597 61h23M721 61h24M20 62h23M156 62h23M261 62h34M398 62h11M410 62h3M479 62h32M597 62h23M721 62h24M20 63h23M156 63h23M261 63h34M398 63h11M410 63h3M479 63h32M597 63h23M721 63h24M20 64h23M156 64h23M261 64h34M398 64h11M410 64h3M479 64h32M597 64h23M721 64h24M20 65h23M156 65h23M261 65h34M398 65h11M410 65h3M479 65h32M597 65h23M721 65h24M20 66h23M156 66h23M261 66h34M398 66h11M410 66h3M479 66h32M597 66h23M721 66h24M20 67h23M156 67h23M261 67h34M398 67h11M410 67h3M479 67h32M597 67h23M721 67h24M20 68h24M156 68h24M261 68h34M398 68h11M410 68h3M479 68h32M597 68h23M721 68h24M20 69h24M156 69h24M261 69h34M398 69h11M410 69h3M479 69h32M597 69h23M721 69h24M20 70h25M156 70h24M261 70h34M398 70h1M400 70h9M410 70h3M479 70h32M597 70h23M722 70h23M20 71h25M156 71h24M261 71h34M398 71h1M400 71h9M410 71h3M479 71h32M597 71h24M722 71h23M20 72h25M156 72h23M261 72h34M398 72h1M400 72h9M410 72h3M479 72h32M597 72h24M714 72h1M722 72h23M20 73h25M156 73h23M261 73h34M398 73h1M400 73h9M410 73h3M479 73h32M597 73h25M714 73h2M723 73h22M20 74h25M156 74h23M261 74h34M398 74h1M400 74h9M410 74h3M479 74h32M597 74h25M714 74h3M723 74h22M20 75h25M156 75h23M261 75h34M398 75h1M400 75h9M410 75h3M480 75h31M597 75h25M713 75h5M723 75h22M20 76h25M156 76h23M261 76h34M398 76h1M400 76h13M480 76h31M597 76h25M713 76h6M724 76h21M20 77h25M156 77h23M261 77h34M398 77h1M400 77h13M480 77h31M597 77h25M713 77h6M724 77h21M20 78h25M156 78h23M261 78h34M398 78h1M400 78h13M480 78h31M597 78h25M712 78h8M725 78h20M20 79h25M156 79h23M261 79h34M398 79h1M400 79h13M481 79h30M597 79h25M712 79h9M725 79h20M20 80h25M156 80h23M261 80h34M398 80h1M400 80h13M481 80h30M597 80h25M712 80h9M724 80h21M20 81h25M156 81h23M261 81h34M398 81h1M400 81h13M481 81h30M597 81h25M712 81h11M725 81h20M20 82h25M156 82h23M261 82h34M398 82h1M400 82h13M481 82h30M597 82h25M712 82h33M20 83h25M156 83h24M261 83h34M398 83h1M400 83h13M481 83h30M597 83h25M712 83h33M20 84h25M156 84h24M261 84h34M398 84h1M400 84h13M481 84h30M597 84h25M713 84h32M20 85h25M156 85h24M261 85h34M398 85h1M400 85h13M481 85h30M597 85h25M713 85h32M20 86h25M156 86h24M261 86h34M398 86h1M400 86h13M481 86h30M597 86h25M713 86h32M20 87h25M156 87h24M261 87h34M398 87h1M400 87h13M481 87h30M597 87h25M714 87h31M20 88h25M156 88h25M261 88h34M398 88h1M400 88h13M480 88h31M597 88h25M714 88h31M20 89h25M156 89h25M261 89h34M398 89h1M400 89h13M479 89h32M597 89h25M714 89h31M20 90h25M156 90h25M261 90h34M398 90h1M400 90h13M479 90h32M597 90h25M715 90h30M20 91h25M155 91h26M261 91h33M398 91h1M400 91h13M479 91h32M597 91h25M715 91h30M20 92h25M154 92h27M261 92h31M398 92h1M400 92h13M479 92h32M597 92h25M715 92h30M20 93h25M153 93h28M261 93h31M398 93h1M400 93h13M479 93h32M597 93h25M715 93h30M20 94h25M152 94h29M261 94h31M398 94h1M400 94h13M479 94h32M597 94h25M716 94h29M20 95h25M151 95h30M261 95h31M398 95h1M400 95h13M479 95h32M597 95h25M716 95h29M20 96h25M151 96h4M156 96h25M261 96h30M398 96h1M400 96h13M479 96h32M597 96h25M716 96h29M20 97h25M150 97h4M156 97h25M261 97h30M398 97h1M400 97h13M479 97h32M597 97h25M715 97h30M20 98h25M150 98h4M156 98h25M261 98h30M398 98h1M400 98h13M479 98h32M596 98h26M714 98h31M20 99h25M150 99h3M156 99h25M261 99h30M398 99h1M400 99h13M479 99h32M596 99h26M713 99h32M20 100h25M149 100h4M156 100h25M261 100h30M398 100h1M400 100h13M479 100h32M595 100h27M712 100h5M718 100h27M20 101h25M149 101h4M156 101h25M261 101h31M398 101h1M400 101h13M479 101h32M595 101h27M711 101h5M718 101h27M20 102h25M148 102h4M156 102h25M261 102h31M398 102h1M400 102h13M479 102h32M594 102h28M711 102h4M718 102h27M20 103h25M148 103h4M155 103h26M261 103h32M398 103h1M400 103h13M479 103h32M594 103h28M709 103h6M719 103h26M20 104h25M148 104h4M154 104h27M261 104h32M398 104h1M400 104h13M479 104h32M594 104h28M708 104h6M719 104h26M20 105h25M148 105h3M154 105h27M261 105h32M398 105h1M400 105h13M479 105h32M593 105h29M708 105h5M720 105h25M20 106h25M148 106h3M152 106h29M261 106h32M398 106h1M400 106h13M479 106h31M593 106h29M706 106h6M720 106h25M20 107h25M147 107h4M152 107h29M261 107h32M398 107h1M400 107h13M479 107h31M592 107h4M597 107h25M706 107h5M720 107h25M21 108h24M147 108h4M152 108h29M261 108h33M398 108h1M400 108h13M479 108h30M592 108h4M597 108h25M705 108h5M720 108h26M21 109h24M147 109h3M151 109h4M156 109h25M261 109h33M398 109h1M400 109h13M479 109h30M592 109h3M597 109h25M704 109h5M720 109h27M21 110h25M147 110h8M156 110h25M261 110h34M398 110h1M400 110h13M479 110h30M591 110h4M597 110h25M703 110h5M720 110h28M21 111h26M147 111h7M156 111h25M261 111h34M398 111h1M400 111h13M479 111h30M591 111h4M597 111h25M702 111h5M720 111h29M21 112h27M147 112h6M156 112h25M261 112h34M398 112h1M400 112h13M479 112h29M590 112h4M597 112h25M701 112h5M720 112h29M21 113h29M147 113h6M156 113h25M261 113h34M398 113h1M400 113h13M479 113h29M590 113h4M597 113h25M700 113h5M720 113h25M746 113h4M21 114h30M147 114h6M156 114h26M261 114h34M398 114h1M400 114h13M479 114h28M589 114h4M597 114h25M699 114h6M720 114h25M746 114h5M21 115h24M46 115h5M147 115h5M156 115h26M261 115h34M356 115h3M398 115h15M479 115h28M589 115h4M597 115h25M698 115h5M720 115h25M747 115h5M21 116h24M48 116h4M147 116h5M156 116h27M261 116h34M350 116h10M398 116h15M479 116h28M589 116h3M597 116h25M697 116h6M720 116h25M748 116h4M21 117h24M48 117h5M147 117h5M156 117h28M262 117h33M344 117h17M398 117h15M480 117h27M588 117h4M597 117h24M696 117h5M720 117h25M748 117h5M21 118h24M49 118h5M147 118h5M156 118h30M262 118h33M341 118h20M398 118h15M480 118h27M588 118h4M597 118h24M695 118h5M720 118h25M749 118h5M21 119h24M50 119h5M147 119h4M156 119h31M262 119h33M338 119h23M398 119h15M481 119h27M588 119h3M597 119h23M694 119h5M720 119h25M750 119h5M21 120h24M51 120h5M147 120h4M156 120h25M182 120h6M263 120h32M336 120h25M365 120h1M398 120h15M481 120h27M587 120h4M597 120h23M692 120h6M720 120h25M751 120h5M21 121h24M52 121h5M147 121h4M156 121h25M184 121h4M263 121h32M334 121h33M398 121h15M481 121h28M587 121h4M597 121h23M691 121h6M720 121h25M752 121h8M21 122h24M53 122h6M147 122h4M156 122h25M185 122h5M263 122h32M333 122h35M398 122h15M481 122h29M586 122h4M597 122h23M690 122h6M720 122h25M753 122h8M21 123h24M54 123h6M147 123h5M156 123h25M185 123h5M264 123h31M332 123h38M398 123h15M481 123h30M585 123h5M597 123h23M687 123h7M720 123h25M754 123h9M21 124h24M55 124h7M147 124h5M156 124h25M186 124h5M264 124h31M331 124h41M398 124h15M482 124h29M585 124h4M597 124h24M686 124h7M720 124h25M758 124h7M21 125h24M57 125h6M147 125h5M156 125h25M187 125h6M264 125h31M329 125h45M398 125h15M482 125h29M584 125h4M597 125h24M685 125h7M720 125h25M759 125h8M21 126h24M58 126h7M146 126h7M156 126h25M188 126h6M264 126h31M328 126h46M398 126h15M482 126h29M583 126h5M597 126h25M684 126h5M720 126h25M761 126h7M21 127h24M60 127h5M146 127h7M156 127h25M189 127h6M264 127h31M327 127h47M398 127h15M482 127h29M582 127h5M597 127h25M681 127h8M720 127h25M763 127h7" />
<path stroke="#35d1e9" d="M402 0h1M402 1h1M402 2h1M402 3h1M402 4h1M402 5h1M402 6h1M402 7h1M402 8h1M402 9h1M402 10h1M402 11h1M402 12h1M402 13h1M402 14h1M402 15h1M402 16h1M402 17h1M402 18h1M402 19h1M402 20h1M403 21h6M409 22h1M409 23h1M409 24h1M409 25h1M409 26h1M409 27h1M409 28h1M409 29h1M409 30h1M409 31h1M409 32h1M409 33h1M409 35h1M409 36h1M409 37h1M409 38h1M409 39h1M409 40h1M409 41h1M409 42h1M409 43h1M409 44h1M409 45h1M409 46h1M409 47h1" />
<path stroke="#35d0e9" d="M409 34h1" />
<path stroke="#36d1e9" d="M409 48h1M409 49h1M409 50h1M409 51h1M409 52h1M409 53h1" />
<path stroke="#37d1e9" d="M409 54h1M409 55h1" />
<path stroke="#37d1ea" d="M409 56h1" />
<path stroke="#37d2e9" d="M409 57h1" />
<path stroke="#37d2ea" d="M409 58h1M409 59h1M409 60h1" />
<path stroke="#38d2ea" d="M409 61h1M409 62h1M409 63h1" />
<path stroke="#39d2ea" d="M409 64h1M409 65h1" />
<path stroke="#39d3ea" d="M409 66h1M409 67h1M409 68h1" />
<path stroke="#3ad3ea" d="M409 69h1M399 70h1" />
<path stroke="#3ad3eb" d="M409 70h1M399 71h1M409 71h1M399 72h1M409 72h1M399 73h1M409 73h1" />
<path stroke="#3bd3eb" d="M399 74h1M409 74h1M399 75h1M409 75h1M399 76h1M399 77h1" />
<path stroke="#3cd4eb" d="M399 78h1M399 79h1M399 80h1M399 81h1M399 82h1M399 83h1" />
<path stroke="#3dd4ec" d="M399 84h1" />
<path stroke="#3dd5ec" d="M399 85h1M399 86h1" />
<path stroke="#3ed5ec" d="M399 87h1M399 88h1M399 89h1M399 90h1M399 91h1" />
<path stroke="#3ed5ed" d="M399 92h1" />
<path stroke="#3fd5ed" d="M399 93h1M399 94h1" />
<path stroke="#40d5ed" d="M399 95h1M399 96h1M399 97h1" />
<path stroke="#40d6ed" d="M399 98h1M399 99h1M399 100h1M399 101h1" />
<path stroke="#41d6ed" d="M399 102h1M399 103h1M399 104h1M399 105h1" />
<path stroke="#42d6ee" d="M399 106h1" />
<path stroke="#42d7ed" d="M399 107h1M399 109h1" />
<path stroke="#42d7ee" d="M399 108h1M399 110h1M399 111h1M399 112h1M399 113h1" />
<path stroke="#43d7ee" d="M399 114h1" />
<path stroke="#a8d2d7" d="M445 127h1" />
</svg>