<svg xmlns="http://www.w3.org/2000/svg" viewBox="0 -0.5 798 128" shape-rendering="crispEdges">
<metadata>Made with Pixels to Svg https://codepen.io/shshaw/pen/XbxvNj</metadata>
<path stroke="#6f9fb2" d="M115 0h6M122 0h24M197 0h3M281 0h2M316 0h11M328 0h4M333 0h19M395 0h3M455 0h29M485 0h6M634 0h9M644 0h26M115 1h6M122 1h25M197 1h2M281 1h3M316 1h11M328 1h24M394 1h4M455 1h27M483 1h1M485 1h6M634 1h9M644 1h26M115 2h6M122 2h25M197 2h2M282 2h3M316 2h11M328 2h24M393 2h3M455 2h29M485 2h1M487 2h4M634 2h9M644 2h26M115 3h6M122 3h26M196 3h3M283 3h2M316 3h11M328 3h24M392 3h4M455 3h20M476 3h8M485 3h6M634 3h9M644 3h26M115 4h6M122 4h26M195 4h3M283 4h3M316 4h11M328 4h1M330 4h13M344 4h8M392 4h2M455 4h29M485 4h6M634 4h9M644 4h26M115 5h6M122 5h26M195 5h2M284 5h3M316 5h11M328 5h24M391 5h3M455 5h2M458 5h33M634 5h9M644 5h26M115 6h6M122 6h27M194 6h3M285 6h2M316 6h11M328 6h20M349 6h3M390 6h3M455 6h36M634 6h9M644 6h26M114 7h7M122 7h27M194 7h2M285 7h4M316 7h11M328 7h24M389 7h3M455 7h3M459 7h32M634 7h9M644 7h26M114 8h7M122 8h27M193 8h3M286 8h3M316 8h11M328 8h24M388 8h3M455 8h36M634 8h9M644 8h26M114 9h7M122 9h27M193 9h2M287 9h3M316 9h11M328 9h24M387 9h3M455 9h36M634 9h9M644 9h26M114 10h7M122 10h27M192 10h3M288 10h3M316 10h11M328 10h24M386 10h3M455 10h36M634 10h9M644 10h26M114 11h7M122 11h27M192 11h2M289 11h3M316 11h11M328 11h1M330 11h22M384 11h4M455 11h36M634 11h9M644 11h26M114 12h7M122 12h27M191 12h3M289 12h3M316 12h11M328 12h24M384 12h3M455 12h36M634 12h9M644 12h26M114 13h7M122 13h27M190 13h3M290 13h3M316 13h11M328 13h8M337 13h15M383 13h3M455 13h36M634 13h9M644 13h26M114 14h7M122 14h27M189 14h4M291 14h3M316 14h11M328 14h24M381 14h4M455 14h35M634 14h9M644 14h26M114 15h7M122 15h27M189 15h2M292 15h3M317 15h10M328 15h22M351 15h1M380 15h4M455 15h35M634 15h9M644 15h26M114 16h7M122 16h27M188 16h3M293 16h3M317 16h10M328 16h24M379 16h4M455 16h34M634 16h9M644 16h26M114 17h7M122 17h27M187 17h3M294 17h3M318 17h9M328 17h24M377 17h4M455 17h1M457 17h11M469 17h20M634 17h9M644 17h26M114 18h7M122 18h18M141 18h8M187 18h2M295 18h3M318 18h9M328 18h5M334 18h18M376 18h4M455 18h19M475 18h14M634 18h9M644 18h26M114 19h7M122 19h18M141 19h8M186 19h3M296 19h3M318 19h9M328 19h24M375 19h3M455 19h34M634 19h9M644 19h26M114 20h7M122 20h18M141 20h8M185 20h3M297 20h3M318 20h34M373 20h5M455 20h34M634 20h9M644 20h26M114 21h7M122 21h18M141 21h8M184 21h3M298 21h3M318 21h28M347 21h5M372 21h4M455 21h34M634 21h9M644 21h4M649 21h21M114 22h7M122 22h18M141 22h8M183 22h3M299 22h3M317 22h35M370 22h4M455 22h3M459 22h30M634 22h14M649 22h21M114 23h7M122 23h18M141 23h8M182 23h3M300 23h3M317 23h35M368 23h5M455 23h34M634 23h14M649 23h21M114 24h26M141 24h8M181 24h3M301 24h3M316 24h36M367 24h5M455 24h34M634 24h14M649 24h21M114 25h26M141 25h8M180 25h3M301 25h4M316 25h36M364 25h5M455 25h34M634 25h14M649 25h21M114 26h26M141 26h8M179 26h3M303 26h3M316 26h36M362 26h6M455 26h34M634 26h36M114 27h26M141 27h8M178 27h3M304 27h3M316 27h37M360 27h5M455 27h34M634 27h36M114 28h26M141 28h8M177 28h3M305 28h2M316 28h16M333 28h20M356 28h7M455 28h34M634 28h36M114 29h26M141 29h8M176 29h3M305 29h3M316 29h20M337 29h24M455 29h21M477 29h9M487 29h3M634 29h36M114 30h35M175 30h3M306 30h3M316 30h9M326 30h32M455 30h35M634 30h36M114 31h35M174 31h3M307 31h3M316 31h37M455 31h35M634 31h36M114 32h35M172 32h4M308 32h3M316 32h23M340 32h13M455 32h21M477 32h13M634 32h36M114 33h35M171 33h4M309 33h3M316 33h23M340 33h12M455 33h21M477 33h13M635 33h35M114 34h35M170 34h3M310 34h3M316 34h23M340 34h12M455 34h21M477 34h13M635 34h35M114 35h35M169 35h3M311 35h3M316 35h36M455 35h21M477 35h13M636 35h34M114 36h35M167 36h4M312 36h40M455 36h21M477 36h13M636 36h34M114 37h35M166 37h4M313 37h39M455 37h21M477 37h14M636 37h34M114 38h35M164 38h4M314 38h4M319 38h33M455 38h31M487 38h4M636 38h34M114 39h35M162 39h5M316 39h36M458 39h33M636 39h34M114 40h35M158 40h6M316 40h16M333 40h17M458 40h33M636 40h34M114 41h35M155 41h8M316 41h23M340 41h10M458 41h7M466 41h25M636 41h30M667 41h3M114 42h35M152 42h7M316 42h23M340 42h10M458 42h18M477 42h14M635 42h31M667 42h3M114 43h43M317 43h25M343 43h9M455 43h21M477 43h11M489 43h2M635 43h35M114 44h39M316 44h2M319 44h33M455 44h21M477 44h14M635 44h35M114 45h35M316 45h21M338 45h14M455 45h21M477 45h2M480 45h1M482 45h9M635 45h35M114 46h35M316 46h36M455 46h21M478 46h13M635 46h35M114 47h35M316 47h36M455 47h13M469 47h22M635 47h35M114 48h35M316 48h23M340 48h12M455 48h36M635 48h35M114 49h26M141 49h8M316 49h36M455 49h30M486 49h5M635 49h35M671 49h1M114 50h26M141 50h8M316 50h36M455 50h36M635 50h35M671 50h1M114 51h26M141 51h8M316 51h23M340 51h12M455 51h23M479 51h12M635 51h31M667 51h4M672 51h1M114 52h26M141 52h8M316 52h23M340 52h12M455 52h36M635 52h36M672 52h1M114 53h26M141 53h8M316 53h23M340 53h12M455 53h36M635 53h37M673 53h1M114 54h26M141 54h8M316 54h2M319 54h33M455 54h3M459 54h9M469 54h6M476 54h15M636 54h36M673 54h1M114 55h26M141 55h8M316 55h28M345 55h7M455 55h10M466 55h25M636 55h36M674 55h1M113 56h27M141 56h8M316 56h36M455 56h10M466 56h25M634 56h39M674 56h1M113 57h27M141 57h8M316 57h36M455 57h10M466 57h25M634 57h41M113 58h27M141 58h8M316 58h23M340 58h11M455 58h10M466 58h25M634 58h30M667 58h9M113 59h27M141 59h8M316 59h18M335 59h4M340 59h11M455 59h10M466 59h9M476 59h15M634 59h30M668 59h8M113 60h36M316 60h36M455 60h10M466 60h16M483 60h8M634 60h10M645 60h19M670 60h2M673 60h3M113 61h36M316 61h8M325 61h27M455 61h10M466 61h25M634 61h10M645 61h20M671 61h2M674 61h3M113 62h36M316 62h36M455 62h10M466 62h25M635 62h9M645 62h21M671 62h6M113 63h36M316 63h36M455 63h10M466 63h25M635 63h31M672 63h5M113 64h27M141 64h8M316 64h6M323 64h21M345 64h7M455 64h10M466 64h25M635 64h31M673 64h2M676 64h1M113 65h27M141 65h8M316 65h6M323 65h29M455 65h10M466 65h25M636 65h31M674 65h5M113 66h27M141 66h8M316 66h6M323 66h28M455 66h10M467 66h24M636 66h8M645 66h23M675 66h3M113 67h27M141 67h8M316 67h6M323 67h29M455 67h10M466 67h25M636 67h8M645 67h23M676 67h2M113 68h27M141 68h8M316 68h6M323 68h29M455 68h10M466 68h4M471 68h20M634 68h36M677 68h2M113 69h35M316 69h6M323 69h3M327 69h25M455 69h4M460 69h5M466 69h25M634 69h36M678 69h2M113 70h16M130 70h18M316 70h3M320 70h32M455 70h8M464 70h27M634 70h36M113 71h16M130 71h19M316 71h36M455 71h4M460 71h31M634 71h36M113 72h16M130 72h19M316 72h36M455 72h36M634 72h10M645 72h25M113 73h16M130 73h19M316 73h36M455 73h13M469 73h22M634 73h10M645 73h25M113 74h16M130 74h19M316 74h36M455 74h36M634 74h19M654 74h16M113 75h16M130 75h18M316 75h4M321 75h31M455 75h10M466 75h25M634 75h19M654 75h16M113 76h34M316 76h36M455 76h10M466 76h25M634 76h19M654 76h16M113 77h34M316 77h6M323 77h2M326 77h26M455 77h10M466 77h25M634 77h19M654 77h16M113 78h36M316 78h36M455 78h10M466 78h25M634 78h19M654 78h16M113 79h16M130 79h18M316 79h36M455 79h10M466 79h25M634 79h19M654 79h16M113 80h16M130 80h18M316 80h10M327 80h25M455 80h10M466 80h25M634 80h19M654 80h16M113 81h16M130 81h19M316 81h36M455 81h10M466 81h25M634 81h19M654 81h16M113 82h16M130 82h19M316 82h36M455 82h36M634 82h19M654 82h16M113 83h16M130 83h19M316 83h36M455 83h36M634 83h19M654 83h16M113 84h16M130 84h19M317 84h9M327 84h25M456 84h1M458 84h7M466 84h25M634 84h19M654 84h16M113 85h4M118 85h3M123 85h6M130 85h19M316 85h6M323 85h29M456 85h9M466 85h25M634 85h36M113 86h4M118 86h3M123 86h6M130 86h19M316 86h6M323 86h29M457 86h8M466 86h12M479 86h12M634 86h36M113 87h3M117 87h3M123 87h6M130 87h19M316 87h36M456 87h9M466 87h25M634 87h36M113 88h2M116 88h4M122 88h7M130 88h19M316 88h36M455 88h36M635 88h40M113 89h6M122 89h7M130 89h19M316 89h36M455 89h36M635 89h13M649 89h27M112 90h6M122 90h7M130 90h19M316 90h36M455 90h36M636 90h12M649 90h28M111 91h6M123 91h6M130 91h19M316 91h14M331 91h21M455 91h33M489 91h2M623 91h4M637 91h11M649 91h23M673 91h5M111 92h6M123 92h26M316 92h36M455 92h36M621 92h8M638 92h10M649 92h21M674 92h4M110 93h5M123 93h28M317 93h35M455 93h30M486 93h5M620 93h10M638 93h10M649 93h21M675 93h3M109 94h5M122 94h30M316 94h36M455 94h35M620 94h11M638 94h10M649 94h21M675 94h4M108 95h5M122 95h7M130 95h24M316 95h36M455 95h35M619 95h5M626 95h6M637 95h11M649 95h21M675 95h4M107 96h5M121 96h8M130 96h25M316 96h8M325 96h3M329 96h1M333 96h1M336 96h1M338 96h2M342 96h4M351 96h1M455 96h1M458 96h1M460 96h2M469 96h11M482 96h1M484 96h1M486 96h3M490 96h1M619 96h4M628 96h5M638 96h10M649 96h21M676 96h4M106 97h5M121 97h8M130 97h19M150 97h6M338 97h1M348 97h1M456 97h1M473 97h1M478 97h1M619 97h4M629 97h6M639 97h9M649 97h21M676 97h4M105 98h5M120 98h9M130 98h19M152 98h5M619 98h3M630 98h6M640 98h8M649 98h21M677 98h3M104 99h5M119 99h48M619 99h3M631 99h6M640 99h8M649 99h21M677 99h4M103 100h6M119 100h52M619 100h4M634 100h4M640 100h30M677 100h4M103 101h4M118 101h55M619 101h4M634 101h36M678 101h3M102 102h5M118 102h33M156 102h4M165 102h10M619 102h5M634 102h36M678 102h3M102 103h4M117 103h32M157 103h4M169 103h7M620 103h5M634 103h36M678 103h4M101 104h4M117 104h32M157 104h5M171 104h6M621 104h5M634 104h36M678 104h4M101 105h4M117 105h32M158 105h5M173 105h4M621 105h12M634 105h25M660 105h10M679 105h3M100 106h4M116 106h33M159 106h5M174 106h4M618 106h41M660 106h11M679 106h3M100 107h4M113 107h25M139 107h10M160 107h5M174 107h4M615 107h44M660 107h12M679 107h3M100 108h3M112 108h26M139 108h10M160 108h5M175 108h4M614 108h9M624 108h4M631 108h28M660 108h13M679 108h3M99 109h4M111 109h27M139 109h10M162 109h4M175 109h4M612 109h8M625 109h3M634 109h25M660 109h14M679 109h3M683 109h6M99 110h4M110 110h28M139 110h9M162 110h4M176 110h3M610 110h7M625 110h3M634 110h25M660 110h15M679 110h13M98 111h4M109 111h29M139 111h9M163 111h4M176 111h4M609 111h7M625 111h3M634 111h25M660 111h10M671 111h5M679 111h17M98 112h4M108 112h30M139 112h8M163 112h5M176 112h4M608 112h6M625 112h3M634 112h25M660 112h10M672 112h5M678 112h7M687 112h13M98 113h3M108 113h30M139 113h8M164 113h5M177 113h4M608 113h4M625 113h3M634 113h25M660 113h10M672 113h11M690 113h12M97 114h4M107 114h31M139 114h8M165 114h5M177 114h5M607 114h4M624 114h4M634 114h25M660 114h10M673 114h10M694 114h10M97 115h4M105 115h7M113 115h25M139 115h8M166 115h5M178 115h5M605 115h6M624 115h4M634 115h25M660 115h10M672 115h11M698 115h8M96 116h4M104 116h8M113 116h25M139 116h8M167 116h4M179 116h4M603 116h7M623 116h4M634 116h25M660 116h10M671 116h8M680 116h3M700 116h7M96 117h4M103 117h8M113 117h25M139 117h8M168 117h4M180 117h5M602 117h7M623 117h4M634 117h25M660 117h23M702 117h7M95 118h4M103 118h8M113 118h25M139 118h8M168 118h5M180 118h6M601 118h6M622 118h4M634 118h25M660 118h14M676 118h7M704 118h6M95 119h4M102 119h8M113 119h25M139 119h8M169 119h5M181 119h7M600 119h5M622 119h4M634 119h39M677 119h7M705 119h6M95 120h3M101 120h8M113 120h25M139 120h8M170 120h5M183 120h7M599 120h5M621 120h4M634 120h37M678 120h6M707 120h6M94 121h4M99 121h9M113 121h25M139 121h8M171 121h5M184 121h7M598 121h5M621 121h4M634 121h36M679 121h6M708 121h6M94 122h4M99 122h8M113 122h25M139 122h7M172 122h5M186 122h7M597 122h5M620 122h4M634 122h36M680 122h6M709 122h6M94 123h3M98 123h8M113 123h25M139 123h7M173 123h5M188 123h6M596 123h5M620 123h4M634 123h36M681 123h7M711 123h6M94 124h12M113 124h25M139 124h7M174 124h6M189 124h7M595 124h5M619 124h4M634 124h36M681 124h10M712 124h7M94 125h11M113 125h25M139 125h7M175 125h7M191 125h6M594 125h5M619 125h4M634 125h36M682 125h11M713 125h9M93 126h11M113 126h25M139 126h7M176 126h7M192 126h8M593 126h5M618 126h4M634 126h36M682 126h3M686 126h10M715 126h9M92 127h11M113 127h25M139 127h7M178 127h7M194 127h9M591 127h6M617 127h5M634 127h36M682 127h4M689 127h11M717 127h11" />
<path stroke="#c0d5d8" d="M121 0h1M327 0h1M484 0h1M643 0h1M121 1h1M327 1h1M484 1h1M643 1h1M121 2h1M327 2h1M484 2h1M643 2h1M121 3h1M327 3h1M484 3h1M643 3h1M121 4h1M327 4h1M484 4h1M643 4h1M121 5h1M327 5h1M643 5h1M121 6h1M327 6h1M643 6h1M121 7h1M327 7h1M643 7h1M121 8h1M327 8h1M643 8h1M121 9h1M327 9h1M643 9h1M121 10h1M327 10h1M643 10h1M121 11h1M327 11h1M643 11h1M121 12h1M327 12h1M643 12h1M121 13h1M327 13h1M643 13h1M121 14h1M327 14h1M643 14h1M121 15h1M327 15h1M643 15h1M121 16h1M327 16h1M643 16h1M121 17h1M327 17h1M643 17h1M121 18h1M140 18h1M327 18h1M643 18h1M121 19h1M140 19h1M327 19h1M643 19h1M121 20h1M140 20h1M643 20h1M121 21h1M140 21h1M643 21h1M648 21h1M121 22h1M140 22h1M648 22h1M121 23h1M140 23h1M648 23h1M140 24h1M648 24h1M140 25h1M648 25h1M140 26h1M140 27h1M140 28h1M140 29h1" />
<path stroke="#6f9fb1" d="M332 0h1M482 1h1M486 2h1M475 3h1M329 4h1M458 7h1M329 11h1M336 13h1M350 15h1M474 18h1M458 22h1M332 28h1M336 29h1M486 29h1M325 30h1M318 38h1M486 38h1M332 40h1M316 43h1M488 43h1M337 45h1M481 45h1M477 46h1M318 54h1M468 54h1M351 58h1M482 60h1M344 64h1M351 66h1M470 68h1M319 70h1M463 70h1M459 71h1M326 84h1M330 91h1" />
<path stroke="#709fb2" d="M343 4h1M457 5h1M348 6h1M456 17h1M468 17h1M333 18h1M346 21h1M476 29h1M465 41h1M342 43h1M318 44h1M479 45h1M468 47h1M485 49h1M478 51h1M458 54h1M475 54h1M344 55h1M334 59h1M475 59h1M324 61h1M466 66h1M326 69h1M459 69h1M468 73h1M320 75h1M325 77h1M326 80h1M316 84h1M457 84h1M478 86h1M488 91h1M316 93h1M331 96h1M334 96h1M340 96h2M347 96h1M350 96h1M456 96h1M464 96h1M468 96h1M485 96h1M318 97h2M329 97h1M335 97h3M339 97h1M346 97h2M351 97h1M455 97h1M472 97h1M476 97h1M485 97h1M488 97h1M491 97h1M460 98h1M480 98h1" />
<path stroke="#33adc5" d="M307 28h1M309 30h1M162 38h2M161 39h1M666 41h1M666 42h1M140 49h1M140 50h1M140 51h1M666 51h1M140 52h1M140 53h1M140 54h1M140 55h1M140 56h1M140 57h1M140 58h1M140 59h1M644 60h1M672 60h1M644 61h1M673 61h1M644 62h1M140 64h1M675 64h1M140 65h1M140 66h1M644 66h1M140 67h1M644 67h1M140 68h1M129 70h1M129 71h1M129 72h1M644 72h1M129 73h1M644 73h1M129 74h1M653 74h1M129 75h1M653 75h1M653 76h1M653 77h1M653 78h1M129 79h1M653 79h1M129 80h1M653 80h1M129 81h1M653 81h1M129 82h1M653 82h1M129 83h1M653 83h1M129 84h1M653 84h1M117 85h1M129 85h1M117 86h1M129 86h1M116 87h1M129 87h1M115 88h1M129 88h1M129 89h1M648 89h1M129 90h1M648 90h1M129 91h1M648 91h1M648 92h1M648 93h1M648 94h1M129 95h1M648 95h1M129 96h1M648 96h1M129 97h1M648 97h1M129 98h1M648 98h1M648 99h1M485 101h1M485 102h1M485 103h1M485 104h1M659 105h1M659 106h1M138 107h1M659 107h1M138 108h1M343 108h1M659 108h1M138 109h1M343 109h1M659 109h1M138 110h1M343 110h1M659 110h1M138 111h1M485 111h1M659 111h1M138 112h1M343 112h1M485 112h1M659 112h1M138 113h1M343 113h1M485 113h1M659 113h1M138 114h1M343 114h1M485 114h1M659 114h1M138 115h1M343 115h1M485 115h1M659 115h1M138 116h1M343 116h1M485 116h1M659 116h1M138 117h1M343 117h1M485 117h1M659 117h1M138 118h1M343 118h1M485 118h1M659 118h1M138 119h1M343 119h1M485 119h1M138 120h1M343 120h1M485 120h1M138 121h1M343 121h1M485 121h1M138 122h1M343 122h1M485 122h1M138 123h1M343 123h1M485 123h1M138 124h1M343 124h1M485 124h1M138 125h1M343 125h1M485 125h1M138 126h1M343 126h1M485 126h1M138 127h1M343 127h1M485 127h1" />
<path stroke="#32acc4" d="M339 32h1M476 32h1M339 33h1M476 33h1M339 34h1M476 34h1M476 35h1M476 36h1M476 37h1M339 41h1M339 42h1M476 42h1M476 43h1M476 44h1M476 45h1M476 46h1M339 48h1M339 51h1M339 52h1M339 53h1M465 55h1M465 56h1M465 57h1M339 58h1M465 58h1M339 59h1M465 59h1M465 60h1M465 61h1M465 62h1M465 63h1M322 64h1M465 64h1M322 65h1M465 65h1M322 66h1M465 66h1M322 67h1M465 67h1M322 68h1M465 68h1M322 69h1M465 69h1M465 75h1M465 76h1M322 77h1M465 77h1M465 78h1M465 79h1M465 80h1M465 81h1M465 84h1M322 85h1M465 85h1M322 86h1M465 86h1M465 87h1M485 93h1" />
<path stroke="#709fb3" d="M324 96h1M335 96h1M348 96h1M480 96h1M320 97h1M322 97h1M457 97h1M459 97h1M465 97h1M467 97h1M469 97h1M483 97h2M486 97h1M492 97h1M322 98h1M326 98h1M332 98h1M348 98h1M462 98h1M472 98h1M476 98h2M484 98h1" />
<path stroke="#6fa0b2" d="M328 96h1M337 96h1M349 96h1M465 96h3M317 97h1M326 97h2M333 97h1M471 97h1M479 97h1" />
<path stroke="#70a0b2" d="M330 96h1M346 96h1M457 96h1M462 96h2M481 96h1M483 96h1M489 96h1M316 97h1M323 97h1M325 97h1M328 97h1M330 97h3M341 97h1M343 97h1M349 97h1M460 97h1M463 97h1M466 97h1M470 97h1M474 97h1M477 97h1M482 97h1M487 97h1M490 97h1M327 98h1M331 98h1M333 98h1M335 98h1M340 98h1M344 98h1M455 98h1M489 98h1M320 99h1M333 99h1M338 99h1M471 99h1M491 99h1" />
<path stroke="#6fa0b3" d="M332 96h1M459 96h1M321 97h1M475 97h1M480 97h1" />
<path stroke="#70a0b3" d="M315 97h1M324 97h1M334 97h1M340 97h1M342 97h1M345 97h1M350 97h1M461 97h2M464 97h1M468 97h1M481 97h1M489 97h1M314 98h1M316 98h3M321 98h1M323 98h1M325 98h1M330 98h1M334 98h1M336 98h1M339 98h1M341 98h3M345 98h1M349 98h1M456 98h1M458 98h2M461 98h1M465 98h1M467 98h2M470 98h2M475 98h1M478 98h1M482 98h2M485 98h4M492 98h1M339 99h1M456 99h1M481 99h1" />
<path stroke="#6f9fb3" d="M344 97h1M458 97h1" />
<path stroke="#71a0b3" d="M315 98h1M328 98h2M346 98h2M463 98h2M469 98h1M481 98h1M491 98h1M313 99h7M322 99h4M327 99h1M329 99h4M334 99h4M342 99h11M455 99h1M457 99h4M465 99h1M467 99h1M469 99h2M472 99h2M475 99h3M479 99h2M482 99h7M490 99h1M315 100h1M320 100h1M323 100h2M327 100h1M338 100h1M340 100h1M350 100h1M353 100h1M457 100h1M460 100h3M470 100h1M473 100h1M477 100h1M486 100h1M490 100h2" />
<path stroke="#719fb3" d="M319 98h2M337 98h1M350 98h1M457 98h1M466 98h1M474 98h1" />
<path stroke="#71a0b2" d="M324 98h1M338 98h1M351 98h1M479 98h1M490 98h1M326 99h1M463 99h1M466 99h1M492 99h1" />
<path stroke="#719fb2" d="M473 98h1" />
<path stroke="#71a1b3" d="M321 99h1M328 99h1M340 99h2M461 99h1M464 99h1M468 99h1M474 99h1M489 99h1M493 99h1M313 100h1M326 100h1M329 100h1M333 100h2M339 100h1M346 100h1M348 100h1M351 100h1M465 100h1M474 100h1M476 100h1M478 100h1M480 100h1M489 100h1M493 100h1" />
<path stroke="#70a1b2" d="M462 99h1M478 99h1" />
<path stroke="#72a1b3" d="M312 100h1M316 100h1M319 100h1M337 100h1M341 100h1M344 100h1M347 100h1M349 100h1M459 100h1M463 100h1M467 100h1M472 100h1M475 100h1M494 100h1M314 101h2M321 101h3M325 101h1M327 101h2M330 101h1M332 101h1M335 101h1M339 101h1M343 101h2M346 101h1M348 101h1M353 101h2M458 101h1M462 101h2M466 101h1M468 101h1M470 101h2M473 101h1M475 101h1M479 101h1M481 101h2M484 101h1M487 101h1M491 101h2M495 101h2M311 102h3M324 102h1M335 102h1M343 102h1M346 102h1M459 102h1M482 102h1M486 102h1M337 105h1M479 105h1M488 105h1M332 106h1M341 106h1M346 106h1M319 107h1M486 109h1M311 111h1M342 111h1M478 111h1M321 112h1M337 114h1M464 115h1M312 116h1M450 116h1M319 117h1M321 117h1M349 117h1M461 120h1M484 120h1M531 120h1M490 121h1M307 122h1M327 123h1M340 123h1M481 123h1M490 123h1M330 124h1M385 124h1M520 124h1M455 125h1M321 126h1M467 126h1M474 127h1" />
<path stroke="#71a1b4" d="M314 100h1M318 100h1M321 100h1M328 100h1M335 100h2M456 100h1M479 100h1M482 100h1M492 100h1" />
<path stroke="#72a1b4" d="M322 100h1M331 100h1M352 100h1M469 100h1M483 100h1M311 101h3M319 101h2M324 101h1M326 101h1M329 101h1M331 101h1M333 101h2M336 101h3M340 101h3M345 101h1M347 101h1M349 101h4M456 101h2M459 101h3M464 101h2M467 101h1M469 101h1M472 101h1M476 101h3M480 101h1M483 101h1M486 101h1M489 101h1M493 101h2M314 102h1M327 102h1M329 102h1M331 102h1M341 102h1M345 102h1M347 102h1M354 102h1M455 102h1M462 102h1M465 102h2M472 102h2M479 102h2M488 102h2M313 103h1M322 103h1M332 103h1M341 103h1M348 103h1M352 103h1M354 103h1M469 103h1M479 103h3M488 103h1M323 104h1M457 104h2M461 104h1M463 104h2M478 104h1M483 104h1M486 104h1M495 104h1M498 104h1M320 105h1M323 105h1M326 105h2M330 105h1M345 105h1M355 105h1M458 105h1M465 105h1M476 105h1M481 105h1M486 105h2M323 106h2M326 106h1M348 106h1M459 106h1M473 106h1M480 106h1M309 107h1M336 107h1M341 107h1M351 107h1M354 107h1M357 107h1M360 107h1M462 107h1M464 107h1M466 107h1M470 107h1M477 107h1M481 107h1M485 107h1M487 107h1M309 108h1M320 108h2M327 108h1M340 108h1M344 108h1M452 108h1M458 108h2M461 108h1M469 108h1M473 108h1M476 108h1M482 108h1M485 108h1M490 108h1M493 108h1M311 109h2M317 109h1M324 109h1M331 109h1M336 109h1M360 109h1M362 109h1M467 109h1M485 109h1M494 109h1M309 110h1M316 110h1M332 110h1M334 110h1M338 110h1M346 110h1M354 110h1M362 110h1M446 110h1M451 110h1M464 110h1M482 110h2M488 110h1M497 110h1M316 111h1M318 111h1M337 111h1M365 111h1M368 111h1M447 111h1M459 111h2M464 111h1M476 111h1M480 111h1M487 111h1M495 111h1M498 111h1M317 112h1M339 112h2M344 112h1M355 112h1M449 112h1M460 112h2M466 112h1M470 112h2M477 112h1M481 112h2M500 112h1M310 113h1M315 113h2M324 113h1M329 113h1M333 113h1M339 113h1M458 113h1M463 113h1M469 113h1M471 113h1M473 113h1M475 113h1M482 113h1M488 113h1M318 114h1M320 114h1M329 114h1M334 114h1M338 114h1M372 114h1M442 114h1M444 114h1M460 114h1M469 114h2M473 114h1M486 114h1M490 114h1M325 115h1M328 115h1M334 115h2M347 115h1M358 115h1M451 115h1M458 115h1M463 115h1M475 115h3M479 115h1M484 115h1M316 116h2M327 116h1M344 116h1M346 116h2M461 116h1M476 116h1M500 116h1M309 117h1M333 117h1M335 117h1M345 117h1M456 117h1M458 117h1M460 117h1M476 117h1M484 117h1M309 118h1M334 118h1M340 118h1M346 118h1M348 118h1M452 118h1M469 118h1M473 118h1M323 119h1M329 119h3M351 119h1M362 119h1M457 119h1M464 119h1M476 119h1M487 119h1M530 119h1M311 120h1M316 120h1M320 120h1M323 120h3M331 120h1M341 120h1M359 120h1M376 120h1M440 120h1M463 120h1M473 120h1M489 120h1M321 121h1M328 121h1M331 121h1M342 121h1M347 121h1M349 121h1M360 121h1M379 121h1M464 121h2M470 121h1M499 121h1M501 121h1M306 122h1M312 122h1M328 122h2M344 122h1M350 122h2M362 122h2M379 122h1M463 122h1M465 122h2M486 122h1M489 122h1M311 123h1M316 123h1M319 123h1M324 123h1M332 123h1M341 123h1M361 123h1M363 123h2M439 123h1M461 123h2M480 123h1M488 123h1M500 123h1M521 123h1M527 123h1M306 124h1M323 124h1M328 124h1M346 124h1M363 124h1M464 124h1M475 124h1M499 124h2M305 125h2M310 125h3M317 125h1M330 125h1M337 125h1M364 125h1M470 125h2M481 125h1M483 125h1M489 125h1M516 125h1M518 125h1M312 126h1M319 126h1M331 126h1M342 126h1M347 126h1M350 126h1M366 126h1M385 126h1M459 126h1M470 126h1M515 126h1M518 126h1M320 127h1M326 127h1M329 127h1M332 127h1M450 127h1M463 127h2M479 127h1M487 127h1M502 127h1M515 127h1" />
<path stroke="#72a0b4" d="M325 100h1M332 100h1M488 101h1" />
<path stroke="#72a0b3" d="M330 100h1M342 100h2M345 100h1M354 100h1M464 100h1M466 100h1M468 100h1M481 100h1M484 100h1M487 100h2M495 100h1M455 101h1M474 101h1" />
<path stroke="#71a0b4" d="M455 100h1M458 100h1M471 100h1" />
<path stroke="#33acc5" d="M485 100h1" />
<path stroke="#73a2b3" d="M319 102h1M337 102h1M340 102h1M478 102h1M458 103h1M327 104h1M353 104h1M470 104h1M473 104h1M475 104h2M322 105h1M328 105h1M468 105h1M337 106h1M311 107h1M347 108h2M352 108h1M457 108h1M330 109h1M365 109h1M464 109h1M462 110h1M474 110h1M455 111h1M484 111h1M456 112h1M357 113h1M314 114h1M503 114h1M312 115h1M320 115h1M445 115h1M498 115h1M507 115h1M357 116h1M459 116h1M317 117h1M336 117h1M373 117h1M471 117h1M486 117h1M307 119h1M309 119h1M338 119h1M462 119h1M379 120h1M482 120h1M306 121h1M318 121h1M451 121h1M476 121h1M323 122h1M337 122h1M340 122h1M529 122h1M337 123h2M345 123h1M381 123h1M464 123h1M476 123h1M341 124h1M347 124h1M456 124h1M326 125h1M461 125h1M472 125h1M482 125h1M316 126h1M329 126h2M471 126h1M350 127h1" />
<path stroke="#72a2b4" d="M320 102h1M330 102h1M333 102h1M336 102h1M464 102h1M470 102h1M477 102h1M484 102h1M495 102h1M312 103h1M325 103h1M336 103h1M349 103h1M463 103h1M465 103h2M482 103h1M311 104h1M320 104h1M331 104h1M333 104h1M338 104h1M340 104h1M343 104h1M468 104h1M484 104h1M488 104h2M496 104h1M311 105h2M325 105h1M332 105h1M335 105h1M338 105h1M346 105h1M354 105h1M460 105h2M467 105h1M471 105h1M473 105h2M485 105h1M489 105h2M322 106h1M329 106h1M333 106h1M360 106h1M463 106h1M472 106h1M476 106h2M490 106h1M325 107h1M335 107h1M339 107h1M362 107h1M486 107h1M310 108h1M338 108h1M455 108h2M462 108h1M480 108h1M486 108h1M489 108h1M319 109h1M337 109h1M344 109h1M348 109h1M359 109h1M361 109h1M480 109h1M482 109h2M490 109h2M318 110h1M326 110h1M331 110h1M363 110h1M452 110h1M457 110h1M465 110h1M479 110h1M490 110h1M320 111h2M349 111h2M356 111h1M358 111h1M371 111h1M445 111h1M452 111h1M469 111h3M486 111h1M489 111h1M310 112h1M320 112h1M345 112h1M358 112h1M367 112h1M488 112h2M349 113h1M451 113h1M460 113h1M462 113h1M472 113h1M505 113h1M321 114h1M325 114h1M328 114h1M342 114h1M446 114h1M458 114h1M462 114h2M477 114h1M483 114h1M313 115h2M346 115h1M375 115h1M443 115h1M469 115h1M497 115h1M318 116h1M321 116h1M328 116h1M336 116h1M373 116h1M442 116h1M444 116h1M463 116h1M465 116h1M468 116h1M497 116h1M507 116h1M310 117h1M314 117h1M322 117h1M344 117h1M351 117h1M358 117h1M377 117h1M440 117h1M469 117h1M473 117h1M479 117h1M490 117h1M311 118h1M320 118h1M326 118h1M329 118h1M332 118h1M341 118h1M351 118h1M374 118h1M377 118h2M459 118h1M478 118h2M487 118h1M490 118h1M322 119h1M335 119h1M377 119h1M440 119h1M456 119h1M460 119h1M466 119h1M474 119h1M498 119h2M308 120h1M317 120h1M322 120h1M334 120h1M349 120h2M360 120h1M451 120h1M471 120h1M498 120h1M500 120h1M529 120h1M310 121h1M322 121h1M324 121h1M326 121h1M330 121h1M361 121h1M439 121h1M473 121h1M484 121h1M489 121h1M317 122h1M325 122h1M383 122h1M439 122h1M473 122h1M480 122h1M528 122h1M329 123h1M334 123h1M360 123h1M471 123h1M487 123h1M519 123h1M526 123h1M308 124h1M321 124h1M325 124h1M329 124h1M467 124h1M476 124h1M478 124h1M525 124h1M325 125h1M332 125h1M362 125h1M439 125h2M459 125h1M463 125h1M466 125h1M468 125h1M473 125h1M476 125h1M479 125h1M306 126h1M328 126h1M348 126h1M451 126h1M457 126h2M481 126h1M484 126h1M311 127h1M342 127h1M451 127h1M472 127h1M477 127h1M484 127h1M488 127h2M501 127h1" />
<path stroke="#73a1b4" d="M321 102h3M325 102h1M332 102h1M339 102h1M348 102h1M351 102h2M456 102h1M460 102h1M463 102h1M468 102h2M471 102h1M474 102h2M487 102h1M492 102h2M320 103h2M323 103h2M327 103h1M330 103h2M337 103h1M344 103h1M353 103h1M355 103h1M457 103h1M459 103h1M461 103h2M467 103h2M470 103h3M476 103h3M483 103h1M487 103h1M493 103h2M496 103h1M319 104h1M321 104h2M324 104h3M328 104h2M332 104h1M334 104h2M339 104h1M341 104h1M344 104h3M349 104h1M352 104h1M459 104h1M462 104h1M465 104h1M469 104h1M471 104h2M474 104h1M480 104h3M487 104h1M490 104h1M494 104h1M310 105h1M319 105h1M321 105h1M324 105h1M329 105h1M331 105h1M333 105h1M336 105h1M339 105h4M347 105h1M462 105h3M469 105h2M475 105h1M477 105h1M482 105h1M484 105h1M496 105h2M499 105h2M309 106h4M320 106h2M325 106h1M328 106h1M331 106h1M338 106h1M342 106h3M349 106h1M353 106h1M356 106h1M359 106h1M462 106h1M467 106h1M469 106h3M475 106h1M479 106h1M481 106h2M484 106h3M489 106h1M498 106h3M310 107h1M312 107h1M318 107h1M322 107h3M327 107h3M332 107h3M337 107h2M343 107h1M347 107h1M356 107h1M361 107h1M457 107h1M460 107h2M463 107h1M465 107h1M467 107h1M469 107h1M473 107h1M475 107h2M478 107h2M484 107h1M490 107h1M500 107h1M311 108h1M318 108h2M322 108h1M324 108h2M328 108h1M332 108h2M335 108h3M341 108h2M350 108h1M355 108h1M357 108h1M359 108h3M363 108h1M365 108h1M454 108h1M460 108h1M465 108h1M468 108h1M471 108h2M475 108h1M477 108h1M479 108h1M494 108h1M498 108h1M309 109h2M321 109h1M326 109h3M334 109h1M340 109h1M342 109h1M346 109h2M351 109h2M354 109h3M363 109h2M367 109h1M448 109h2M452 109h5M458 109h1M460 109h2M463 109h1M465 109h2M470 109h3M474 109h6M487 109h2M495 109h1M310 110h2M319 110h2M322 110h1M325 110h1M330 110h1M335 110h3M339 110h1M341 110h1M349 110h3M356 110h1M361 110h1M365 110h2M369 110h1M449 110h1M453 110h4M459 110h3M467 110h5M476 110h1M484 110h2M487 110h1M489 110h1M492 110h2M496 110h1M498 110h3M312 111h1M317 111h1M322 111h2M328 111h1M331 111h1M335 111h2M338 111h1M341 111h1M344 111h2M348 111h1M370 111h1M446 111h1M448 111h3M457 111h1M462 111h2M465 111h1M468 111h1M474 111h1M479 111h1M481 111h3M488 111h1M490 111h1M494 111h1M497 111h1M499 111h2M315 112h1M318 112h1M322 112h1M326 112h2M329 112h2M332 112h1M334 112h1M338 112h1M342 112h1M348 112h1M350 112h2M357 112h1M368 112h3M372 112h1M444 112h2M448 112h1M452 112h1M459 112h1M465 112h1M468 112h2M472 112h1M474 112h3M478 112h2M483 112h2M486 112h2M497 112h3M501 112h1M503 112h1M314 113h1M317 113h2M321 113h1M325 113h2M328 113h1M331 113h1M334 113h1M336 113h3M341 113h2M344 113h1M346 113h1M351 113h1M368 113h1M372 113h2M445 113h1M447 113h1M455 113h3M459 113h1M464 113h4M474 113h1M477 113h3M483 113h2M486 113h2M490 113h1M504 113h1M311 114h1M316 114h2M322 114h2M326 114h2M330 114h1M332 114h1M335 114h1M339 114h1M341 114h1M344 114h3M348 114h1M358 114h1M371 114h1M452 114h1M454 114h1M456 114h2M461 114h1M465 114h4M475 114h2M478 114h5M484 114h1M488 114h2M497 114h1M500 114h2M504 114h1M507 114h2M310 115h2M315 115h1M318 115h2M321 115h1M324 115h1M326 115h1M329 115h5M337 115h3M341 115h2M344 115h1M349 115h2M371 115h1M373 115h2M441 115h2M444 115h1M452 115h2M460 115h2M465 115h4M472 115h1M478 115h1M482 115h1M487 115h1M500 115h1M502 115h2M506 115h1M310 116h2M314 116h1M322 116h3M329 116h1M331 116h4M338 116h2M341 116h2M349 116h3M356 116h1M359 116h2M375 116h2M441 116h1M443 116h1M451 116h2M457 116h2M460 116h1M466 116h1M472 116h2M478 116h5M484 116h1M486 116h2M498 116h1M504 116h2M508 116h1M311 117h2M316 117h1M318 117h1M320 117h1M323 117h2M327 117h6M337 117h4M347 117h2M359 117h2M375 117h1M442 117h2M450 117h1M464 117h2M467 117h1M470 117h1M477 117h2M481 117h1M488 117h2M497 117h4M310 118h1M312 118h2M316 118h1M318 118h2M321 118h1M323 118h1M325 118h1M328 118h1M330 118h1M333 118h1M335 118h2M339 118h1M344 118h2M347 118h1M350 118h1M359 118h3M375 118h2M440 118h1M450 118h2M460 118h2M463 118h1M465 118h2M471 118h2M476 118h1M482 118h3M486 118h1M489 118h1M498 118h2M310 119h3M319 119h1M325 119h1M328 119h1M332 119h2M336 119h1M342 119h1M344 119h1M346 119h2M358 119h1M360 119h2M375 119h1M451 119h2M458 119h2M463 119h1M465 119h1M467 119h4M472 119h2M475 119h1M477 119h4M483 119h1M486 119h1M488 119h1M531 119h1M307 120h1M310 120h1M312 120h1M318 120h1M326 120h5M332 120h1M335 120h1M338 120h3M342 120h1M344 120h1M348 120h1M361 120h2M377 120h2M439 120h1M450 120h1M452 120h1M456 120h1M458 120h1M460 120h1M467 120h4M474 120h1M476 120h4M487 120h1M499 120h1M530 120h1M309 121h1M311 121h1M316 121h1M319 121h1M332 121h1M335 121h1M339 121h1M341 121h1M344 121h1M362 121h1M381 121h2M440 121h2M457 121h6M466 121h3M472 121h1M474 121h1M477 121h4M486 121h3M500 121h1M524 121h2M531 121h1M309 122h3M316 122h1M319 122h1M321 122h1M326 122h1M334 122h1M336 122h1M338 122h2M347 122h2M360 122h1M380 122h1M440 122h2M451 122h2M456 122h1M458 122h1M460 122h2M464 122h1M468 122h1M474 122h2M477 122h1M479 122h1M481 122h1M483 122h1M487 122h1M498 122h4M525 122h1M527 122h1M305 123h3M321 123h3M328 123h1M331 123h1M336 123h1M339 123h1M342 123h1M348 123h1M350 123h1M362 123h1M379 123h2M382 123h2M440 123h1M451 123h1M456 123h2M459 123h1M466 123h1M468 123h1M472 123h2M478 123h2M482 123h1M484 123h1M489 123h1M499 123h1M501 123h1M520 123h1M523 123h2M305 124h1M307 124h1M310 124h3M316 124h1M322 124h1M327 124h1M336 124h3M340 124h1M344 124h1M348 124h3M364 124h1M439 124h2M451 124h2M461 124h1M463 124h1M466 124h1M468 124h2M472 124h1M474 124h1M477 124h1M479 124h1M484 124h1M488 124h2M501 124h1M516 124h2M521 124h1M307 125h1M313 125h1M316 125h1M319 125h1M322 125h2M327 125h1M331 125h1M334 125h1M339 125h4M344 125h2M348 125h2M365 125h1M386 125h1M451 125h1M456 125h1M465 125h1M475 125h1M478 125h1M480 125h1M488 125h1M501 125h3M515 125h1M517 125h1M521 125h4M307 126h1M313 126h1M317 126h1M320 126h1M322 126h1M325 126h1M332 126h1M334 126h1M338 126h3M345 126h2M365 126h1M386 126h2M440 126h2M455 126h1M460 126h3M464 126h1M466 126h1M468 126h1M472 126h4M477 126h4M482 126h2M486 126h2M490 126h1M500 126h4M512 126h3M517 126h1M519 126h2M289 127h1M316 127h1M318 127h2M321 127h1M323 127h3M328 127h1M334 127h1M336 127h1M338 127h4M344 127h3M365 127h1M384 127h2M387 127h1M452 127h1M455 127h1M457 127h1M460 127h2M467 127h1M471 127h1M473 127h1M475 127h1M486 127h1M512 127h1M514 127h1" />
<path stroke="#73a2b4" d="M326 102h1M338 102h1M349 102h1M457 102h1M467 102h1M476 102h1M481 102h1M497 102h1M310 103h2M319 103h1M326 103h1M328 103h2M333 103h3M339 103h2M342 103h2M345 103h3M460 103h1M464 103h1M473 103h2M484 103h1M486 103h1M489 103h1M495 103h1M498 103h2M310 104h1M312 104h2M330 104h1M336 104h2M347 104h2M354 104h2M460 104h1M466 104h2M477 104h1M479 104h1M497 104h1M499 104h1M334 105h1M343 105h2M348 105h2M353 105h1M457 105h1M459 105h1M466 105h1M472 105h1M478 105h1M480 105h1M483 105h1M318 106h2M327 106h1M330 106h1M334 106h3M339 106h2M345 106h1M347 106h1M354 106h2M357 106h2M457 106h2M460 106h1M464 106h3M468 106h1M474 106h1M478 106h1M483 106h1M488 106h1M497 106h1M320 107h2M326 107h1M330 107h2M340 107h1M342 107h1M344 107h1M346 107h1M348 107h3M352 107h1M355 107h1M358 107h1M455 107h1M458 107h2M468 107h1M471 107h1M474 107h1M480 107h1M482 107h2M488 107h2M498 107h2M317 108h1M323 108h1M326 108h1M329 108h2M334 108h1M339 108h1M345 108h2M349 108h1M351 108h1M353 108h2M356 108h1M358 108h1M364 108h1M366 108h1M453 108h1M463 108h2M466 108h2M470 108h1M474 108h1M478 108h1M481 108h1M483 108h2M487 108h2M491 108h2M495 108h1M499 108h2M318 109h1M320 109h1M322 109h2M325 109h1M329 109h1M332 109h2M335 109h1M338 109h2M341 109h1M345 109h1M349 109h2M357 109h1M366 109h1M450 109h2M459 109h1M468 109h2M473 109h1M481 109h1M484 109h1M489 109h1M492 109h2M497 109h1M499 109h2M312 110h1M317 110h1M321 110h1M323 110h2M327 110h3M333 110h1M340 110h1M342 110h1M344 110h2M347 110h2M364 110h1M367 110h2M447 110h2M450 110h1M463 110h1M466 110h1M472 110h2M477 110h1M480 110h2M486 110h1M491 110h1M494 110h2M310 111h1M319 111h1M324 111h4M330 111h1M332 111h3M339 111h2M346 111h2M351 111h1M357 111h1M366 111h2M369 111h1M451 111h1M458 111h1M461 111h1M466 111h2M472 111h1M477 111h1M501 111h2M311 112h2M316 112h1M319 112h1M323 112h2M328 112h1M333 112h1M335 112h3M341 112h1M346 112h2M356 112h1M371 112h1M446 112h2M453 112h3M457 112h2M462 112h3M467 112h1M473 112h1M480 112h1M490 112h1M502 112h1M311 113h2M319 113h2M322 113h2M327 113h1M330 113h1M332 113h1M335 113h1M340 113h1M345 113h1M347 113h2M350 113h1M358 113h1M369 113h2M443 113h1M446 113h1M452 113h3M470 113h1M476 113h1M480 113h2M489 113h1M498 113h6M310 114h1M312 114h2M315 114h1M319 114h1M324 114h1M333 114h1M336 114h1M340 114h1M347 114h1M349 114h3M356 114h2M370 114h1M373 114h2M443 114h1M445 114h1M450 114h2M455 114h1M459 114h1M464 114h1M471 114h2M474 114h1M487 114h1M498 114h2M502 114h1M505 114h2M316 115h2M322 115h2M327 115h1M336 115h1M340 115h1M345 115h1M348 115h1M351 115h1M356 115h2M359 115h1M372 115h1M450 115h1M454 115h4M459 115h1M462 115h1M470 115h2M473 115h2M480 115h2M483 115h1M488 115h3M504 115h2M315 116h1M319 116h2M325 116h2M330 116h1M335 116h1M337 116h1M340 116h1M345 116h1M348 116h1M358 116h1M372 116h1M455 116h2M462 116h1M464 116h1M467 116h1M469 116h3M474 116h2M477 116h1M483 116h1M489 116h1M499 116h1M506 116h1M313 117h1M325 117h2M334 117h1M342 117h1M346 117h1M350 117h1M357 117h1M374 117h1M376 117h1M441 117h1M451 117h2M455 117h1M457 117h1M461 117h3M466 117h1M468 117h1M472 117h1M474 117h2M480 117h1M482 117h2M487 117h1M308 118h1M317 118h1M322 118h1M324 118h1M327 118h1M337 118h2M342 118h1M349 118h1M358 118h1M439 118h1M441 118h2M456 118h3M462 118h1M464 118h1M467 118h2M470 118h1M474 118h1M477 118h1M480 118h2M488 118h1M500 118h1M308 119h1M316 119h3M320 119h2M326 119h2M334 119h1M337 119h1M339 119h2M345 119h1M348 119h3M376 119h1M378 119h1M439 119h1M441 119h1M450 119h1M461 119h1M471 119h1M481 119h2M484 119h1M489 119h2M500 119h1M309 120h1M319 120h1M321 120h1M333 120h1M336 120h2M345 120h1M347 120h1M351 120h1M380 120h1M441 120h1M457 120h1M459 120h1M462 120h1M464 120h3M472 120h1M475 120h1M480 120h2M483 120h1M486 120h1M490 120h1M527 120h2M307 121h2M312 121h1M317 121h1M320 121h1M325 121h1M327 121h1M333 121h2M336 121h3M340 121h1M345 121h2M350 121h2M377 121h2M380 121h1M450 121h1M452 121h1M456 121h1M463 121h1M471 121h1M481 121h3M526 121h5M318 122h1M320 122h1M324 122h1M327 122h1M330 122h4M335 122h1M341 122h2M345 122h2M349 122h1M361 122h1M378 122h1M381 122h1M455 122h1M459 122h1M462 122h1M469 122h1M471 122h2M476 122h1M478 122h1M482 122h1M484 122h1M488 122h1M490 122h1M522 122h3M526 122h1M530 122h2M308 123h1M310 123h1M312 123h1M317 123h2M320 123h1M325 123h1M333 123h1M335 123h1M344 123h1M346 123h2M349 123h1M441 123h1M450 123h1M452 123h1M455 123h1M458 123h1M460 123h1M463 123h1M465 123h1M467 123h1M469 123h2M474 123h2M483 123h1M486 123h1M522 123h1M525 123h1M317 124h3M326 124h1M331 124h5M342 124h1M345 124h1M361 124h2M365 124h1M382 124h1M384 124h1M441 124h1M450 124h1M455 124h1M458 124h3M462 124h1M465 124h1M471 124h1M473 124h1M480 124h4M486 124h2M490 124h1M502 124h1M518 124h2M522 124h3M318 125h1M320 125h2M324 125h1M329 125h1M333 125h1M335 125h2M338 125h1M347 125h1M350 125h1M363 125h1M366 125h1M382 125h2M385 125h1M441 125h1M450 125h1M452 125h1M457 125h2M460 125h1M467 125h1M469 125h1M474 125h1M477 125h1M484 125h1M486 125h2M490 125h1M499 125h1M514 125h1M305 126h1M310 126h2M318 126h1M323 126h2M326 126h2M333 126h1M335 126h3M344 126h1M363 126h2M384 126h1M439 126h1M450 126h1M465 126h1M469 126h1M476 126h1M488 126h2M516 126h1M313 127h1M317 127h1M322 127h1M327 127h1M330 127h2M333 127h1M335 127h1M347 127h2M351 127h1M364 127h1M386 127h1M439 127h3M456 127h1M458 127h2M462 127h1M465 127h2M468 127h1M470 127h1M476 127h1M478 127h1M480 127h4M490 127h1M503 127h2M511 127h1M513 127h1M516 127h2" />
<path stroke="#73a1b3" d="M328 102h1M334 102h1M344 102h1M350 102h1M353 102h1M458 102h1M461 102h1M483 102h1M494 102h1M496 102h1M338 103h1M475 103h1M497 103h1M498 105h1M461 106h1M487 106h1M345 107h1M353 107h1M472 107h1M331 108h1M451 108h1M353 109h1M368 109h1M457 109h1M462 109h1M496 109h1M498 109h1M355 110h1M357 110h1M475 110h1M478 110h1M329 111h1M343 111h1M355 111h1M456 111h1M473 111h1M475 111h1M496 111h1M325 112h1M331 112h1M356 113h1M444 113h1M461 113h1M331 114h1M508 115h1M374 116h1M440 116h1M488 116h1M490 116h1M341 117h1M459 117h1M331 118h1M455 118h1M475 118h1M324 119h1M341 119h1M442 119h1M488 120h1M323 121h1M329 121h1M348 121h1M469 121h1M475 121h1M498 121h1M308 122h1M322 122h1M382 122h1M457 122h1M467 122h1M470 122h1M326 123h1M330 123h1M384 123h1M477 123h1M528 123h1M320 124h1M324 124h1M339 124h1M381 124h1M457 124h1M470 124h1M328 125h1M346 125h1M462 125h1M464 125h1M519 125h2M349 126h1M383 126h1M452 126h1M463 126h1M312 127h1M337 127h1M349 127h1M366 127h1" />
<path stroke="#72a2b3" d="M342 102h1M342 104h1M359 107h1M456 107h1M362 108h1M458 110h1M349 112h1M371 113h1M468 113h1M453 114h1M486 115h1M499 115h1M313 116h1M373 118h1M359 119h1M379 119h1M346 120h1M450 122h1M383 124h1M384 125h1M500 125h1M341 126h1M456 126h1M469 127h1" />
</svg>