<svg xmlns="http://www.w3.org/2000/svg" viewBox="0 -0.5 798 128" shape-rendering="crispEdges">
<metadata>Made with Pixels to Svg https://codepen.io/shshaw/pen/XbxvNj</metadata>
<path stroke="#5a757f" d="M67 0h1M97 0h7M127 0h1M266 0h3M689 0h1M704 0h1M711 0h1M718 0h8M67 1h1M97 1h7M127 1h1M266 1h3M689 1h1M704 1h1M711 1h1M718 1h7M68 2h1M96 2h8M126 2h1M266 2h4M689 2h1M704 2h1M711 2h1M717 2h8M69 3h1M96 3h7M124 3h2M266 3h4M689 3h1M704 3h1M711 3h1M717 3h7M69 4h1M96 4h7M123 4h2M266 4h5M689 4h1M704 4h1M711 4h1M717 4h7M70 5h1M96 5h7M122 5h1M266 5h3M270 5h1M689 5h1M704 5h1M711 5h1M717 5h7M71 6h1M96 6h7M121 6h1M266 6h6M689 6h1M704 6h1M711 6h1M717 6h7M72 7h1M96 7h7M119 7h2M266 7h6M689 7h1M704 7h1M711 7h1M717 7h6M72 8h2M95 8h8M117 8h2M266 8h6M689 8h1M704 8h1M711 8h1M717 8h6M74 9h1M95 9h7M116 9h1M266 9h3M689 9h1M704 9h1M711 9h1M717 9h5M75 10h1M95 10h7M113 10h3M266 10h4M689 10h1M704 10h1M711 10h1M717 10h5M75 11h1M95 11h7M111 11h2M266 11h4M271 11h1M689 11h1M704 11h1M711 11h1M716 11h5M76 12h2M95 12h7M108 12h3M266 12h6M689 12h1M704 12h1M711 12h1M716 12h5M77 13h1M95 13h7M104 13h4M266 13h6M689 13h1M704 13h1M711 13h1M716 13h4M78 14h2M95 14h10M266 14h6M689 14h1M704 14h1M711 14h1M715 14h5M80 15h1M95 15h7M266 15h6M689 15h1M704 15h1M711 15h1M715 15h5M80 16h1M94 16h8M266 16h6M689 16h1M704 16h1M711 16h1M715 16h5M81 17h1M94 17h7M266 17h6M689 17h1M704 17h1M711 17h1M714 17h5M82 18h2M94 18h7M266 18h6M689 18h1M704 18h1M711 18h1M714 18h5M84 19h2M94 19h7M266 19h6M689 19h1M704 19h1M711 19h1M713 19h6M85 20h2M94 20h7M266 20h6M689 20h1M704 20h1M711 20h1M713 20h5M87 21h1M94 21h7M266 21h6M689 21h1M704 21h1M711 21h1M713 21h5M88 22h2M93 22h8M266 22h6M689 22h1M704 22h1M711 22h6M90 23h10M266 23h6M689 23h1M704 23h1M711 23h6M92 24h8M266 24h6M689 24h1M704 24h1M711 24h6M93 25h7M266 25h6M689 25h1M704 25h1M711 25h6M93 26h7M266 26h6M689 26h1M704 26h1M711 26h6M93 27h7M266 27h6M689 27h1M704 27h1M711 27h5M92 28h8M266 28h6M689 28h1M704 28h1M710 28h6M92 29h7M266 29h6M689 29h1M704 29h1M709 29h7M92 30h7M266 30h6M689 30h1M704 30h1M709 30h6M92 31h7M266 31h6M689 31h1M704 31h1M709 31h6M92 32h7M266 32h6M689 32h1M704 32h1M708 32h7M92 33h7M266 33h6M689 33h1M704 33h1M708 33h7M92 34h7M266 34h6M689 34h1M704 34h1M708 34h7M92 35h7M266 35h6M689 35h1M704 35h1M707 35h6M91 36h8M266 36h6M689 36h1M704 36h1M707 36h6M91 37h7M266 37h6M689 37h1M704 37h1M706 37h5M91 38h7M266 38h7M689 38h1M704 38h1M706 38h5M91 39h7M266 39h7M689 39h1M704 39h6M91 40h7M266 40h7M689 40h1M704 40h6M91 41h7M266 41h7M689 41h1M704 41h5M90 42h8M266 42h8M689 42h1M703 42h6M90 43h7M266 43h9M689 43h1M702 43h7M90 44h7M266 44h9M689 44h1M702 44h7M90 45h7M266 45h9M689 45h1M701 45h7M90 46h7M266 46h9M689 46h1M700 46h8M90 47h7M266 47h9M689 47h1M700 47h7M89 48h7M266 48h9M689 48h1M699 48h8M89 49h7M266 49h9M699 49h7M89 50h7M266 50h9M698 50h8M89 51h6M266 51h9M698 51h7M89 52h6M266 52h9M698 52h7M88 53h7M266 53h9M698 53h7M88 54h6M266 54h9M697 54h8M87 55h7M266 55h9M697 55h7M87 56h7M266 56h9M696 56h8M87 57h7M266 57h9M696 57h7M87 58h7M266 58h9M695 58h8M86 59h8M266 59h9M695 59h7M86 60h8M266 60h9M694 60h8M86 61h8M266 61h9M694 61h7M86 62h8M266 62h9M694 62h7M86 63h8M266 63h9M694 63h7M86 64h8M266 64h9M693 64h8M85 65h8M266 65h9M693 65h7M85 66h8M266 66h9M692 66h8M85 67h8M266 67h9M692 67h7M85 68h8M266 68h9M691 68h8M85 69h8M266 69h9M691 69h7M85 70h8M266 70h9M690 70h8M85 71h8M266 71h8M690 71h7M85 72h7M266 72h7M690 72h7M85 73h7M266 73h6M690 73h7M85 74h7M266 74h6M278 74h1M689 74h8M85 75h7M266 75h7M278 75h2M689 75h7M85 76h7M266 76h7M278 76h3M688 76h9M85 77h6M266 77h7M277 77h4M688 77h9M85 78h6M266 78h8M276 78h3M280 78h2M687 78h10M85 79h6M266 79h8M275 79h7M687 79h10M85 80h6M266 80h16M686 80h12M85 81h6M266 81h17M686 81h12M84 82h7M266 82h4M271 82h12M686 82h12M84 83h7M266 83h17M686 83h12M84 84h7M266 84h17M685 84h13M84 85h7M266 85h17M685 85h13M84 86h7M266 86h17M684 86h15M83 87h10M266 87h18M684 87h7M692 87h7M83 88h12M266 88h14M281 88h4M683 88h8M692 88h7M83 89h7M91 89h4M266 89h20M683 89h7M692 89h7M83 90h7M92 90h3M266 90h18M682 90h8M692 90h7M83 91h7M93 91h3M266 91h17M682 91h7M692 91h7M83 92h7M93 92h3M266 92h18M682 92h7M692 92h7M83 93h7M93 93h3M266 93h17M682 93h7M692 93h7M82 94h8M93 94h3M266 94h3M270 94h13M284 94h1M681 94h8M692 94h7M82 95h7M94 95h2M266 95h17M284 95h1M681 95h7M692 95h7M82 96h7M94 96h2M266 96h3M270 96h15M680 96h8M692 96h7M82 97h7M94 97h3M266 97h9M276 97h9M680 97h7M692 97h7M82 98h7M95 98h2M266 98h1M271 98h1M275 98h3M279 98h2M282 98h1M679 98h8M692 98h7M82 99h7M95 99h3M679 99h7M692 99h7M82 100h7M95 100h3M678 100h8M692 100h7M82 101h7M95 101h3M677 101h9M692 101h7M81 102h8M95 102h3M676 102h10M693 102h6M81 103h7M96 103h3M676 103h9M693 103h5M81 104h7M96 104h3M674 104h11M693 104h5M81 105h7M96 105h3M673 105h11M693 105h6M81 106h7M96 106h3M673 106h11M694 106h5M81 107h7M97 107h2M672 107h11M694 107h5M74 108h15M97 108h2M671 108h12M694 108h5M73 109h16M97 109h3M670 109h12M694 109h5M73 110h2M80 110h9M98 110h2M669 110h13M694 110h6M72 111h3M80 111h9M98 111h2M668 111h14M693 111h7M72 112h2M80 112h9M98 112h2M667 112h15M693 112h7M71 113h3M80 113h9M98 113h3M666 113h15M693 113h7M71 114h2M79 114h10M98 114h3M664 114h7M673 114h8M693 114h7M70 115h3M79 115h10M99 115h2M664 115h6M673 115h7M693 115h7M69 116h3M79 116h10M99 116h3M663 116h7M673 116h7M693 116h7M68 117h3M79 117h10M99 117h3M662 117h7M673 117h6M693 117h7M68 118h2M79 118h10M100 118h3M661 118h8M673 118h6M693 118h7M67 119h3M79 119h10M100 119h3M659 119h9M673 119h5M693 119h7M67 120h2M79 120h10M101 120h3M659 120h9M673 120h5M693 120h7M66 121h3M79 121h10M102 121h3M659 121h8M672 121h6M693 121h7M65 122h3M78 122h11M102 122h3M657 122h10M672 122h6M693 122h7M64 123h3M78 123h11M103 123h3M655 123h11M672 123h5M693 123h7M63 124h3M78 124h11M104 124h3M654 124h12M671 124h6M693 124h7M63 125h2M78 125h11M104 125h3M652 125h14M670 125h6M693 125h7M62 126h3M78 126h7M86 126h3M105 126h3M651 126h14M669 126h7M693 126h7M61 127h3M78 127h7M86 127h3M106 127h2M649 127h15M669 127h6M693 127h7" />
<path stroke="#5a767f" d="M260 0h6M279 0h1M522 0h20M260 1h6M278 1h2M522 1h20M260 2h6M278 2h1M522 2h20M260 3h6M277 3h1M522 3h20M260 4h6M276 4h2M522 4h20M260 5h6M269 5h1M275 5h2M522 5h20M260 6h6M274 6h2M522 6h20M260 7h6M273 7h2M522 7h20M260 8h1M263 8h3M272 8h2M522 8h19M260 9h1M263 9h3M269 9h4M522 9h19M260 10h1M263 10h3M270 10h2M522 10h18M260 11h1M263 11h3M270 11h1M523 11h17M542 11h1M263 12h3M524 12h19M262 13h4M524 13h19M262 14h4M525 14h18M262 15h4M525 15h18M261 16h5M525 16h18M261 17h5M522 17h1M526 17h17M261 18h5M522 18h2M526 18h17M261 19h5M522 19h3M526 19h16M261 20h5M522 20h20M261 21h5M522 21h19M262 22h4M522 22h19M262 23h4M522 23h18M262 24h4M522 24h18M262 25h4M522 25h18M262 26h4M522 26h18M262 27h4M522 27h18M261 28h5M522 28h18M260 29h6M522 29h17M260 30h6M522 30h17M543 30h4M260 31h6M522 31h17M542 31h5M260 32h6M522 32h17M542 32h3M546 32h1M260 33h6M521 33h18M541 33h4M546 33h1M260 34h6M521 34h23M546 34h1M260 35h6M520 35h24M546 35h1M260 36h6M520 36h24M546 36h1M260 37h6M520 37h24M546 37h1M260 38h6M520 38h23M546 38h1M260 39h6M519 39h24M546 39h1M260 40h6M519 40h24M546 40h1M260 41h6M519 41h24M546 41h1M260 42h6M518 42h25M546 42h1M260 43h6M518 43h1M520 43h23M260 44h6M518 44h1M522 44h21M261 45h5M518 45h1M522 45h21M261 46h5M518 46h1M522 46h21M261 47h1M263 47h3M518 47h1M522 47h21M261 48h1M263 48h3M518 48h1M522 48h21M261 49h1M263 49h3M518 49h1M522 49h21M261 50h1M264 50h2M518 50h1M522 50h21M261 51h1M264 51h2M518 51h1M522 51h21M261 52h1M265 52h1M518 52h1M522 52h20M265 53h1M518 53h1M522 53h20M265 54h1M518 54h1M522 54h20M518 55h1M522 55h20M518 56h1M522 56h20M522 57h20M522 58h21M264 59h2M522 59h21M261 60h5M522 60h21M260 61h6M523 61h20M260 62h6M523 62h20M260 63h6M523 63h20M260 64h6M523 64h20M260 65h6M523 65h20M260 66h6M523 66h20M260 67h6M522 67h21M260 68h6M522 68h21M259 69h7M522 69h21M258 70h8M522 70h21M258 71h8M522 71h21M258 72h8M522 72h21M258 73h8M522 73h23M257 74h9M522 74h23M256 75h10M522 75h23M255 76h11M522 76h23M256 77h1M259 77h7M522 77h22M256 78h1M259 78h7M279 78h1M521 78h23M256 79h1M260 79h6M521 79h17M540 79h4M256 80h1M260 80h6M521 80h17M540 80h4M256 81h1M260 81h6M520 81h18M540 81h3M256 82h1M260 82h6M270 82h1M519 82h19M540 82h3M256 83h1M260 83h6M518 83h20M540 83h3M256 84h1M259 84h7M518 84h20M540 84h3M256 85h1M259 85h7M518 85h19M540 85h3M259 86h7M515 86h22M541 86h2M258 87h8M515 87h22M541 87h2M232 88h5M252 88h1M258 88h8M280 88h1M286 88h2M513 88h24M541 88h2M232 89h6M252 89h1M257 89h9M286 89h1M513 89h24M541 89h2M234 90h9M251 90h2M255 90h11M284 90h3M512 90h25M540 90h3M234 91h10M245 91h1M250 91h16M283 91h3M512 91h25M540 91h3M236 92h9M249 92h17M284 92h1M511 92h27M540 92h3M238 93h8M248 93h18M283 93h2M509 93h29M540 93h3M239 94h27M283 94h1M507 94h32M540 94h3M239 95h27M283 95h1M506 95h2M509 95h30M540 95h3M239 96h27M505 96h1M510 96h33M240 97h26M511 97h32M240 98h26M267 98h1M278 98h1M283 98h1M511 98h32M241 99h25M269 99h1M502 99h7M511 99h34M242 100h24M501 100h44M237 101h1M241 101h25M499 101h48M237 102h2M241 102h25M496 102h52M237 103h29M495 103h55M237 104h29M494 104h57M236 105h30M493 105h59M236 106h30M493 106h59M236 107h30M492 107h61M236 108h30M491 108h62M237 109h29M491 109h63M237 110h29M491 110h64M237 111h29M491 111h65M236 112h30M490 112h67M236 113h30M489 113h67M236 114h30M488 114h68M235 115h31M487 115h71M235 116h31M486 116h76M235 117h31M485 117h79M231 118h2M235 118h31M482 118h84M230 119h36M479 119h88M230 120h36M475 120h95M229 121h37M472 121h99M229 122h37M471 122h102M228 123h38M470 123h105M228 124h38M469 124h107M227 125h39M468 125h108M226 126h40M466 126h112M225 127h41M465 127h115" />
<path stroke="#5a7580" d="M269 94h1M269 96h1M275 97h1M272 98h2" />
<path stroke="#5b767f" d="M268 98h1M270 98h1M268 99h1M279 99h1M282 99h3" />
<path stroke="#5b7680" d="M269 98h1M274 98h1M271 99h2M277 99h2M281 99h1M266 100h1M268 100h1M270 100h3M274 100h1M276 100h2M279 100h1M281 100h2M284 100h3" />
<path stroke="#5a7680" d="M281 98h1M284 98h1M266 99h2M270 99h1M280 99h1" />
<path stroke="#5b7580" d="M273 99h2M276 99h1" />
<path stroke="#5b757f" d="M275 99h1" />
<path stroke="#5b7781" d="M267 100h1M283 100h1M266 101h2M271 101h2M276 101h2" />
<path stroke="#5c7781" d="M269 100h1M268 101h2M273 101h3M278 101h1M280 101h1M282 101h2M285 101h3M270 102h1M272 102h2" />
<path stroke="#5c7780" d="M273 100h1M281 101h1M284 101h1" />
<path stroke="#5b7681" d="M275 100h1M280 100h1M270 101h1M279 101h1" />
<path stroke="#5b7780" d="M278 100h1" />
<path stroke="#5c7881" d="M266 102h1M274 102h1M287 102h1" />
<path stroke="#5d7782" d="M267 102h1" />
<path stroke="#5c7782" d="M268 102h1M271 102h1M277 102h3M282 102h3M271 103h1" />
<path stroke="#5c7882" d="M269 102h1M275 102h2M281 102h1M285 102h2M288 102h1M270 103h1M273 103h2M276 103h1M280 103h2M288 103h1M279 105h1M276 112h1M269 114h1M273 114h1M293 114h1M268 115h1M297 118h1M271 119h1M274 119h1M286 120h1M268 121h1M270 121h1M284 122h1M306 125h1M272 126h1M294 126h1" />
<path stroke="#5d7781" d="M280 102h1" />
<path stroke="#5d7882" d="M266 103h4M272 103h1M275 103h1M277 103h3M282 103h6M289 103h1M267 104h1M269 104h2M273 104h2M276 104h1M279 104h1M282 104h1M285 104h3M290 104h1M266 105h2M269 105h1M271 105h4M277 105h1M283 105h2M286 105h1M288 105h3M266 106h1M269 106h3M274 106h1M276 106h4M282 106h2M286 106h1M291 106h1M266 107h4M272 107h1M274 107h2M277 107h1M280 107h1M283 107h2M287 107h4M269 108h2M272 108h2M275 108h1M278 108h2M281 108h1M283 108h1M285 108h1M287 108h1M290 108h1M266 109h2M270 109h2M273 109h2M278 109h2M281 109h1M283 109h5M266 110h1M269 110h1M271 110h1M273 110h1M275 110h1M277 110h1M279 110h1M283 110h3M287 110h1M289 110h3M266 111h1M268 111h5M281 111h1M286 111h1M290 111h2M268 112h1M270 112h3M274 112h2M278 112h2M283 112h2M286 112h4M291 112h2M302 112h1M268 113h1M270 113h1M272 113h1M274 113h1M277 113h2M280 113h2M283 113h2M287 113h1M289 113h1M292 113h1M301 113h1M303 113h1M266 114h3M270 114h1M275 114h2M278 114h2M281 114h1M285 114h3M290 114h1M301 114h2M266 115h1M270 115h2M277 115h1M279 115h2M282 115h2M290 115h4M298 115h1M301 115h1M303 115h1M266 116h2M269 116h4M275 116h2M279 116h5M285 116h1M287 116h1M289 116h5M299 116h3M304 116h1M267 117h2M270 117h1M273 117h1M275 117h4M282 117h1M284 117h3M289 117h3M293 117h1M296 117h1M298 117h2M303 117h1M266 118h1M269 118h2M272 118h2M276 118h3M280 118h3M284 118h3M288 118h2M291 118h1M296 118h1M298 118h2M303 118h1M305 118h1M266 119h1M268 119h2M272 119h2M275 119h2M278 119h1M281 119h2M284 119h1M286 119h5M296 119h1M299 119h3M267 120h2M271 120h1M273 120h3M278 120h1M280 120h2M285 120h1M289 120h10M301 120h2M306 120h1M266 121h2M269 121h1M276 121h2M280 121h7M288 121h2M291 121h1M293 121h1M295 121h7M305 121h2M266 122h4M272 122h1M274 122h2M278 122h4M285 122h1M287 122h2M291 122h1M295 122h1M298 122h1M301 122h2M304 122h3M266 123h1M268 123h3M275 123h1M279 123h2M283 123h1M287 123h1M289 123h1M292 123h1M296 123h2M301 123h2M305 123h1M266 124h1M268 124h3M272 124h1M279 124h3M284 124h3M289 124h3M293 124h3M297 124h2M301 124h1M304 124h1M268 125h1M270 125h3M275 125h7M283 125h3M287 125h1M289 125h4M298 125h2M303 125h3M268 126h3M273 126h1M280 126h2M283 126h1M286 126h1M289 126h4M297 126h6M307 126h2M266 127h1M269 127h4M275 127h3M279 127h1M281 127h2M288 127h2M292 127h1M294 127h3M299 127h2M305 127h1M307 127h1" />
<path stroke="#5d7982" d="M266 104h1M271 104h2M277 104h2M289 104h1M268 105h1M270 105h1M276 105h1M278 105h1M280 105h1M282 105h1M287 105h1M272 106h1M275 106h1M287 106h1M270 107h1M273 107h1M278 107h1M281 107h2M285 107h1M291 107h1M268 108h1M282 108h1M267 110h2M278 110h1M267 111h1M277 111h1M279 111h1M285 111h1M288 111h1M273 112h1M277 112h1M281 112h1M271 113h1M276 113h1M279 113h1M282 113h1M302 113h1M271 114h2M274 114h1M284 114h1M291 114h2M273 115h2M284 115h5M274 116h1M286 116h1M298 116h1M266 117h1M271 117h1M301 117h1M279 118h1M283 118h1M292 118h1M300 118h1M302 118h1M304 118h1M279 119h1M285 119h1M294 119h1M270 120h1M276 120h1M279 120h1M282 120h1M303 120h1M271 121h1M278 121h1M287 121h1M292 121h1M303 121h1M271 122h1M277 122h1M282 122h1M294 122h1M296 122h2M299 122h1M303 122h1M273 123h1M282 123h1M285 123h1M291 123h1M293 123h1M295 123h1M298 123h1M300 123h1M306 123h1M267 124h1M276 124h1M282 124h2M296 124h1M303 124h1M273 125h2M293 125h1M307 125h1M271 126h1M276 126h2M279 126h1M285 126h1M287 126h1M293 126h1M295 126h1M305 126h1M268 127h1M284 127h1M304 127h1" />
<path stroke="#5d7883" d="M268 104h1M275 104h1M280 104h2M283 104h1M288 104h1M291 104h1M275 105h1M281 105h1M285 105h1M267 106h1M273 106h1M280 106h2M289 106h2M271 107h1M276 107h1M279 107h1M286 107h1M266 108h2M271 108h1M276 108h2M280 108h1M286 108h1M288 108h2M291 108h1M268 109h2M272 109h1M275 109h3M280 109h1M282 109h1M289 109h3M272 110h1M274 110h1M276 110h1M280 110h3M286 110h1M288 110h1M273 111h4M278 111h1M287 111h1M289 111h1M292 111h1M266 112h1M269 112h1M280 112h1M282 112h1M290 112h1M266 113h2M269 113h1M275 113h1M285 113h2M288 113h1M290 113h2M280 114h1M283 114h1M288 114h2M299 114h2M303 114h1M267 115h1M269 115h1M275 115h2M278 115h1M289 115h1M299 115h1M302 115h1M268 116h1M273 116h1M277 116h2M284 116h1M302 116h1M269 117h1M272 117h1M274 117h1M281 117h1M283 117h1M287 117h2M292 117h1M300 117h1M304 117h1M267 118h2M271 118h1M287 118h1M290 118h1M293 118h1M301 118h1M270 119h1M277 119h1M283 119h1M292 119h1M295 119h1M297 119h2M302 119h1M305 119h1M269 120h1M272 120h1M277 120h1M283 120h1M287 120h2M299 120h2M304 120h1M275 121h1M279 121h1M290 121h1M294 121h1M302 121h1M304 121h1M270 122h1M273 122h1M276 122h1M283 122h1M289 122h1M292 122h2M267 123h1M271 123h2M274 123h1M277 123h2M281 123h1M284 123h1M286 123h1M288 123h1M303 123h1M271 124h1M273 124h3M277 124h2M287 124h2M292 124h1M299 124h1M302 124h1M305 124h3M269 125h1M282 125h1M288 125h1M300 125h2M266 126h1M274 126h2M278 126h1M282 126h1M284 126h1M288 126h1M296 126h1M303 126h2M306 126h1M267 127h1M273 127h1M278 127h1M280 127h1M283 127h1M285 127h2M290 127h2M298 127h1M301 127h3M306 127h1M308 127h1" />
<path stroke="#5d7983" d="M284 104h1M268 106h1M284 106h2M288 106h1M274 108h1M284 108h1M288 109h1M270 110h1M280 111h1M282 111h2M285 112h1M273 113h1M282 114h1M281 115h1M300 115h1M297 116h1M279 117h2M297 117h1M302 117h1M274 118h2M267 119h1M291 119h1M293 119h1M303 119h2M266 120h1M284 120h1M273 121h1M286 122h1M290 122h1M300 122h1M276 123h1M290 123h1M294 123h1M299 123h1M304 123h1M300 124h1M266 125h1M286 125h1M294 125h4M302 125h1M267 126h1M274 127h1M287 127h1M293 127h1M297 127h1" />
<path stroke="#5c7883" d="M284 111h1M267 112h1M272 115h1M303 116h1M280 119h1" />
<path stroke="#5c7982" d="M277 114h1M272 121h1M274 121h1" />
<path stroke="#5c7983" d="M288 116h1M305 120h1M267 125h1" />
</svg>