<svg xmlns="http://www.w3.org/2000/svg" viewBox="0 -0.5 1127 128" shape-rendering="crispEdges">
<metadata>Made with Pixels to Svg https://codepen.io/shshaw/pen/XbxvNj</metadata>
<path stroke="#2b6339" d="M261 97h1M431 97h1M1088 97h1M259 98h2M432 98h1M438 98h1M1089 98h1M1095 98h1M258 99h2M433 99h1M438 99h1M1090 99h1M1095 99h1M257 100h2M433 100h1M437 100h1M473 100h2M1090 100h1M1094 100h1M253 101h1M257 101h1M434 101h2M437 101h1M472 101h2M1091 101h2M1094 101h1M253 102h2M256 102h1M333 102h1M435 102h2M471 102h2M990 102h1M1092 102h2M255 103h2M332 103h1M368 103h1M436 103h2M471 103h1M989 103h1M1025 103h1M1093 103h2M228 104h1M256 104h1M369 104h1M437 104h1M471 104h1M1026 104h1M1094 104h1M201 105h2M224 105h2M227 105h2M253 105h8M263 105h1M331 105h1M344 105h2M369 105h1M402 105h1M433 105h8M442 105h2M452 105h1M470 105h2M520 105h1M557 105h1M988 105h1M1001 105h2M1026 105h1M1059 105h1M1090 105h8M1099 105h2M1109 105h1M203 106h1M225 106h2M271 106h6M290 106h4M319 106h2M322 106h5M332 106h1M345 106h2M369 106h1M374 106h1M403 106h1M450 106h4M471 106h2M520 106h1M557 106h1M976 106h2M979 106h5M989 106h1M1002 106h2M1026 106h1M1031 106h1M1060 106h1M1107 106h4M180 107h3M204 107h1M226 107h2M230 107h2M264 107h3M276 107h2M294 107h3M318 107h2M321 107h2M332 107h2M347 107h2M351 107h1M369 107h6M402 107h1M450 107h3M469 107h4M474 107h4M517 107h4M542 107h1M552 107h9M975 107h2M978 107h2M989 107h2M1004 107h2M1008 107h1M1026 107h6M1059 107h1M1107 107h3M1126 107h1M183 108h2M201 108h2M205 108h2M228 108h3M243 108h6M261 108h3M297 108h1M310 108h3M318 108h1M331 108h3M344 108h3M366 108h2M369 108h1M401 108h1M406 108h2M486 108h1M489 108h2M542 108h2M967 108h3M975 108h1M988 108h3M1001 108h3M1023 108h2M1026 108h1M1058 108h1M1063 108h2M184 109h2M203 109h5M329 109h1M331 109h1M334 109h2M342 109h1M402 109h5M430 109h2M436 109h2M486 109h1M490 109h2M493 109h1M986 109h1M988 109h1M991 109h2M999 109h1M1059 109h5M1087 109h2M1093 109h2M187 110h1M342 110h4M432 110h8M999 110h4M1089 110h8" />
<path stroke="#347949" d="M622 97h1M622 98h3M621 99h1M624 99h1M624 100h1M81 101h1M553 101h2M593 101h2M624 101h2M751 101h1M23 102h2M48 102h1M61 102h1M82 102h2M554 102h2M594 102h1M625 102h1M631 102h2M693 102h2M718 102h1M731 102h1M752 102h2M847 102h1M852 102h1M22 103h1M24 103h1M48 103h2M58 103h3M84 103h1M555 103h1M595 103h1M625 103h1M630 103h2M692 103h1M694 103h1M718 103h2M728 103h3M754 103h1M848 103h2M851 103h1M21 104h1M50 104h2M57 104h1M85 104h2M89 104h6M469 104h1M556 104h1M568 104h1M594 104h4M625 104h6M691 104h1M720 104h2M727 104h1M755 104h2M759 104h6M849 104h3M1126 104h1M20 105h1M51 105h2M55 105h2M87 105h3M94 105h2M124 105h1M565 105h1M567 105h1M593 105h5M619 105h1M623 105h10M634 105h2M690 105h1M721 105h2M725 105h2M757 105h3M764 105h2M794 105h1M850 105h9M15 106h2M19 106h2M51 106h4M85 106h4M123 106h1M157 106h2M565 106h2M606 106h1M665 106h1M685 106h2M689 106h2M721 106h4M755 106h4M793 106h1M827 106h2M850 106h3M17 107h1M19 107h1M51 107h4M87 107h1M115 107h3M121 107h3M153 107h3M157 107h2M522 107h1M564 107h6M602 107h2M605 107h1M613 107h2M652 107h1M662 107h6M687 107h1M689 107h1M721 107h4M757 107h1M785 107h3M791 107h3M823 107h3M827 107h2M887 107h1M891 107h3M941 107h2M12 108h2M18 108h2M24 108h1M54 108h3M117 108h1M119 108h1M121 108h1M155 108h4M603 108h3M614 108h2M652 108h1M667 108h2M682 108h2M688 108h2M694 108h1M724 108h3M787 108h1M789 108h1M791 108h1M825 108h4M857 108h10M902 108h3M939 108h2M952 108h1M15 109h2M18 109h7M113 109h2M119 109h3M156 109h4M599 109h7M650 109h4M655 109h1M685 109h2M688 109h7M783 109h2M789 109h3M826 109h4M861 109h3M898 109h4M904 109h2M925 109h2M930 109h1M937 109h2M152 110h1M653 110h3M822 110h1M853 110h8M898 110h1M906 110h1M910 110h1M932 110h2M936 110h1" />
<path stroke="rgba(146,182,194,0.08235294117647059)" d="M0 98h5M6 98h2M9 98h3M17 98h1M19 98h2M24 98h3M28 98h4M35 98h5M42 98h1M46 98h1M49 98h2M54 98h2M59 98h2M63 98h1M65 98h1M69 98h1M72 98h1M74 98h2M82 98h6M89 98h9M102 98h1M104 98h2M112 98h4M123 98h1M125 98h1M128 98h1M130 98h1M132 98h2M135 98h2M140 98h1M144 98h3M149 98h1M155 98h1M158 98h1M160 98h1M166 98h1M168 98h1M173 98h1M175 98h1M182 98h1M187 98h2M194 98h1M196 98h1M198 98h1M201 98h1M203 98h2M206 98h2M211 98h3M216 98h1M220 98h1M223 98h1M225 98h1M227 98h1M229 98h4M235 98h4M240 98h2M243 98h1M245 98h1M247 98h1M249 98h2M252 98h4M261 98h1M263 98h1M267 98h1M275 98h3M280 98h2M287 98h2M294 98h1M297 98h1M302 98h5M308 98h1M313 98h1M316 98h3M321 98h3M325 98h1M330 98h1M335 98h2M339 98h1M343 98h1M348 98h2M351 98h3M355 98h1M357 98h1M359 98h1M361 98h2M365 98h1M369 98h1M376 98h1M378 98h6M386 98h5M395 98h1M397 98h2M400 98h2M403 98h1M406 98h1M408 98h2M412 98h1M415 98h1M421 98h1M423 98h1M426 98h1M431 98h1M433 98h1M436 98h1M439 98h1M442 98h7M452 98h2M458 98h1M460 98h1M462 98h1M465 98h1M468 98h5M481 98h1M485 98h1M487 98h2M490 98h1M492 98h2M497 98h1M499 98h1M503 98h1M507 98h2M510 98h1M513 98h1M515 98h1M517 98h2M522 98h1M526 98h1M528 98h2M531 98h2M537 98h1M540 98h1M543 98h1M547 98h2M551 98h3M555 98h1M558 98h1M563 98h1M565 98h4M570 98h3M574 98h1M578 98h2M581 98h3M586 98h3M592 98h1M596 98h1M600 98h5M606 98h2M609 98h1M615 98h2M618 98h2M628 98h1M631 98h4M636 98h3M641 98h1M643 98h1M645 98h3M653 98h1M656 98h1M664 98h2M668 98h4M673 98h3M677 98h1M685 98h1M688 98h3M696 98h2M701 98h1M704 98h3M711 98h2M716 98h3M721 98h1M728 98h1M732 98h1M736 98h1M738 98h1M743 98h1M746 98h3M751 98h2M757 98h1M761 98h1M763 98h1M766 98h3M771 98h8M780 98h2M783 98h1M785 98h1M787 98h2M792 98h2M795 98h2M798 98h5M804 98h2M807 98h3M815 98h1M817 98h2M822 98h3M826 98h4M833 98h5M840 98h1M844 98h1M847 98h2M852 98h2M857 98h2M861 98h1M863 98h1M867 98h1M870 98h1M872 98h2M880 98h6M887 98h9M900 98h1M902 98h2M910 98h4M921 98h1M923 98h1M926 98h1M928 98h1M930 98h2M933 98h2M938 98h1M942 98h3M947 98h1M953 98h1M956 98h1M958 98h1M964 98h1M966 98h1M971 98h1M973 98h1M980 98h1M985 98h2M992 98h1M994 98h1M996 98h1M999 98h1M1001 98h2M1004 98h2M1009 98h3M1014 98h1M1018 98h1M1021 98h1M1023 98h1M1025 98h1M1027 98h4M1033 98h4M1038 98h2M1041 98h1M1043 98h1M1045 98h1M1047 98h2M1050 98h4M1058 98h2M1061 98h1M1065 98h1M1073 98h3M1078 98h2M1085 98h2M1092 98h1M1100 98h5M1106 98h1M1111 98h1M1114 98h3M1119 98h3M1123 98h1" />
<path stroke="rgba(151,185,197,0.08627450980392157)" d="M5 98h1M8 98h1M12 98h5M18 98h1M21 98h3M27 98h1M32 98h3M40 98h2M43 98h3M47 98h2M51 98h3M56 98h3M61 98h2M64 98h1M66 98h3M70 98h2M73 98h1M76 98h6M88 98h1M98 98h4M103 98h1M106 98h6M116 98h7M124 98h1M126 98h2M129 98h1M131 98h1M134 98h1M137 98h3M141 98h3M147 98h2M150 98h5M156 98h2M159 98h1M161 98h3M165 98h1M167 98h1M169 98h4M174 98h1M176 98h6M183 98h4M189 98h5M195 98h1M197 98h1M199 98h2M202 98h1M205 98h1M208 98h3M214 98h2M217 98h3M221 98h2M224 98h1M226 98h1M228 98h1M233 98h2M239 98h1M242 98h1M244 98h1M246 98h1M248 98h1M251 98h1M256 98h3M262 98h1M264 98h3M268 98h7M278 98h2M282 98h5M289 98h5M295 98h2M298 98h4M307 98h1M309 98h4M314 98h2M319 98h2M324 98h1M326 98h4M331 98h4M337 98h2M340 98h3M344 98h4M350 98h1M354 98h1M356 98h1M358 98h1M360 98h1M363 98h2M366 98h3M370 98h6M377 98h1M384 98h2M391 98h4M396 98h1M399 98h1M402 98h1M404 98h2M407 98h1M410 98h2M413 98h2M416 98h5M422 98h1M424 98h2M427 98h4M434 98h2M437 98h1M440 98h2M449 98h3M454 98h4M459 98h1M461 98h1M463 98h2M466 98h2M473 98h8M482 98h3M486 98h1M489 98h1M491 98h1M494 98h3M498 98h1M500 98h3M504 98h3M509 98h1M511 98h2M514 98h1M516 98h1M519 98h3M523 98h3M527 98h1M530 98h1M533 98h4M538 98h2M541 98h2M544 98h3M549 98h2M554 98h1M556 98h2M559 98h4M564 98h1M569 98h1M573 98h1M575 98h3M580 98h1M584 98h2M589 98h3M593 98h3M597 98h3M605 98h1M608 98h1M610 98h5M617 98h1M620 98h2M625 98h3M629 98h2M635 98h1M639 98h2M642 98h1M644 98h1M648 98h5M654 98h2M657 98h7M666 98h2M672 98h1M676 98h1M678 98h7M686 98h2M691 98h5M698 98h3M702 98h2M707 98h4M713 98h3M719 98h2M722 98h6M729 98h3M733 98h3M737 98h1M739 98h4M744 98h2M749 98h2M753 98h4M758 98h3M762 98h1M764 98h2M769 98h2M779 98h1M782 98h1M784 98h1M786 98h1M789 98h3M794 98h1M797 98h1M803 98h1M806 98h1M810 98h5M816 98h1M819 98h3M825 98h1M830 98h3M838 98h2M841 98h3M845 98h2M849 98h3M854 98h3M859 98h2M862 98h1M864 98h3M868 98h2M871 98h1M874 98h6M886 98h1M896 98h4M901 98h1M904 98h6M914 98h7M922 98h1M924 98h2M927 98h1M929 98h1M932 98h1M935 98h3M939 98h3M945 98h2M948 98h5M954 98h2M957 98h1M959 98h3M963 98h1M965 98h1M967 98h4M972 98h1M974 98h6M981 98h4M987 98h5M993 98h1M995 98h1M997 98h2M1000 98h1M1003 98h1M1006 98h3M1012 98h2M1015 98h3M1019 98h2M1022 98h1M1024 98h1M1026 98h1M1031 98h2M1037 98h1M1040 98h1M1042 98h1M1044 98h1M1046 98h1M1049 98h1M1054 98h4M1060 98h1M1062 98h3M1066 98h7M1076 98h2M1080 98h5M1087 98h2M1090 98h2M1093 98h2M1096 98h4M1105 98h1M1107 98h4M1112 98h2M1117 98h2M1122 98h1M1124 98h3" />
<path stroke="rgba(144,188,200,0.09019607843137255)" d="M164 98h1M962 98h1" />
<path stroke="rgba(148,190,195,0.21568627450980393)" d="M0 99h2M3 99h1M6 99h1M8 99h1M10 99h4M15 99h4M20 99h1M22 99h3M26 99h3M31 99h3M35 99h5M41 99h3M46 99h2M49 99h6M56 99h1M58 99h1M60 99h2M63 99h5M69 99h1M71 99h1M76 99h3M80 99h3M84 99h1M86 99h1M88 99h1M90 99h2M93 99h2M96 99h2M102 99h1M106 99h4M112 99h2M116 99h1M118 99h1M120 99h2M124 99h5M130 99h5M136 99h2M139 99h1M142 99h2M145 99h9M156 99h3M161 99h1M166 99h1M168 99h1M170 99h2M174 99h3M179 99h3M184 99h5M190 99h2M194 99h4M199 99h2M202 99h1M204 99h2M209 99h2M212 99h1M214 99h3M219 99h1M221 99h2M224 99h1M226 99h1M228 99h3M234 99h3M239 99h1M241 99h1M243 99h1M245 99h1M249 99h4M254 99h1M256 99h2M260 99h1M264 99h1M266 99h1M268 99h5M274 99h6M284 99h3M288 99h3M292 99h1M294 99h1M298 99h3M305 99h2M309 99h1M311 99h3M315 99h1M317 99h4M322 99h4M329 99h1M331 99h1M335 99h1M338 99h4M344 99h1M348 99h3M355 99h3M359 99h2M362 99h3M366 99h1M369 99h1M371 99h5M377 99h6M384 99h3M389 99h3M393 99h3M397 99h4M402 99h1M404 99h6M412 99h1M414 99h2M417 99h2M420 99h2M425 99h2M428 99h3M432 99h1M434 99h1M437 99h1M439 99h1M441 99h2M444 99h3M448 99h3M452 99h4M459 99h3M463 99h5M469 99h1M471 99h4M476 99h1M478 99h3M483 99h4M488 99h5M494 99h3M498 99h3M504 99h3M508 99h1M510 99h2M514 99h1M519 99h1M521 99h1M524 99h1M526 99h1M529 99h3M533 99h4M539 99h2M542 99h1M544 99h3M548 99h1M550 99h5M560 99h2M565 99h6M574 99h1M578 99h4M587 99h1M590 99h1M592 99h1M594 99h1M596 99h1M598 99h4M603 99h5M609 99h2M612 99h1M614 99h3M618 99h2M622 99h1M625 99h7M633 99h2M637 99h1M639 99h3M644 99h3M648 99h4M654 99h1M656 99h1M660 99h1M664 99h2M667 99h1M669 99h4M674 99h2M679 99h2M684 99h3M689 99h2M695 99h2M699 99h3M703 99h2M708 99h1M711 99h5M717 99h2M720 99h2M723 99h1M725 99h2M728 99h3M732 99h1M734 99h2M739 99h1M744 99h1M746 99h1M748 99h1M750 99h2M753 99h8M764 99h1M769 99h1M771 99h1M773 99h5M779 99h8M789 99h1M791 99h2M795 99h2M798 99h2M801 99h1M804 99h1M806 99h1M808 99h4M813 99h4M818 99h1M820 99h3M824 99h3M829 99h3M833 99h5M839 99h3M844 99h2M847 99h6M854 99h1M856 99h1M858 99h2M861 99h5M867 99h1M869 99h1M874 99h3M878 99h3M882 99h1M884 99h1M886 99h1M888 99h2M891 99h2M894 99h2M900 99h1M904 99h4M910 99h2M914 99h1M916 99h1M918 99h2M922 99h5M928 99h5M934 99h2M937 99h1M940 99h2M943 99h9M954 99h3M959 99h1M964 99h1M966 99h1M968 99h2M972 99h3M977 99h3M982 99h5M988 99h2M992 99h4M997 99h2M1000 99h1M1002 99h2M1007 99h2M1010 99h1M1012 99h3M1017 99h1M1019 99h2M1022 99h1M1024 99h1M1026 99h3M1032 99h3M1037 99h1M1039 99h1M1041 99h1M1043 99h1M1047 99h4M1052 99h1M1054 99h2M1057 99h2M1062 99h1M1064 99h1M1066 99h5M1072 99h6M1082 99h3M1086 99h3M1092 99h1M1096 99h3M1103 99h2M1107 99h1M1109 99h3M1113 99h1M1115 99h4M1120 99h4" />
<path stroke="rgba(146,187,196,0.2196078431372549)" d="M2 99h1M4 99h2M7 99h1M9 99h1M14 99h1M19 99h1M21 99h1M25 99h1M29 99h2M34 99h1M40 99h1M44 99h2M48 99h1M55 99h1M57 99h1M59 99h1M62 99h1M70 99h1M72 99h4M79 99h1M83 99h1M85 99h1M87 99h1M89 99h1M92 99h1M95 99h1M98 99h4M103 99h3M110 99h2M114 99h2M117 99h1M119 99h1M122 99h2M129 99h1M135 99h1M138 99h1M140 99h1M144 99h1M154 99h2M159 99h2M162 99h1M164 99h2M167 99h1M172 99h2M177 99h2M182 99h2M189 99h1M192 99h2M198 99h1M206 99h1M208 99h1M211 99h1M213 99h1M217 99h2M220 99h1M223 99h1M225 99h1M227 99h1M231 99h3M237 99h2M240 99h1M242 99h1M244 99h1M246 99h3M253 99h1M255 99h1M261 99h1M263 99h1M265 99h1M267 99h1M273 99h1M280 99h4M287 99h1M291 99h1M293 99h1M295 99h1M297 99h1M301 99h4M307 99h2M310 99h1M314 99h1M316 99h1M321 99h1M326 99h3M330 99h1M332 99h2M336 99h2M342 99h2M345 99h3M351 99h4M358 99h1M361 99h1M365 99h1M367 99h2M370 99h1M376 99h1M383 99h1M387 99h2M392 99h1M396 99h1M401 99h1M403 99h1M410 99h2M416 99h1M419 99h1M422 99h3M427 99h1M431 99h1M435 99h2M440 99h1M443 99h1M447 99h1M451 99h1M456 99h3M462 99h1M468 99h1M475 99h1M477 99h1M481 99h2M487 99h1M493 99h1M497 99h1M502 99h2M507 99h1M512 99h2M515 99h4M520 99h1M522 99h2M525 99h1M527 99h2M532 99h1M537 99h2M541 99h1M543 99h1M547 99h1M549 99h1M555 99h5M562 99h3M571 99h3M575 99h3M582 99h2M585 99h2M588 99h1M591 99h1M593 99h1M595 99h1M597 99h1M602 99h1M608 99h1M613 99h1M617 99h1M620 99h1M623 99h1M635 99h2M638 99h1M642 99h2M647 99h1M652 99h2M655 99h1M657 99h3M661 99h3M666 99h1M668 99h1M673 99h1M676 99h3M681 99h3M687 99h2M691 99h4M697 99h2M702 99h1M705 99h3M709 99h2M716 99h1M722 99h1M724 99h1M727 99h1M731 99h1M733 99h1M736 99h3M740 99h4M745 99h1M747 99h1M752 99h1M761 99h3M765 99h4M772 99h1M778 99h1M787 99h2M790 99h1M793 99h2M797 99h1M800 99h1M802 99h2M805 99h1M807 99h1M812 99h1M817 99h1M819 99h1M823 99h1M827 99h2M832 99h1M838 99h1M842 99h2M846 99h1M853 99h1M855 99h1M857 99h1M860 99h1M868 99h1M870 99h4M877 99h1M881 99h1M883 99h1M885 99h1M887 99h1M890 99h1M893 99h1M896 99h4M901 99h3M908 99h2M912 99h2M915 99h1M917 99h1M920 99h2M927 99h1M933 99h1M936 99h1M938 99h1M942 99h1M952 99h2M957 99h2M960 99h1M962 99h2M965 99h1M970 99h2M975 99h2M980 99h2M987 99h1M990 99h2M996 99h1M1004 99h1M1006 99h1M1009 99h1M1011 99h1M1015 99h2M1018 99h1M1021 99h1M1023 99h1M1025 99h1M1029 99h3M1035 99h2M1038 99h1M1040 99h1M1042 99h1M1044 99h3M1051 99h1M1053 99h1M1056 99h1M1059 99h1M1061 99h1M1063 99h1M1065 99h1M1071 99h1M1078 99h4M1085 99h1M1089 99h1M1091 99h1M1093 99h1M1099 99h4M1105 99h2M1108 99h1M1112 99h1M1114 99h1M1119 99h1M1124 99h3" />
<path stroke="rgba(146,189,194,0.21176470588235294)" d="M68 99h1M141 99h1M169 99h1M201 99h1M203 99h1M296 99h1M334 99h1M413 99h1M470 99h1M501 99h1M509 99h1M584 99h1M589 99h1M611 99h1M719 99h1M749 99h1M770 99h1M866 99h1M939 99h1M967 99h1M999 99h1M1001 99h1M1094 99h1" />
<path stroke="rgba(148,188,197,0.2235294117647059)" d="M163 99h1M207 99h1M262 99h1M632 99h1M961 99h1M1005 99h1M1060 99h1" />
<path stroke="rgba(146,188,196,0.3568627450980392)" d="M0 100h4M5 100h1M8 100h1M11 100h2M14 100h2M17 100h3M22 100h6M30 100h3M34 100h2M37 100h1M39 100h2M42 100h4M47 100h6M57 100h1M59 100h2M62 100h1M64 100h1M66 100h3M70 100h3M74 100h2M77 100h14M92 100h1M95 100h1M97 100h2M101 100h2M108 100h1M110 100h4M116 100h3M120 100h2M123 100h1M125 100h2M129 100h1M132 100h4M137 100h1M139 100h2M142 100h1M144 100h4M150 100h3M154 100h2M159 100h8M168 100h1M173 100h1M175 100h2M178 100h2M182 100h2M185 100h4M190 100h5M196 100h3M200 100h4M205 100h1M208 100h4M214 100h2M217 100h2M220 100h1M222 100h7M230 100h7M239 100h3M243 100h3M247 100h1M249 100h5M255 100h1M259 100h3M263 100h7M271 100h2M275 100h1M277 100h2M280 100h1M282 100h2M285 100h1M287 100h5M293 100h3M297 100h2M300 100h5M308 100h1M310 100h2M314 100h2M317 100h1M319 100h1M321 100h1M323 100h3M327 100h5M334 100h6M341 100h1M343 100h1M345 100h1M347 100h1M349 100h4M355 100h4M362 100h1M364 100h1M367 100h3M372 100h1M375 100h3M379 100h3M384 100h7M393 100h2M397 100h4M402 100h1M404 100h6M411 100h1M413 100h1M415 100h1M418 100h4M423 100h1M425 100h2M428 100h2M431 100h1M434 100h1M436 100h1M440 100h1M443 100h3M450 100h5M457 100h4M462 100h6M470 100h1M475 100h2M479 100h1M481 100h1M483 100h3M488 100h2M491 100h1M493 100h1M495 100h6M502 100h6M510 100h1M512 100h4M518 100h1M520 100h2M523 100h1M525 100h2M529 100h1M531 100h5M539 100h5M545 100h2M548 100h1M550 100h2M553 100h3M557 100h1M559 100h5M565 100h2M568 100h4M573 100h1M575 100h2M578 100h2M581 100h2M588 100h1M591 100h1M593 100h3M600 100h4M606 100h1M608 100h4M613 100h1M619 100h2M622 100h2M625 100h4M632 100h14M647 100h12M660 100h1M663 100h2M666 100h4M672 100h1M674 100h2M677 100h1M679 100h6M686 100h1M688 100h3M692 100h7M700 100h1M702 100h2M705 100h6M712 100h2M719 100h3M723 100h1M728 100h3M733 100h9M743 100h3M748 100h3M752 100h2M755 100h1M758 100h1M760 100h1M762 100h2M765 100h7M773 100h3M778 100h1M780 100h5M786 100h1M789 100h2M793 100h9M803 100h1M806 100h1M809 100h2M812 100h2M815 100h3M820 100h6M828 100h3M832 100h2M835 100h1M837 100h2M840 100h4M845 100h6M855 100h1M857 100h2M860 100h1M862 100h1M864 100h3M868 100h3M872 100h2M875 100h14M890 100h1M893 100h1M895 100h2M899 100h2M906 100h1M908 100h4M914 100h3M918 100h2M921 100h1M923 100h2M927 100h1M930 100h4M935 100h1M937 100h2M940 100h1M942 100h4M948 100h3M952 100h2M957 100h8M966 100h1M971 100h1M973 100h2M976 100h2M980 100h2M983 100h4M988 100h5M994 100h3M998 100h4M1003 100h1M1006 100h4M1012 100h2M1015 100h2M1018 100h1M1020 100h7M1028 100h7M1037 100h3M1041 100h3M1045 100h1M1047 100h5M1053 100h1M1055 100h5M1061 100h7M1069 100h2M1073 100h1M1075 100h2M1078 100h1M1080 100h2M1083 100h1M1085 100h5M1091 100h3M1095 100h2M1098 100h5M1106 100h1M1108 100h2M1112 100h2M1115 100h1M1117 100h1M1119 100h1M1121 100h3M1125 100h2" />
<path stroke="rgba(147,187,196,0.35294117647058826)" d="M4 100h1M6 100h1M9 100h1M13 100h1M16 100h1M21 100h1M28 100h2M33 100h1M36 100h1M38 100h1M41 100h1M46 100h1M53 100h2M56 100h1M58 100h1M61 100h1M63 100h1M69 100h1M76 100h1M91 100h1M93 100h2M96 100h1M99 100h1M103 100h2M106 100h1M109 100h1M114 100h2M119 100h1M124 100h1M128 100h1M131 100h1M136 100h1M138 100h1M141 100h1M143 100h1M148 100h2M156 100h1M158 100h1M167 100h1M169 100h1M171 100h2M174 100h1M177 100h1M181 100h1M184 100h1M189 100h1M199 100h1M204 100h1M206 100h1M212 100h1M216 100h1M219 100h1M221 100h1M229 100h1M237 100h1M242 100h1M246 100h1M248 100h1M254 100h1M256 100h1M262 100h1M274 100h1M276 100h1M279 100h1M281 100h1M286 100h1M292 100h1M296 100h1M299 100h1M307 100h1M309 100h1M312 100h1M316 100h1M322 100h1M326 100h1M332 100h1M342 100h1M344 100h1M354 100h1M359 100h1M366 100h1M371 100h1M373 100h2M391 100h2M396 100h1M401 100h1M403 100h1M412 100h1M414 100h1M416 100h2M422 100h1M424 100h1M427 100h1M432 100h1M439 100h1M441 100h2M446 100h4M456 100h1M461 100h1M469 100h1M471 100h2M477 100h2M482 100h1M486 100h2M492 100h1M494 100h1M501 100h1M509 100h1M511 100h1M516 100h2M519 100h1M522 100h1M524 100h1M527 100h1M536 100h2M544 100h1M547 100h1M549 100h1M552 100h1M556 100h1M564 100h1M567 100h1M572 100h1M574 100h1M577 100h1M584 100h1M586 100h2M589 100h1M592 100h1M596 100h2M599 100h1M604 100h1M607 100h1M612 100h1M614 100h1M616 100h2M621 100h1M629 100h1M631 100h1M646 100h1M659 100h1M662 100h1M671 100h1M676 100h1M678 100h1M687 100h1M691 100h1M699 100h1M701 100h1M704 100h1M711 100h1M714 100h1M716 100h2M722 100h1M727 100h1M731 100h2M742 100h1M746 100h2M751 100h1M754 100h1M756 100h2M759 100h1M761 100h1M764 100h1M772 100h1M776 100h2M779 100h1M787 100h1M792 100h1M802 100h1M804 100h1M807 100h1M811 100h1M814 100h1M819 100h1M826 100h2M831 100h1M834 100h1M836 100h1M839 100h1M844 100h1M851 100h2M856 100h1M859 100h1M861 100h1M867 100h1M874 100h1M889 100h1M891 100h2M894 100h1M897 100h1M901 100h2M904 100h1M907 100h1M912 100h2M917 100h1M922 100h1M926 100h1M929 100h1M934 100h1M936 100h1M939 100h1M941 100h1M946 100h2M954 100h1M956 100h1M965 100h1M967 100h1M969 100h2M972 100h1M975 100h1M979 100h1M982 100h1M987 100h1M997 100h1M1002 100h1M1004 100h1M1010 100h1M1014 100h1M1017 100h1M1019 100h1M1027 100h1M1035 100h1M1040 100h1M1044 100h1M1046 100h1M1052 100h1M1054 100h1M1060 100h1M1072 100h1M1074 100h1M1077 100h1M1079 100h1M1084 100h1M1097 100h1M1105 100h1M1107 100h1M1110 100h1M1114 100h1M1120 100h1M1124 100h1" />
<path stroke="rgba(147,188,194,0.3607843137254902)" d="M7 100h1M10 100h1M20 100h1M55 100h1M65 100h1M73 100h1M100 100h1M105 100h1M107 100h1M122 100h1M127 100h1M130 100h1M153 100h1M157 100h1M170 100h1M180 100h1M195 100h1M207 100h1M213 100h1M238 100h1M270 100h1M273 100h1M284 100h1M305 100h2M313 100h1M318 100h1M320 100h1M333 100h1M340 100h1M346 100h1M348 100h1M353 100h1M360 100h2M363 100h1M365 100h1M370 100h1M378 100h1M382 100h2M395 100h1M410 100h1M430 100h1M435 100h1M438 100h1M455 100h1M468 100h1M480 100h1M490 100h1M508 100h1M528 100h1M530 100h1M538 100h1M558 100h1M580 100h1M583 100h1M585 100h1M590 100h1M598 100h1M605 100h1M615 100h1M618 100h1M630 100h1M661 100h1M665 100h1M670 100h1M673 100h1M685 100h1M715 100h1M718 100h1M724 100h3M785 100h1M788 100h1M791 100h1M805 100h1M808 100h1M818 100h1M863 100h1M871 100h1M898 100h1M903 100h1M905 100h1M920 100h1M925 100h1M928 100h1M951 100h1M955 100h1M968 100h1M978 100h1M993 100h1M1005 100h1M1011 100h1M1036 100h1M1068 100h1M1071 100h1M1082 100h1M1103 100h2M1111 100h1M1116 100h1M1118 100h1" />
<path stroke="#335955" d="M853 100h2M334 101h1M852 101h2M991 101h1M62 102h2M334 102h1M732 102h2M991 102h1M329 103h1M333 103h2M986 103h1M990 103h2M330 104h2M987 104h2M84 105h1M125 105h1M261 105h2M432 105h1M441 105h1M592 105h1M598 105h2M618 105h1M620 105h3M633 105h1M754 105h1M795 105h1M845 105h5M1089 105h1M1098 105h1M80 106h5M124 106h2M375 106h1M402 106h1M562 106h1M564 106h1M615 106h1M750 106h5M794 106h2M887 106h2M1032 106h1M1059 106h1M260 107h1M278 107h1M349 107h2M363 107h6M376 107h1M448 107h2M467 107h2M473 107h1M478 107h2M490 107h1M516 107h1M521 107h1M523 107h1M548 107h4M561 107h3M570 107h3M615 107h1M888 107h3M1006 107h2M1020 107h6M1033 107h1M1105 107h2M1124 107h2M11 108h1M14 108h1M57 108h4M159 108h2M189 108h1M256 108h5M278 108h2M298 108h1M307 108h3M317 108h1M347 108h3M368 108h1M408 108h2M452 108h4M616 108h2M665 108h2M669 108h1M681 108h1M684 108h1M727 108h4M829 108h2M867 108h2M953 108h2M964 108h3M974 108h1M1004 108h3M1025 108h1M1065 108h2M1109 108h4M14 109h1M17 109h1M25 109h1M115 109h4M160 109h1M186 109h4M208 109h3M225 109h3M248 109h3M298 109h3M310 109h2M316 109h2M330 109h1M409 109h2M487 109h3M492 109h1M494 109h1M541 109h3M591 109h2M598 109h1M606 109h4M648 109h2M654 109h1M656 109h1M684 109h1M687 109h1M695 109h1M785 109h4M830 109h1M866 109h4M927 109h3M954 109h4M967 109h2M973 109h2M987 109h1M1066 109h2M153 110h4M186 110h1M250 110h1M300 110h1M430 110h2M440 110h3M459 110h1M588 110h7M647 110h1M823 110h4M870 110h1M907 110h3M929 110h3M934 110h2M1087 110h2M1097 110h3M1116 110h1" />
<path stroke="rgba(148,188,195,0.4470588235294118)" d="M0 101h1M2 101h3M7 101h2M10 101h1M12 101h2M17 101h1M19 101h2M22 101h1M24 101h2M27 101h3M32 101h1M37 101h1M40 101h1M42 101h1M47 101h1M49 101h1M52 101h3M57 101h2M62 101h1M65 101h1M67 101h1M69 101h1M72 101h1M77 101h2M82 101h1M85 101h1M87 101h1M89 101h2M92 101h1M94 101h1M99 101h2M102 101h2M105 101h1M107 101h2M111 101h3M115 101h6M122 101h4M127 101h2M130 101h1M132 101h1M134 101h2M137 101h1M139 101h1M142 101h1M147 101h1M152 101h1M157 101h2M160 101h1M162 101h2M165 101h7M173 101h1M175 101h1M180 101h1M185 101h3M190 101h4M195 101h2M200 101h1M203 101h1M205 101h3M210 101h1M212 101h1M215 101h2M218 101h1M220 101h3M225 101h4M230 101h1M233 101h1M235 101h2M238 101h1M240 101h1M242 101h5M248 101h1M251 101h1M255 101h2M258 101h1M260 101h2M265 101h1M267 101h2M270 101h4M275 101h3M280 101h1M282 101h2M285 101h2M288 101h1M292 101h2M295 101h3M300 101h2M303 101h1M305 101h2M310 101h6M317 101h2M320 101h1M325 101h2M328 101h1M330 101h1M332 101h2M335 101h1M337 101h2M344 101h2M347 101h2M350 101h1M352 101h2M355 101h2M358 101h1M360 101h2M363 101h1M365 101h3M370 101h2M375 101h1M377 101h1M380 101h1M385 101h1M387 101h2M390 101h2M393 101h3M397 101h1M403 101h1M405 101h1M407 101h1M410 101h2M413 101h1M415 101h1M417 101h7M425 101h1M430 101h4M436 101h1M438 101h1M440 101h1M442 101h2M445 101h3M450 101h1M455 101h4M460 101h1M462 101h2M465 101h4M470 101h1M477 101h1M480 101h3M485 101h2M490 101h1M493 101h1M495 101h1M500 101h1M502 101h2M505 101h2M512 101h2M517 101h1M520 101h3M525 101h4M530 101h4M536 101h2M540 101h1M543 101h1M545 101h2M550 101h3M555 101h2M560 101h2M565 101h2M568 101h1M570 101h4M575 101h3M580 101h1M582 101h1M585 101h1M590 101h2M595 101h1M598 101h1M600 101h4M605 101h2M608 101h1M610 101h1M612 101h2M617 101h2M622 101h2M627 101h2M630 101h3M635 101h1M637 101h1M640 101h2M643 101h1M645 101h4M650 101h1M652 101h2M655 101h3M660 101h3M665 101h4M670 101h3M675 101h1M681 101h1M683 101h1M685 101h4M690 101h1M695 101h1M697 101h2M700 101h2M703 101h1M705 101h1M707 101h1M710 101h1M712 101h2M715 101h2M718 101h1M720 101h2M725 101h1M727 101h1M730 101h1M732 101h2M735 101h3M740 101h2M743 101h3M750 101h1M755 101h1M757 101h2M760 101h4M765 101h2M768 101h5M775 101h2M778 101h1M780 101h1M783 101h1M785 101h2M790 101h1M792 101h1M795 101h2M798 101h1M800 101h3M805 101h2M808 101h1M810 101h2M815 101h1M817 101h2M820 101h1M822 101h2M825 101h3M830 101h1M835 101h1M838 101h1M840 101h1M845 101h1M847 101h1M850 101h2M855 101h2M860 101h1M863 101h1M865 101h1M867 101h1M870 101h1M875 101h2M880 101h1M883 101h1M885 101h1M887 101h2M890 101h1M892 101h1M897 101h2M900 101h2M903 101h1M905 101h2M909 101h3M913 101h6M920 101h4M925 101h2M928 101h1M930 101h1M932 101h2M935 101h1M937 101h1M940 101h1M945 101h1M950 101h1M955 101h2M958 101h1M960 101h2M963 101h7M971 101h1M973 101h1M978 101h1M983 101h3M988 101h3M993 101h2M998 101h1M1001 101h1M1003 101h3M1008 101h1M1010 101h1M1013 101h2M1016 101h1M1018 101h3M1023 101h4M1028 101h1M1031 101h1M1033 101h2M1036 101h1M1038 101h1M1040 101h5M1046 101h1M1049 101h1M1051 101h1M1053 101h4M1058 101h2M1063 101h1M1065 101h2M1068 101h4M1073 101h3M1078 101h1M1080 101h2M1083 101h2M1086 101h1M1090 101h1M1093 101h1M1095 101h1M1098 101h2M1101 101h1M1103 101h2M1108 101h6M1115 101h2M1118 101h1M1123 101h2M1126 101h1" />
<path stroke="rgba(147,187,194,0.44313725490196076)" d="M1 101h1M5 101h2M9 101h1M11 101h1M14 101h3M18 101h1M21 101h1M23 101h1M26 101h1M30 101h2M33 101h4M38 101h2M41 101h1M43 101h4M48 101h1M50 101h2M55 101h2M59 101h3M63 101h2M66 101h1M68 101h1M70 101h2M73 101h4M79 101h2M83 101h2M86 101h1M88 101h1M91 101h1M93 101h1M95 101h2M98 101h1M101 101h1M104 101h1M106 101h1M109 101h2M114 101h1M121 101h1M126 101h1M129 101h1M131 101h1M133 101h1M136 101h1M138 101h1M140 101h2M143 101h4M148 101h4M153 101h4M159 101h1M161 101h1M164 101h1M172 101h1M174 101h1M176 101h4M181 101h4M188 101h2M194 101h1M197 101h3M201 101h2M204 101h1M208 101h2M211 101h1M213 101h2M217 101h1M219 101h1M223 101h2M229 101h1M231 101h2M234 101h1M237 101h1M239 101h1M241 101h1M247 101h1M249 101h1M252 101h1M254 101h1M259 101h1M262 101h3M266 101h1M269 101h1M274 101h1M278 101h2M281 101h1M284 101h1M287 101h1M289 101h1M291 101h1M294 101h1M298 101h2M302 101h1M304 101h1M307 101h3M316 101h1M319 101h1M321 101h4M327 101h1M329 101h1M331 101h1M336 101h1M339 101h1M341 101h3M346 101h1M349 101h1M351 101h1M354 101h1M357 101h1M359 101h1M362 101h1M364 101h1M368 101h2M372 101h3M376 101h1M378 101h2M381 101h4M386 101h1M389 101h1M392 101h1M396 101h1M398 101h2M401 101h2M404 101h1M406 101h1M408 101h2M412 101h1M414 101h1M416 101h1M424 101h1M426 101h4M439 101h1M441 101h1M444 101h1M448 101h2M451 101h4M459 101h1M461 101h1M464 101h1M469 101h1M471 101h1M474 101h1M476 101h1M478 101h2M483 101h2M487 101h3M491 101h2M494 101h1M496 101h4M501 101h1M504 101h1M507 101h3M511 101h1M514 101h1M516 101h1M518 101h2M523 101h2M529 101h1M534 101h1M538 101h2M541 101h2M544 101h1M547 101h3M557 101h3M562 101h3M567 101h1M569 101h1M574 101h1M578 101h2M581 101h1M583 101h2M586 101h4M592 101h1M596 101h2M599 101h1M604 101h1M607 101h1M609 101h1M611 101h1M614 101h1M616 101h1M619 101h1M621 101h1M626 101h1M629 101h1M633 101h2M636 101h1M638 101h2M642 101h1M644 101h1M649 101h1M651 101h1M654 101h1M658 101h2M663 101h2M669 101h1M674 101h1M676 101h4M682 101h1M684 101h1M689 101h1M691 101h4M696 101h1M699 101h1M702 101h1M704 101h1M706 101h1M708 101h2M711 101h1M714 101h1M717 101h1M719 101h1M722 101h3M726 101h1M728 101h2M731 101h1M734 101h1M738 101h2M742 101h1M746 101h4M752 101h3M756 101h1M759 101h1M764 101h1M767 101h1M773 101h2M777 101h1M779 101h1M781 101h2M784 101h1M787 101h3M791 101h1M793 101h2M797 101h1M799 101h1M803 101h2M807 101h1M809 101h1M812 101h3M816 101h1M819 101h1M821 101h1M824 101h1M828 101h2M831 101h4M836 101h2M839 101h1M841 101h4M846 101h1M848 101h2M854 101h1M857 101h3M861 101h2M864 101h1M866 101h1M868 101h2M871 101h4M877 101h3M881 101h2M884 101h1M886 101h1M889 101h1M891 101h1M893 101h2M896 101h1M899 101h1M902 101h1M904 101h1M907 101h2M912 101h1M919 101h1M924 101h1M927 101h1M929 101h1M931 101h1M934 101h1M936 101h1M938 101h2M941 101h4M946 101h4M951 101h4M957 101h1M959 101h1M962 101h1M970 101h1M972 101h1M974 101h4M979 101h4M986 101h2M992 101h1M995 101h3M999 101h2M1002 101h1M1006 101h2M1009 101h1M1011 101h2M1015 101h1M1017 101h1M1021 101h2M1027 101h1M1029 101h2M1032 101h1M1035 101h1M1037 101h1M1039 101h1M1045 101h1M1047 101h1M1050 101h1M1052 101h1M1057 101h1M1060 101h3M1064 101h1M1067 101h1M1072 101h1M1076 101h2M1079 101h1M1082 101h1M1085 101h1M1087 101h1M1089 101h1M1096 101h2M1100 101h1M1102 101h1M1105 101h3M1114 101h1M1117 101h1M1119 101h4M1125 101h1" />
<path stroke="rgba(146,188,195,0.45098039215686275)" d="M97 101h1M250 101h1M290 101h1M340 101h1M400 101h1M475 101h1M510 101h1M515 101h1M535 101h1M615 101h1M620 101h1M673 101h1M680 101h1M895 101h1M1048 101h1M1088 101h1" />
<path stroke="rgba(147,189,195,0.4823529411764706)" d="M0 102h2M3 102h1M5 102h2M8 102h1M10 102h2M13 102h1M15 102h2M18 102h1M20 102h2M25 102h2M28 102h1M30 102h2M33 102h1M35 102h2M38 102h1M40 102h2M43 102h1M45 102h2M50 102h2M53 102h1M55 102h2M58 102h1M60 102h1M65 102h2M68 102h1M70 102h2M73 102h1M75 102h2M78 102h1M80 102h2M85 102h2M88 102h1M90 102h2M93 102h4M98 102h1M100 102h2M103 102h1M105 102h4M110 102h2M113 102h1M115 102h2M118 102h1M120 102h2M123 102h1M125 102h2M128 102h1M130 102h4M135 102h2M138 102h1M140 102h2M143 102h1M145 102h2M148 102h1M150 102h2M153 102h1M155 102h2M158 102h1M160 102h2M163 102h2M166 102h1M168 102h2M171 102h1M173 102h2M176 102h1M178 102h2M181 102h4M186 102h1M188 102h2M191 102h1M193 102h2M196 102h1M198 102h2M201 102h1M203 102h2M206 102h1M208 102h2M211 102h1M213 102h2M216 102h1M218 102h2M221 102h1M223 102h2M226 102h1M228 102h2M231 102h1M233 102h2M236 102h1M238 102h2M241 102h1M243 102h2M246 102h1M248 102h2M251 102h1M258 102h2M261 102h1M263 102h4M268 102h2M271 102h1M273 102h2M276 102h1M278 102h2M281 102h1M283 102h2M286 102h1M288 102h2M291 102h1M293 102h2M296 102h1M298 102h2M301 102h1M303 102h2M306 102h1M308 102h2M311 102h1M313 102h2M316 102h1M318 102h2M321 102h1M323 102h2M326 102h1M328 102h2M331 102h1M336 102h1M338 102h2M341 102h1M343 102h2M346 102h1M348 102h2M351 102h1M353 102h2M356 102h1M358 102h2M361 102h1M363 102h2M366 102h4M371 102h1M373 102h2M376 102h1M378 102h2M381 102h1M383 102h2M386 102h1M388 102h2M391 102h1M393 102h2M396 102h1M398 102h2M401 102h1M403 102h4M408 102h2M411 102h1M413 102h2M416 102h1M418 102h2M421 102h1M423 102h4M428 102h2M431 102h1M433 102h2M438 102h4M443 102h2M446 102h1M448 102h2M451 102h1M453 102h2M456 102h1M458 102h2M461 102h1M463 102h2M466 102h1M468 102h2M473 102h2M476 102h1M478 102h2M481 102h1M483 102h2M486 102h1M488 102h4M493 102h2M496 102h1M498 102h2M501 102h1M503 102h2M506 102h1M508 102h2M511 102h1M513 102h2M516 102h1M518 102h2M521 102h1M523 102h2M526 102h1M528 102h2M531 102h1M533 102h2M536 102h1M538 102h4M543 102h2M546 102h1M548 102h2M551 102h1M553 102h1M556 102h1M558 102h2M561 102h1M563 102h2M566 102h1M568 102h2M571 102h4M576 102h1M578 102h2M581 102h1M583 102h2M586 102h1M588 102h2M591 102h1M593 102h1M596 102h1M598 102h2M601 102h1M603 102h2M606 102h1M608 102h2M611 102h1M613 102h2M616 102h1M618 102h2M621 102h1M623 102h2M626 102h1M628 102h2M633 102h2M636 102h1M638 102h2M641 102h1M643 102h2M646 102h1M648 102h2M651 102h1M653 102h2M656 102h1M658 102h2M661 102h1M663 102h2M666 102h1M668 102h2M671 102h1M673 102h2M676 102h1M678 102h2M681 102h1M683 102h2M686 102h1M688 102h2M691 102h1M696 102h1M698 102h2M701 102h1M703 102h2M706 102h1M708 102h2M711 102h1M713 102h2M716 102h1M719 102h1M721 102h1M723 102h2M726 102h1M728 102h2M734 102h1M736 102h1M738 102h2M741 102h1M743 102h2M746 102h1M748 102h2M751 102h1M754 102h1M756 102h1M758 102h2M761 102h1M763 102h2M766 102h1M768 102h2M771 102h1M773 102h2M776 102h1M778 102h2M781 102h1M783 102h2M786 102h1M788 102h2M791 102h1M793 102h2M796 102h1M798 102h2M801 102h1M803 102h2M806 102h1M808 102h2M811 102h1M813 102h2M816 102h1M818 102h2M821 102h1M823 102h2M826 102h1M828 102h2M831 102h1M833 102h2M836 102h1M838 102h2M841 102h1M843 102h2M846 102h1M848 102h2M851 102h1M853 102h2M856 102h1M858 102h2M861 102h1M863 102h2M866 102h1M868 102h2M871 102h1M873 102h2M876 102h1M878 102h2M881 102h1M883 102h2M886 102h1M888 102h2M891 102h4M896 102h1M898 102h2M901 102h1M903 102h4M908 102h2M911 102h1M913 102h2M916 102h1M918 102h2M921 102h1M923 102h2M926 102h1M928 102h4M933 102h2M936 102h1M938 102h2M941 102h1M943 102h2M946 102h1M948 102h2M951 102h1M953 102h2M956 102h1M958 102h2M961 102h2M964 102h1M966 102h2M969 102h1M971 102h2M974 102h1M976 102h2M979 102h4M984 102h1M986 102h2M989 102h1M992 102h1M994 102h1M996 102h2M999 102h1M1001 102h2M1004 102h1M1006 102h2M1009 102h1M1011 102h2M1014 102h1M1016 102h2M1019 102h1M1021 102h2M1024 102h1M1026 102h2M1029 102h1M1031 102h2M1034 102h1M1036 102h2M1039 102h1M1041 102h2M1044 102h1M1046 102h2M1049 102h1M1051 102h2M1054 102h1M1056 102h2M1059 102h1M1061 102h4M1066 102h2M1069 102h1M1071 102h2M1074 102h1M1076 102h2M1079 102h1M1081 102h2M1084 102h1M1086 102h2M1089 102h1M1091 102h1M1094 102h1M1096 102h2M1099 102h1M1101 102h2M1104 102h1M1106 102h2M1109 102h1M1111 102h2M1114 102h1M1116 102h2M1119 102h1M1121 102h2M1124 102h1M1126 102h1" />
<path stroke="rgba(146,188,194,0.47843137254901963)" d="M2 102h1M4 102h1M7 102h1M9 102h1M12 102h1M14 102h1M17 102h1M19 102h1M22 102h1M27 102h1M29 102h1M32 102h1M34 102h1M37 102h1M39 102h1M42 102h1M44 102h1M47 102h1M49 102h1M52 102h1M54 102h1M57 102h1M59 102h1M64 102h1M67 102h1M69 102h1M72 102h1M74 102h1M77 102h1M79 102h1M84 102h1M87 102h1M89 102h1M92 102h1M97 102h1M99 102h1M102 102h1M104 102h1M109 102h1M112 102h1M114 102h1M117 102h1M119 102h1M122 102h1M124 102h1M127 102h1M129 102h1M134 102h1M137 102h1M139 102h1M142 102h1M144 102h1M147 102h1M149 102h1M152 102h1M154 102h1M157 102h1M159 102h1M162 102h1M165 102h1M167 102h1M170 102h1M172 102h1M175 102h1M177 102h1M180 102h1M185 102h1M187 102h1M190 102h1M192 102h1M195 102h1M197 102h1M200 102h1M202 102h1M205 102h1M207 102h1M210 102h1M212 102h1M215 102h1M217 102h1M220 102h1M222 102h1M225 102h1M227 102h1M230 102h1M232 102h1M235 102h1M237 102h1M240 102h1M242 102h1M245 102h1M247 102h1M250 102h1M252 102h1M255 102h1M257 102h1M260 102h1M262 102h1M267 102h1M270 102h1M272 102h1M275 102h1M277 102h1M280 102h1M282 102h1M285 102h1M287 102h1M290 102h1M292 102h1M295 102h1M297 102h1M300 102h1M302 102h1M305 102h1M307 102h1M310 102h1M312 102h1M315 102h1M317 102h1M320 102h1M322 102h1M325 102h1M327 102h1M330 102h1M332 102h1M335 102h1M337 102h1M340 102h1M342 102h1M345 102h1M347 102h1M350 102h1M352 102h1M355 102h1M357 102h1M360 102h1M362 102h1M365 102h1M370 102h1M372 102h1M375 102h1M377 102h1M380 102h1M382 102h1M385 102h1M387 102h1M390 102h1M392 102h1M395 102h1M397 102h1M400 102h1M402 102h1M407 102h1M410 102h1M412 102h1M415 102h1M417 102h1M420 102h1M422 102h1M427 102h1M430 102h1M432 102h1M437 102h1M442 102h1M445 102h1M447 102h1M450 102h1M452 102h1M455 102h1M457 102h1M460 102h1M462 102h1M465 102h1M467 102h1M470 102h1M475 102h1M477 102h1M480 102h1M482 102h1M485 102h1M487 102h1M492 102h1M495 102h1M497 102h1M500 102h1M502 102h1M505 102h1M507 102h1M510 102h1M512 102h1M515 102h1M517 102h1M520 102h1M522 102h1M525 102h1M527 102h1M530 102h1M532 102h1M535 102h1M537 102h1M542 102h1M545 102h1M547 102h1M550 102h1M552 102h1M557 102h1M560 102h1M562 102h1M565 102h1M567 102h1M570 102h1M575 102h1M577 102h1M580 102h1M582 102h1M585 102h1M587 102h1M590 102h1M592 102h1M595 102h1M597 102h1M600 102h1M602 102h1M605 102h1M607 102h1M610 102h1M612 102h1M615 102h1M617 102h1M620 102h1M622 102h1M627 102h1M630 102h1M635 102h1M637 102h1M640 102h1M642 102h1M645 102h1M647 102h1M650 102h1M652 102h1M655 102h1M657 102h1M660 102h1M662 102h1M665 102h1M667 102h1M670 102h1M672 102h1M675 102h1M677 102h1M680 102h1M682 102h1M685 102h1M687 102h1M690 102h1M692 102h1M695 102h1M697 102h1M700 102h1M702 102h1M705 102h1M707 102h1M710 102h1M712 102h1M715 102h1M717 102h1M720 102h1M722 102h1M725 102h1M727 102h1M730 102h1M735 102h1M737 102h1M740 102h1M742 102h1M745 102h1M747 102h1M750 102h1M755 102h1M757 102h1M760 102h1M762 102h1M765 102h1M767 102h1M770 102h1M772 102h1M775 102h1M777 102h1M780 102h1M782 102h1M785 102h1M787 102h1M790 102h1M792 102h1M795 102h1M797 102h1M800 102h1M802 102h1M805 102h1M807 102h1M810 102h1M812 102h1M815 102h1M817 102h1M820 102h1M822 102h1M825 102h1M827 102h1M830 102h1M832 102h1M835 102h1M837 102h1M840 102h1M842 102h1M845 102h1M850 102h1M855 102h1M857 102h1M860 102h1M862 102h1M865 102h1M867 102h1M870 102h1M872 102h1M875 102h1M877 102h1M880 102h1M882 102h1M885 102h1M887 102h1M890 102h1M895 102h1M897 102h1M900 102h1M902 102h1M907 102h1M910 102h1M912 102h1M915 102h1M917 102h1M920 102h1M922 102h1M925 102h1M927 102h1M932 102h1M935 102h1M937 102h1M940 102h1M942 102h1M945 102h1M947 102h1M950 102h1M952 102h1M955 102h1M957 102h1M960 102h1M963 102h1M965 102h1M968 102h1M970 102h1M973 102h1M975 102h1M978 102h1M983 102h1M985 102h1M988 102h1M993 102h1M995 102h1M998 102h1M1000 102h1M1003 102h1M1005 102h1M1008 102h1M1010 102h1M1013 102h1M1015 102h1M1018 102h1M1020 102h1M1023 102h1M1025 102h1M1028 102h1M1030 102h1M1033 102h1M1035 102h1M1038 102h1M1040 102h1M1043 102h1M1045 102h1M1048 102h1M1050 102h1M1053 102h1M1055 102h1M1058 102h1M1060 102h1M1065 102h1M1068 102h1M1070 102h1M1073 102h1M1075 102h1M1078 102h1M1080 102h1M1083 102h1M1085 102h1M1088 102h1M1090 102h1M1095 102h1M1098 102h1M1100 102h1M1103 102h1M1105 102h1M1108 102h1M1110 102h1M1113 102h1M1115 102h1M1118 102h1M1120 102h1M1123 102h1M1125 102h1" />
<path stroke="rgba(147,188,196,0.49019607843137253)" d="M0 103h22M23 103h1M25 103h23M50 103h8M61 103h23M85 103h170M257 103h72M330 103h2M335 103h33M369 103h67M438 103h33M472 103h83M556 103h39M596 103h29M626 103h4M632 103h60M693 103h1M695 103h23M720 103h8M731 103h23M755 103h93M850 103h1M852 103h134M987 103h2M992 103h33M1026 103h67M1095 103h32M0 104h21M22 104h28M52 104h5M58 104h27M87 104h2M95 104h133M229 104h27M257 104h73M332 104h37M370 104h67M438 104h31M470 104h1M472 104h84M557 104h11M569 104h25M598 104h27M631 104h60M692 104h28M722 104h5M728 104h27M757 104h2M765 104h84M852 104h135M989 104h37M1027 104h67M1095 104h31M0 105h20M21 105h30M53 105h2M57 105h27M85 105h2M90 105h4M96 105h28M126 105h75M203 105h21M226 105h1M229 105h24M264 105h67M332 105h12M346 105h23M370 105h32M403 105h29M444 105h8M453 105h17M472 105h48M521 105h36M558 105h7M566 105h1M568 105h24M600 105h18M636 105h54M691 105h30M723 105h2M727 105h27M755 105h2M760 105h4M766 105h28M796 105h49M859 105h129M989 105h12M1003 105h23M1027 105h32M1060 105h29M1101 105h8M1110 105h17" />
<path stroke="#405669" d="M0 106h15M21 106h30M55 106h20M76 106h4M89 106h34M126 106h31M159 106h36M196 106h7M204 106h21M227 106h44M277 106h13M294 106h15M312 106h7M321 106h1M327 106h5M333 106h12M347 106h22M370 106h4M376 106h26M404 106h46M454 106h17M473 106h47M521 106h36M558 106h4M563 106h1M962 106h4M978 106h1M1027 106h4M0 107h7M11 107h6M20 107h31M55 107h21M78 107h9M88 107h12M106 107h9M118 107h3M124 107h16M151 107h2M156 107h1M159 107h21M183 107h5M195 107h9M205 107h2M219 107h7M228 107h2M232 107h9M246 107h14M261 107h3M267 107h9M279 107h15M297 107h4M304 107h3M310 107h8M320 107h1M323 107h9M334 107h13M352 107h11M381 107h21M403 107h3M413 107h24M440 107h8M453 107h14M483 107h7M491 107h25M524 107h18M543 107h5M962 107h2M977 107h1M0 108h2M4 108h7M15 108h3M20 108h4M25 108h7M34 108h16M61 108h16M79 108h12M96 108h2M100 108h17M120 108h1M125 108h7M136 108h2M141 108h14M163 108h7M176 108h7M185 108h4M190 108h1M193 108h5M199 108h2M203 108h2M207 108h21M234 108h9M249 108h1M255 108h1M265 108h8M277 108h1M280 108h10M291 108h6M299 108h4M313 108h4M319 108h4M325 108h6M334 108h1M337 108h7M350 108h2M355 108h11M370 108h11M383 108h15M410 108h12M427 108h7M437 108h6M456 108h10M469 108h3M478 108h5M485 108h1M487 108h2M491 108h7M501 108h4M513 108h8M522 108h10M535 108h7M544 108h3M550 108h8M559 108h6M976 108h4M1126 108h1M2 109h12M26 109h7M36 109h15M65 109h13M81 109h20M103 109h10M122 109h13M139 109h11M161 109h14M177 109h1M183 109h1M190 109h5M198 109h5M211 109h6M223 109h2M228 109h1M232 109h16M251 109h4M264 109h13M284 109h6M292 109h6M301 109h9M312 109h4M318 109h3M324 109h5M332 109h2M336 109h1M349 109h5M357 109h45M407 109h2M411 109h8M423 109h7M435 109h1M438 109h14M454 109h9M467 109h1M472 109h14M495 109h3M499 109h23M524 109h11M540 109h1M544 109h6M560 109h4M975 109h3M1092 109h1M1124 109h1M0 110h36M39 110h16M60 110h20M86 110h16M103 110h43M157 110h19M179 110h4M185 110h1M188 110h3M195 110h30M229 110h21M251 110h8M260 110h40M301 110h17M322 110h20M346 110h11M359 110h34M394 110h25M420 110h10M443 110h10M457 110h2M460 110h3M468 110h26M498 110h18M518 110h5M525 110h37" />
<path stroke="#485c70" d="M17 106h2M567 106h39M607 106h8M616 106h20M640 106h25M666 106h19M687 106h2M691 106h30M725 106h20M746 106h4M759 106h34M796 106h31M829 106h21M853 106h34M889 106h73M969 106h7M984 106h5M990 106h12M1004 106h22M1033 106h26M1061 106h46M1111 106h16M18 107h1M573 107h11M585 107h17M604 107h1M606 107h7M616 107h16M636 107h4M643 107h9M653 107h9M668 107h9M681 107h6M688 107h1M690 107h31M725 107h21M748 107h9M758 107h12M776 107h9M788 107h3M794 107h16M821 107h2M826 107h1M829 107h31M862 107h11M877 107h10M894 107h33M930 107h11M943 107h14M960 107h2M967 107h8M980 107h9M991 107h13M1009 107h11M1038 107h21M1060 107h3M1070 107h24M1097 107h8M1110 107h14M51 108h3M565 108h20M594 108h4M600 108h3M606 108h7M618 108h12M632 108h10M643 108h8M653 108h12M670 108h2M674 108h7M685 108h3M690 108h4M695 108h7M704 108h16M721 108h3M731 108h16M749 108h12M766 108h2M770 108h17M790 108h1M795 108h7M806 108h2M811 108h14M833 108h3M840 108h4M849 108h8M869 108h7M879 108h5M885 108h3M890 108h12M905 108h13M927 108h12M941 108h11M958 108h4M970 108h4M982 108h6M991 108h1M994 108h7M1007 108h2M1012 108h11M1027 108h11M1040 108h15M1067 108h12M1084 108h7M1094 108h6M1113 108h10M55 109h4M155 109h1M568 109h6M576 109h15M593 109h1M610 109h6M619 109h29M657 109h11M672 109h12M696 109h7M706 109h15M725 109h4M735 109h13M751 109h20M773 109h10M792 109h13M809 109h11M825 109h1M831 109h18M852 109h9M864 109h1M870 109h14M885 109h2M889 109h9M906 109h19M931 109h6M939 109h11M951 109h2M958 109h9M969 109h4M981 109h5M989 109h2M993 109h1M1006 109h5M1014 109h45M1064 109h2M1068 109h8M1080 109h7M1095 109h14M1111 109h9M150 110h2M562 110h14M578 110h10M595 110h19M621 110h26M648 110h5M656 110h11M669 110h37M709 110h16M730 110h20M756 110h16M773 110h43M820 110h2M827 110h26M861 110h9M871 110h12M885 110h13M899 110h7M916 110h13M937 110h13M953 110h22M979 110h20M1003 110h11M1016 110h34M1051 110h25M1077 110h10M1100 110h10M1114 110h2M1117 110h3M1125 110h2" />
<path stroke="#434b56" d="M75 106h1M636 106h4M745 106h1M7 107h4M76 107h2M100 107h6M140 107h11M584 107h1M632 107h4M640 107h3M677 107h4M746 107h2M770 107h6M810 107h11M860 107h2M873 107h4M927 107h3M957 107h3M2 108h2M32 108h2M50 108h1M77 108h2M91 108h5M98 108h2M118 108h1M122 108h3M132 108h4M138 108h3M161 108h2M585 108h9M598 108h2M613 108h1M630 108h2M642 108h1M651 108h1M672 108h2M702 108h2M720 108h1M747 108h2M761 108h5M768 108h2M788 108h1M792 108h3M802 108h4M808 108h3M831 108h2M836 108h4M844 108h5M876 108h3M884 108h1M888 108h2M918 108h9M955 108h3M0 109h2M33 109h3M51 109h4M59 109h6M78 109h3M101 109h2M135 109h4M150 109h5M564 109h4M574 109h2M594 109h4M616 109h3M668 109h4M703 109h3M721 109h4M729 109h6M748 109h3M771 109h2M805 109h4M820 109h5M849 109h3M865 109h1M884 109h1M887 109h2M902 109h2M950 109h1M953 109h1M36 110h3M55 110h5M80 110h6M102 110h1M146 110h4M576 110h2M614 110h7M667 110h2M706 110h3M725 110h5M750 110h6M772 110h1M816 110h4M883 110h2M911 110h5M950 110h3" />
<path stroke="#35414a" d="M195 106h1M309 106h3M966 106h3M188 107h7M207 107h12M241 107h5M301 107h3M307 107h3M375 107h1M377 107h4M406 107h7M437 107h3M480 107h3M964 107h3M1032 107h1M1034 107h4M1063 107h7M1094 107h3M170 108h6M191 108h2M198 108h1M231 108h3M250 108h5M264 108h1M273 108h4M290 108h1M303 108h4M323 108h2M335 108h2M352 108h3M381 108h2M398 108h3M402 108h4M422 108h5M434 108h3M443 108h9M466 108h3M472 108h6M483 108h2M498 108h3M505 108h8M521 108h1M532 108h3M547 108h3M558 108h1M962 108h2M980 108h2M992 108h2M1009 108h3M1038 108h2M1055 108h3M1059 108h4M1079 108h5M1091 108h3M1100 108h9M1123 108h3M175 109h2M178 109h5M195 109h3M217 109h6M229 109h3M255 109h9M277 109h7M290 109h2M321 109h3M337 109h5M343 109h6M354 109h3M419 109h4M432 109h3M452 109h2M463 109h4M468 109h4M498 109h1M522 109h2M535 109h5M550 109h10M978 109h3M994 109h5M1000 109h6M1011 109h3M1076 109h4M1089 109h3M1109 109h2M1120 109h4M1125 109h2M176 110h3M183 110h2M191 110h4M225 110h4M259 110h1M318 110h4M357 110h2M393 110h1M419 110h1M453 110h4M463 110h5M494 110h4M516 110h2M523 110h2M975 110h4M1014 110h2M1050 110h1M1076 110h1M1110 110h4M1120 110h5" />
<path stroke="#162229" d="M0 111h1127M0 112h216M217 112h96M315 112h655M972 112h155M0 113h105M107 113h102M211 113h4M217 113h97M316 113h234M555 113h84M640 113h135M777 113h77M856 113h42M899 113h72M973 113h154M0 114h39M41 114h58M105 114h105M211 114h3M216 114h74M292 114h23M316 114h6M323 114h58M385 114h170M557 114h81M640 114h69M711 114h58M775 114h77M856 114h43M903 114h69M973 114h6M980 114h58M1042 114h85M0 115h39M42 115h54M102 115h111M215 115h164M383 115h96M483 115h74M559 115h77M640 115h69M712 115h54M772 115h78M854 115h49M906 115h130M1040 115h87M15 116h1M33 116h6M133 116h2M147 116h6M159 116h1M210 116h9M291 116h2M330 116h4M393 116h3M408 116h2M434 116h2M439 116h4M495 116h10M507 116h1M512 116h6M519 116h1M576 116h1M581 116h5M620 116h1M643 116h3M685 116h1M703 116h6M803 116h2M817 116h6M829 116h1M892 116h1M932 116h1M951 116h7M987 116h4M1050 116h3M1065 116h2M1091 116h2M1096 116h4M13 117h2M31 117h2M38 117h2M134 117h1M148 117h4M158 117h2M211 117h8M292 117h1M320 117h2M332 117h2M391 117h2M410 117h1M434 117h2M440 117h5M496 117h1M498 117h1M500 117h1M504 117h2M507 117h2M511 117h2M514 117h1M517 117h1M527 117h5M537 117h1M577 117h4M607 117h2M620 117h1M642 117h3M660 117h6M683 117h2M701 117h2M708 117h2M804 117h1M818 117h4M828 117h2M893 117h1M931 117h1M950 117h6M977 117h2M989 117h2M1048 117h2M1067 117h1M1091 117h2M1097 117h5M12 118h1M21 118h3M28 118h3M40 118h3M87 118h1M135 118h1M148 118h3M157 118h2M212 118h4M271 118h5M278 118h1M281 118h1M284 118h3M288 118h1M293 118h1M319 118h2M374 118h2M388 118h3M411 118h1M442 118h3M468 118h3M496 118h1M500 118h1M506 118h2M513 118h3M519 118h1M524 118h3M532 118h7M540 118h1M560 118h1M608 118h2M642 118h3M666 118h4M682 118h1M691 118h3M698 118h3M710 118h3M757 118h1M805 118h1M818 118h3M827 118h2M842 118h1M858 118h2M865 118h2M894 118h2M929 118h2M950 118h4M976 118h2M1031 118h2M1045 118h3M1068 118h1M1099 118h3M1125 118h2M0 119h3M11 119h1M24 119h4M43 119h2M60 119h5M87 119h3M104 119h2M130 119h2M135 119h1M149 119h2M156 119h2M178 119h8M212 119h3M236 119h8M269 119h2M278 119h1M281 119h1M285 119h1M288 119h1M310 119h3M319 119h1M360 119h3M372 119h2M376 119h3M386 119h2M412 119h2M443 119h2M467 119h1M494 119h2M499 119h1M508 119h1M510 119h4M515 119h2M519 119h1M536 119h5M547 119h2M559 119h1M610 119h1M670 119h3M681 119h1M694 119h4M713 119h2M730 119h5M757 119h3M774 119h2M800 119h2M805 119h1M819 119h2M826 119h2M842 119h2M850 119h1M852 119h1M858 119h1M860 119h2M865 119h1M867 119h1M870 119h1M875 119h1M895 119h1M900 119h11M926 119h3M967 119h3M976 119h1M1017 119h3M1029 119h2M1033 119h3M1043 119h2M1069 119h2M1100 119h2M1124 119h1M3 120h2M10 120h1M26 120h1M58 120h2M65 120h4M89 120h2M105 120h1M128 120h3M132 120h3M149 120h1M156 120h1M174 120h4M204 120h1M226 120h2M238 120h2M243 120h3M258 120h12M278 120h4M285 120h1M288 120h1M307 120h3M318 120h1M337 120h2M346 120h1M363 120h3M371 120h1M379 120h2M386 120h1M414 120h2M465 120h2M493 120h1M499 120h1M508 120h3M517 120h3M538 120h3M545 120h2M557 120h2M673 120h2M680 120h1M696 120h1M728 120h2M735 120h4M759 120h2M775 120h1M798 120h3M802 120h3M819 120h1M826 120h1M841 120h3M850 120h3M858 120h1M861 120h1M865 120h3M869 120h1M872 120h4M882 120h1M897 120h3M918 120h8M929 120h3M964 120h3M975 120h1M994 120h2M1003 120h1M1020 120h3M1028 120h1M1036 120h2M1043 120h1M1071 120h2M1122 120h2M4 121h1M9 121h2M23 121h3M69 121h3M89 121h4M106 121h2M126 121h2M149 121h1M155 121h1M190 121h7M205 121h2M226 121h1M237 121h1M270 121h2M278 121h1M281 121h1M285 121h1M290 121h1M304 121h3M317 121h1M335 121h2M345 121h2M366 121h5M381 121h2M416 121h1M463 121h3M506 121h2M540 121h5M555 121h2M604 121h1M674 121h1M679 121h2M693 121h3M739 121h3M759 121h4M776 121h2M796 121h2M819 121h1M825 121h1M840 121h3M844 121h1M850 121h3M858 121h1M865 121h1M869 121h1M871 121h1M875 121h1M883 121h1M905 121h1M932 121h4M962 121h2M974 121h1M992 121h2M1002 121h2M1023 121h5M1038 121h2M1073 121h1M1120 121h3M8 122h2M22 122h1M72 122h2M87 122h2M93 122h3M107 122h1M124 122h2M149 122h2M154 122h1M176 122h2M188 122h2M197 122h4M207 122h1M226 122h2M234 122h3M272 122h2M278 122h1M281 122h1M284 122h3M288 122h1M291 122h13M315 122h2M333 122h2M344 122h2M367 122h2M383 122h2M396 122h1M404 122h7M417 122h11M461 122h2M469 122h7M505 122h2M509 122h3M533 122h2M548 122h1M553 122h2M594 122h10M624 122h1M661 122h3M678 122h2M692 122h1M742 122h2M757 122h2M763 122h3M777 122h1M794 122h2M819 122h2M824 122h1M839 122h2M844 122h2M850 122h1M852 122h2M858 122h1M860 122h1M869 122h1M875 122h1M884 122h1M906 122h1M936 122h2M972 122h2M990 122h2M1001 122h2M1024 122h2M1040 122h2M1053 122h1M1061 122h7M1074 122h11M1118 122h2M1126 122h1M0 123h8M43 123h2M74 123h2M86 123h2M104 123h3M123 123h2M151 123h1M153 123h1M178 123h3M201 123h5M208 123h1M228 123h1M232 123h2M251 123h2M274 123h1M344 123h1M365 123h2M397 123h3M402 123h2M460 123h1M468 123h2M476 123h3M503 123h2M512 123h2M548 123h5M566 123h4M577 123h1M592 123h2M621 123h3M640 123h1M664 123h14M713 123h2M744 123h2M756 123h2M774 123h3M793 123h2M821 123h1M823 123h1M858 123h3M869 123h3M885 123h2M907 123h1M938 123h2M1001 123h1M1022 123h2M1054 123h3M1059 123h2M1117 123h1M1125 123h2M44 124h2M76 124h2M102 124h3M152 124h2M181 124h2M206 124h1M209 124h1M229 124h3M249 124h3M275 124h3M323 124h4M329 124h6M362 124h3M367 124h1M400 124h2M458 124h2M479 124h1M502 124h1M563 124h3M570 124h3M576 124h1M590 124h2M619 124h2M639 124h2M714 124h2M746 124h2M772 124h3M822 124h2M887 124h1M907 124h1M980 124h4M986 124h6M1019 124h3M1024 124h1M1057 124h2M1115 124h2M46 125h1M78 125h11M153 125h3M163 125h1M183 125h1M210 125h1M232 125h2M243 125h6M278 125h1M327 125h2M353 125h2M357 125h5M367 125h4M398 125h2M456 125h2M480 125h1M501 125h1M572 125h4M618 125h2M639 125h1M716 125h1M748 125h11M823 125h3M833 125h1M888 125h1M908 125h1M984 125h2M1010 125h2M1014 125h5M1024 125h4M1055 125h2M1113 125h2M46 126h1M129 126h1M154 126h1M163 126h1M211 126h1M355 126h2M397 126h1M454 126h2M481 126h2M501 126h1M573 126h2M638 126h1M716 126h1M799 126h1M824 126h1M833 126h1M889 126h2M909 126h1M1012 126h2M1054 126h1M1111 126h2M47 127h1M130 127h2M136 127h1M162 127h1M395 127h2M441 127h3M450 127h4M483 127h2M572 127h1M637 127h2M649 127h1M717 127h1M800 127h2M806 127h1M832 127h1M891 127h1M910 127h1M1052 127h2M1098 127h3M1107 127h4" />
<path stroke="#14191a" d="M216 112h1M313 112h2M970 112h2M105 113h2M209 113h2M215 113h2M314 113h2M550 113h5M639 113h1M775 113h2M854 113h2M898 113h1M971 113h2M39 114h2M99 114h6M210 114h1M214 114h2M290 114h2M315 114h1M322 114h1M381 114h4M555 114h2M638 114h2M709 114h2M769 114h6M852 114h4M899 114h4M972 114h1M979 114h1M1038 114h4M39 115h3M96 115h6M213 115h2M379 115h4M479 115h4M557 115h2M636 115h4M709 115h3M766 115h6M850 115h4M903 115h3M1036 115h4M0 116h15M16 116h17M39 116h94M135 116h12M153 116h6M160 116h50M219 116h72M293 116h37M334 116h59M396 116h12M410 116h24M436 116h3M443 116h52M505 116h2M508 116h4M518 116h1M520 116h56M577 116h4M586 116h34M621 116h22M646 116h39M686 116h17M709 116h94M805 116h12M823 116h6M830 116h62M893 116h39M933 116h18M958 116h29M991 116h59M1053 116h12M1067 116h24M1093 116h3M1100 116h27M0 117h13M15 117h16M33 117h5M40 117h94M135 117h13M152 117h6M160 117h51M219 117h73M293 117h27M322 117h10M334 117h57M393 117h17M411 117h23M436 117h4M445 117h51M497 117h1M499 117h1M501 117h3M506 117h1M509 117h2M513 117h1M515 117h2M518 117h9M532 117h5M538 117h39M581 117h26M609 117h11M621 117h21M645 117h15M666 117h17M685 117h16M703 117h5M710 117h94M805 117h13M822 117h6M830 117h63M894 117h37M932 117h18M956 117h21M979 117h10M991 117h57M1050 117h17M1068 117h23M1093 117h4M1102 117h25M0 118h12M13 118h8M24 118h4M31 118h9M43 118h44M88 118h47M136 118h12M151 118h6M159 118h53M216 118h55M276 118h2M279 118h2M282 118h2M287 118h1M289 118h4M294 118h25M321 118h53M376 118h12M391 118h20M412 118h30M445 118h23M471 118h25M497 118h3M501 118h5M508 118h5M516 118h3M520 118h4M527 118h5M539 118h1M541 118h19M561 118h47M610 118h32M645 118h21M670 118h12M683 118h8M694 118h4M701 118h9M713 118h44M758 118h47M806 118h12M821 118h6M829 118h13M843 118h15M860 118h5M867 118h27M896 118h33M931 118h19M954 118h22M978 118h53M1033 118h12M1048 118h20M1069 118h30M1102 118h23M3 119h8M12 119h12M28 119h15M45 119h15M65 119h22M90 119h14M106 119h24M132 119h3M136 119h13M151 119h5M158 119h20M186 119h26M215 119h21M244 119h25M271 119h7M279 119h2M282 119h3M286 119h2M289 119h21M313 119h6M320 119h40M363 119h9M374 119h2M379 119h7M388 119h24M414 119h29M445 119h22M468 119h26M496 119h3M500 119h8M509 119h1M514 119h1M517 119h2M520 119h16M541 119h6M549 119h10M560 119h50M611 119h59M673 119h8M682 119h12M698 119h15M715 119h15M735 119h22M760 119h14M776 119h24M802 119h3M806 119h13M821 119h5M828 119h14M844 119h6M851 119h1M853 119h5M859 119h1M862 119h3M866 119h1M868 119h2M871 119h4M876 119h19M896 119h4M911 119h15M929 119h38M970 119h6M977 119h40M1020 119h9M1031 119h2M1036 119h7M1045 119h24M1071 119h29M1102 119h22M1125 119h2M0 120h3M5 120h5M11 120h15M27 120h31M60 120h5M69 120h20M91 120h14M106 120h22M131 120h1M135 120h14M150 120h6M157 120h17M178 120h26M205 120h21M228 120h10M240 120h3M246 120h12M270 120h8M282 120h3M286 120h2M289 120h18M310 120h8M319 120h18M339 120h7M347 120h16M366 120h5M372 120h7M381 120h5M387 120h27M416 120h49M467 120h26M494 120h5M500 120h8M511 120h6M520 120h18M541 120h4M547 120h10M559 120h114M675 120h5M681 120h15M697 120h31M730 120h5M739 120h20M761 120h14M776 120h22M801 120h1M805 120h14M820 120h6M827 120h14M844 120h6M853 120h5M859 120h2M862 120h3M868 120h1M870 120h2M876 120h6M883 120h14M900 120h18M926 120h3M932 120h32M967 120h8M976 120h18M996 120h7M1004 120h16M1023 120h5M1029 120h7M1038 120h5M1044 120h27M1073 120h49M1124 120h3M0 121h4M5 121h4M11 121h12M26 121h43M72 121h17M93 121h13M108 121h18M128 121h21M150 121h5M156 121h34M197 121h8M207 121h19M227 121h10M238 121h32M272 121h6M279 121h2M282 121h3M286 121h4M291 121h13M307 121h10M318 121h17M337 121h8M347 121h19M371 121h10M383 121h33M417 121h46M466 121h40M508 121h32M545 121h10M557 121h47M605 121h69M675 121h4M681 121h12M696 121h43M742 121h17M763 121h13M778 121h18M798 121h21M820 121h5M826 121h14M843 121h1M845 121h5M853 121h5M859 121h6M866 121h3M870 121h1M872 121h3M876 121h7M884 121h21M906 121h26M936 121h26M964 121h10M975 121h17M994 121h8M1004 121h19M1028 121h10M1040 121h33M1074 121h46M1123 121h4M0 122h8M10 122h12M23 122h49M74 122h13M89 122h4M96 122h11M108 122h16M126 122h23M151 122h3M155 122h21M178 122h10M190 122h7M201 122h6M208 122h18M228 122h6M237 122h35M274 122h4M279 122h2M282 122h2M287 122h1M289 122h2M304 122h11M317 122h16M335 122h9M346 122h21M369 122h14M385 122h11M397 122h7M411 122h6M428 122h33M463 122h6M476 122h29M507 122h2M512 122h21M535 122h13M549 122h4M555 122h39M604 122h20M625 122h36M664 122h14M680 122h12M693 122h49M744 122h13M759 122h4M766 122h11M778 122h16M796 122h23M821 122h3M825 122h14M841 122h3M846 122h4M851 122h1M854 122h4M859 122h1M861 122h8M870 122h5M876 122h8M885 122h21M907 122h29M938 122h34M974 122h16M992 122h9M1003 122h21M1026 122h14M1042 122h11M1054 122h7M1068 122h6M1085 122h33M1120 122h6M8 123h35M45 123h29M76 123h10M88 123h16M107 123h16M125 123h26M152 123h1M154 123h24M181 123h20M206 123h2M209 123h19M229 123h3M234 123h17M253 123h21M275 123h69M345 123h20M367 123h30M400 123h2M404 123h56M461 123h7M470 123h6M479 123h24M505 123h7M514 123h34M553 123h13M570 123h7M578 123h14M594 123h27M624 123h16M641 123h23M678 123h35M715 123h29M746 123h10M758 123h16M777 123h16M795 123h26M822 123h1M824 123h34M861 123h8M872 123h13M887 123h20M908 123h30M940 123h61M1002 123h20M1024 123h30M1057 123h2M1061 123h56M1118 123h7M0 124h44M46 124h30M78 124h24M105 124h47M154 124h27M183 124h23M207 124h2M210 124h19M232 124h17M252 124h23M278 124h45M327 124h2M335 124h27M365 124h2M368 124h32M402 124h56M460 124h19M480 124h22M503 124h60M566 124h4M573 124h3M577 124h13M592 124h27M621 124h18M641 124h73M716 124h30M748 124h24M775 124h47M824 124h63M888 124h19M908 124h72M984 124h2M992 124h27M1022 124h2M1025 124h32M1059 124h56M1117 124h10M0 125h46M47 125h31M89 125h64M156 125h7M164 125h19M184 125h26M211 125h21M234 125h9M249 125h29M279 125h48M329 125h24M355 125h2M362 125h5M371 125h27M400 125h56M458 125h22M481 125h20M502 125h70M576 125h42M620 125h19M640 125h76M717 125h31M759 125h64M826 125h7M834 125h54M889 125h19M909 125h75M986 125h24M1012 125h2M1019 125h5M1028 125h27M1057 125h56M1115 125h12M0 126h46M47 126h82M130 126h24M155 126h8M164 126h47M212 126h143M357 126h40M398 126h56M456 126h25M483 126h18M502 126h71M575 126h63M639 126h77M717 126h82M800 126h24M825 126h8M834 126h55M891 126h18M910 126h102M1014 126h40M1055 126h56M1113 126h14M0 127h47M48 127h82M132 127h4M137 127h25M163 127h232M397 127h44M444 127h6M454 127h29M485 127h87M573 127h64M639 127h10M650 127h67M718 127h82M802 127h4M807 127h25M833 127h58M892 127h18M911 127h141M1054 127h44M1101 127h6M1111 127h16" />
</svg>