<svg xmlns="http://www.w3.org/2000/svg" viewBox="0 -0.5 798 128" shape-rendering="crispEdges">
<metadata>Made with Pixels to Svg https://codepen.io/shshaw/pen/XbxvNj</metadata>
<path stroke="#2b6339" d="M97 114h1M267 114h1M95 115h2M268 115h1M274 115h1M94 116h2M269 116h1M274 116h1M93 117h2M269 117h1M273 117h1M309 117h2M89 118h1M93 118h1M270 118h2M273 118h1M308 118h2M89 119h2M92 119h1M169 119h1M271 119h2M307 119h2M91 120h2M168 120h1M204 120h1M272 120h2M307 120h1M64 121h1M92 121h1M205 121h1M273 121h1M307 121h1M37 122h2M60 122h2M63 122h2M89 122h8M99 122h1M167 122h1M180 122h2M205 122h1M238 122h1M269 122h8M278 122h2M288 122h1M306 122h2M356 122h1M393 122h1M39 123h1M61 123h2M107 123h6M126 123h4M155 123h2M158 123h5M168 123h1M181 123h2M205 123h1M210 123h1M239 123h1M286 123h4M307 123h2M356 123h1M393 123h1M16 124h3M40 124h1M62 124h2M66 124h2M100 124h3M112 124h2M130 124h3M154 124h2M157 124h2M168 124h2M183 124h2M187 124h1M205 124h6M238 124h1M286 124h3M305 124h4M310 124h4M353 124h4M378 124h1M388 124h9M19 125h2M37 125h2M41 125h2M64 125h3M79 125h6M97 125h3M133 125h1M146 125h3M154 125h1M167 125h3M180 125h3M202 125h2M205 125h1M237 125h1M242 125h2M322 125h1M325 125h2M378 125h2M20 126h2M39 126h5M165 126h1M167 126h1M170 126h2M178 126h1M238 126h5M266 126h2M272 126h2M322 126h1M326 126h2M329 126h1M23 127h1M178 127h4M268 127h8" />
<path stroke="#347949" d="M458 114h1M458 115h3M457 116h1M460 116h1M460 117h1M389 118h2M429 118h2M460 118h2M587 118h1M390 119h2M430 119h1M461 119h1M467 119h2M529 119h2M554 119h1M567 119h1M588 119h2M683 119h1M688 119h1M391 120h1M431 120h1M461 120h1M466 120h2M528 120h1M530 120h1M554 120h2M564 120h3M590 120h1M684 120h2M687 120h1M305 121h1M392 121h1M404 121h1M430 121h4M461 121h6M527 121h1M556 121h2M563 121h1M591 121h2M595 121h6M685 121h3M401 122h1M403 122h1M429 122h5M455 122h1M459 122h10M470 122h2M526 122h1M557 122h2M561 122h2M593 122h3M600 122h2M630 122h1M686 122h9M401 123h2M442 123h1M501 123h1M521 123h2M525 123h2M557 123h4M591 123h4M629 123h1M663 123h2M686 123h3M358 124h1M400 124h6M438 124h2M441 124h1M449 124h2M488 124h1M498 124h6M523 124h1M525 124h1M557 124h4M593 124h1M621 124h3M627 124h3M659 124h3M663 124h2M723 124h1M727 124h3M777 124h2M439 125h3M450 125h2M488 125h1M503 125h2M518 125h2M524 125h2M530 125h1M560 125h3M623 125h1M625 125h1M627 125h1M661 125h4M693 125h10M738 125h3M775 125h2M788 125h1M435 126h7M486 126h4M491 126h1M521 126h2M524 126h7M619 126h2M625 126h3M662 126h4M697 126h3M734 126h4M740 126h2M761 126h2M766 126h1M773 126h2M489 127h3M658 127h1M689 127h8M734 127h1M742 127h1M746 127h1M768 127h2M772 127h1" />
<path stroke="rgba(144,188,200,0.09019607843137255)" d="M0 115h1" />
<path stroke="rgba(151,185,197,0.08627450980392157)" d="M1 115h1M3 115h1M5 115h4M10 115h1M12 115h6M19 115h4M25 115h5M31 115h1M33 115h1M35 115h2M38 115h1M41 115h1M44 115h3M50 115h2M53 115h3M57 115h2M60 115h1M62 115h1M64 115h1M69 115h2M75 115h1M78 115h1M80 115h1M82 115h1M84 115h1M87 115h1M92 115h3M98 115h1M100 115h3M104 115h7M114 115h2M118 115h5M125 115h5M131 115h2M134 115h4M143 115h1M145 115h4M150 115h2M155 115h2M160 115h1M162 115h4M167 115h4M173 115h2M176 115h3M180 115h4M186 115h1M190 115h1M192 115h1M194 115h1M196 115h1M199 115h2M202 115h3M206 115h6M213 115h1M220 115h2M227 115h4M232 115h1M235 115h1M238 115h1M240 115h2M243 115h1M246 115h2M249 115h2M252 115h5M258 115h1M260 115h2M263 115h4M270 115h2M273 115h1M276 115h2M285 115h3M290 115h4M295 115h1M297 115h1M299 115h2M302 115h2M309 115h8M318 115h3M322 115h1M325 115h1M327 115h1M330 115h3M334 115h1M336 115h3M340 115h3M345 115h1M347 115h2M350 115h1M352 115h1M355 115h3M359 115h3M363 115h1M366 115h1M369 115h4M374 115h2M377 115h2M380 115h3M385 115h2M390 115h1M392 115h2M395 115h4M400 115h1M405 115h1M409 115h1M411 115h3M416 115h1M420 115h2M425 115h3M429 115h3M433 115h3M441 115h1M444 115h1M446 115h5M453 115h1M456 115h2M461 115h3M465 115h2M471 115h1M475 115h2M478 115h1M480 115h1M484 115h5M490 115h2M493 115h7M502 115h2M508 115h1M512 115h1M514 115h7M522 115h2M527 115h5M534 115h3M538 115h2M543 115h4M549 115h3M555 115h2M558 115h6M565 115h3M569 115h3M573 115h1M575 115h4M580 115h2M585 115h2M589 115h4M594 115h3M598 115h1M600 115h2M605 115h2M615 115h1M618 115h1M620 115h1M622 115h1M625 115h3M630 115h1M633 115h1M639 115h1M642 115h1M646 115h5M652 115h1M655 115h3M661 115h1M666 115h3M674 115h2M677 115h3M681 115h2M685 115h3M690 115h3M695 115h2M698 115h1M700 115h3M704 115h2M707 115h1M710 115h6M722 115h1M732 115h4M737 115h1M740 115h6M750 115h7M758 115h1M760 115h2M763 115h1M765 115h1M768 115h1M771 115h3M775 115h3M781 115h2M784 115h5M790 115h2M793 115h1M795 115h3" />
<path stroke="rgba(146,182,194,0.08235294117647059)" d="M2 115h1M4 115h1M9 115h1M11 115h1M18 115h1M23 115h2M30 115h1M32 115h1M34 115h1M37 115h1M39 115h2M42 115h2M47 115h3M52 115h1M56 115h1M59 115h1M61 115h1M63 115h1M65 115h4M71 115h4M76 115h2M79 115h1M81 115h1M83 115h1M85 115h2M88 115h4M97 115h1M99 115h1M103 115h1M111 115h3M116 115h2M123 115h2M130 115h1M133 115h1M138 115h5M144 115h1M149 115h1M152 115h3M157 115h3M161 115h1M166 115h1M171 115h2M175 115h1M179 115h1M184 115h2M187 115h3M191 115h1M193 115h1M195 115h1M197 115h2M201 115h1M205 115h1M212 115h1M214 115h6M222 115h5M231 115h1M233 115h2M236 115h2M239 115h1M242 115h1M244 115h2M248 115h1M251 115h1M257 115h1M259 115h1M262 115h1M267 115h1M269 115h1M272 115h1M275 115h1M278 115h7M288 115h2M294 115h1M296 115h1M298 115h1M301 115h1M304 115h5M317 115h1M321 115h1M323 115h2M326 115h1M328 115h2M333 115h1M335 115h1M339 115h1M343 115h2M346 115h1M349 115h1M351 115h1M353 115h2M358 115h1M362 115h1M364 115h2M367 115h2M373 115h1M376 115h1M379 115h1M383 115h2M387 115h3M391 115h1M394 115h1M399 115h1M401 115h4M406 115h3M410 115h1M414 115h2M417 115h3M422 115h3M428 115h1M432 115h1M436 115h5M442 115h2M445 115h1M451 115h2M454 115h2M464 115h1M467 115h4M472 115h3M477 115h1M479 115h1M481 115h3M489 115h1M492 115h1M500 115h2M504 115h4M509 115h3M513 115h1M521 115h1M524 115h3M532 115h2M537 115h1M540 115h3M547 115h2M552 115h3M557 115h1M564 115h1M568 115h1M572 115h1M574 115h1M579 115h1M582 115h3M587 115h2M593 115h1M597 115h1M599 115h1M602 115h3M607 115h8M616 115h2M619 115h1M621 115h1M623 115h2M628 115h2M631 115h2M634 115h5M640 115h2M643 115h3M651 115h1M653 115h2M658 115h3M662 115h4M669 115h5M676 115h1M680 115h1M683 115h2M688 115h2M693 115h2M697 115h1M699 115h1M703 115h1M706 115h1M708 115h2M716 115h6M723 115h9M736 115h1M738 115h2M746 115h4M757 115h1M759 115h1M762 115h1M764 115h1M766 115h2M769 115h2M774 115h1M778 115h3M783 115h1M789 115h1M792 115h1M794 115h1" />
<path stroke="rgba(146,187,196,0.2196078431372549)" d="M0 116h2M3 116h1M8 116h2M13 116h2M18 116h2M25 116h1M28 116h2M34 116h1M42 116h1M44 116h1M47 116h1M49 116h1M53 116h2M56 116h1M59 116h1M61 116h1M63 116h1M67 116h3M73 116h2M76 116h1M78 116h1M80 116h1M82 116h3M89 116h1M91 116h1M97 116h1M99 116h1M101 116h1M103 116h1M109 116h1M116 116h4M123 116h1M127 116h1M129 116h1M131 116h1M133 116h1M137 116h4M143 116h2M146 116h1M150 116h1M152 116h1M157 116h1M162 116h3M166 116h1M168 116h2M172 116h2M178 116h2M181 116h3M187 116h4M194 116h1M197 116h1M201 116h1M203 116h2M206 116h1M212 116h1M219 116h1M223 116h2M228 116h1M232 116h1M237 116h1M239 116h1M246 116h2M252 116h1M255 116h1M258 116h3M263 116h1M267 116h1M271 116h2M276 116h1M279 116h1M283 116h1M287 116h1M292 116h3M298 116h1M304 116h1M311 116h1M313 116h1M317 116h2M323 116h1M329 116h1M333 116h1M338 116h2M343 116h1M348 116h2M351 116h4M356 116h1M358 116h2M361 116h1M363 116h2M368 116h1M373 116h2M377 116h1M379 116h1M383 116h1M385 116h1M391 116h5M398 116h3M407 116h3M411 116h3M418 116h2M421 116h2M424 116h1M427 116h1M429 116h1M431 116h1M433 116h1M438 116h1M444 116h1M449 116h1M453 116h1M456 116h1M459 116h1M471 116h2M474 116h1M478 116h2M483 116h1M488 116h2M491 116h1M493 116h3M497 116h3M502 116h1M504 116h1M509 116h1M512 116h3M517 116h3M523 116h2M527 116h4M533 116h2M538 116h1M541 116h3M545 116h2M552 116h1M558 116h1M560 116h1M563 116h1M567 116h1M569 116h1M572 116h3M576 116h4M581 116h1M583 116h1M588 116h1M597 116h3M601 116h4M608 116h1M614 116h1M623 116h2M626 116h1M629 116h2M633 116h1M636 116h1M638 116h2M641 116h1M643 116h1M648 116h1M653 116h1M655 116h1M659 116h1M663 116h2M668 116h1M674 116h1M678 116h2M682 116h1M689 116h1M691 116h1M693 116h1M696 116h1M704 116h1M706 116h4M713 116h1M717 116h1M719 116h1M721 116h1M723 116h1M726 116h1M729 116h1M732 116h4M737 116h3M744 116h2M748 116h2M751 116h1M753 116h1M756 116h2M763 116h1M769 116h1M772 116h1M774 116h1M778 116h1M788 116h2M793 116h2M796 116h1" />
<path stroke="rgba(148,190,195,0.21568627450980393)" d="M2 116h1M4 116h1M6 116h2M10 116h3M15 116h3M20 116h5M26 116h2M30 116h4M35 116h2M38 116h1M40 116h2M45 116h2M48 116h1M50 116h3M55 116h1M57 116h2M60 116h1M62 116h1M64 116h3M70 116h3M75 116h1M77 116h1M79 116h1M81 116h1M85 116h4M90 116h1M92 116h2M96 116h1M100 116h1M102 116h1M104 116h5M110 116h6M120 116h3M124 116h3M128 116h1M130 116h1M134 116h3M141 116h2M145 116h1M147 116h3M151 116h1M153 116h4M158 116h4M165 116h1M167 116h1M171 116h1M174 116h4M180 116h1M184 116h3M191 116h3M195 116h2M198 116h3M202 116h1M205 116h1M207 116h5M213 116h6M220 116h3M225 116h3M229 116h3M233 116h4M238 116h1M240 116h6M248 116h1M250 116h2M253 116h2M256 116h2M261 116h2M264 116h3M268 116h1M270 116h1M273 116h1M275 116h1M277 116h2M280 116h3M284 116h3M288 116h4M295 116h3M299 116h5M305 116h1M307 116h4M312 116h1M314 116h3M319 116h4M324 116h5M330 116h3M334 116h3M340 116h3M344 116h1M346 116h2M350 116h1M355 116h1M357 116h1M360 116h1M362 116h1M365 116h3M369 116h4M375 116h2M378 116h1M380 116h3M384 116h1M386 116h5M396 116h2M401 116h6M410 116h1M414 116h4M423 116h1M426 116h1M428 116h1M430 116h1M432 116h1M434 116h4M439 116h5M445 116h2M448 116h1M450 116h3M454 116h2M458 116h1M461 116h7M469 116h2M473 116h1M475 116h3M480 116h3M484 116h4M490 116h1M492 116h1M496 116h1M500 116h2M503 116h1M505 116h4M510 116h2M515 116h2M520 116h3M525 116h2M531 116h2M535 116h3M539 116h2M544 116h1M547 116h5M553 116h2M556 116h2M559 116h1M561 116h2M564 116h3M568 116h1M570 116h2M575 116h1M580 116h1M582 116h1M584 116h1M586 116h2M589 116h8M600 116h1M605 116h1M607 116h1M609 116h5M615 116h8M625 116h1M627 116h2M631 116h2M634 116h2M637 116h1M640 116h1M642 116h1M644 116h4M649 116h4M654 116h1M656 116h3M660 116h3M665 116h3M669 116h5M675 116h3M680 116h2M683 116h6M690 116h1M692 116h1M694 116h2M697 116h5M703 116h1M705 116h1M710 116h3M714 116h3M718 116h1M720 116h1M722 116h1M724 116h2M727 116h2M730 116h2M736 116h1M740 116h4M746 116h2M750 116h1M752 116h1M754 116h2M758 116h5M764 116h5M770 116h2M773 116h1M776 116h2M779 116h9M790 116h3M795 116h1" />
<path stroke="rgba(146,189,194,0.21176470588235294)" d="M5 116h1M37 116h1M39 116h1M132 116h1M170 116h1M249 116h1M306 116h1M337 116h1M345 116h1M420 116h1M425 116h1M447 116h1M555 116h1M585 116h1M606 116h1M702 116h1M775 116h1" />
<path stroke="rgba(148,188,197,0.2235294117647059)" d="M43 116h1M98 116h1M468 116h1M797 116h1" />
<path stroke="rgba(146,188,196,0.3568627450980392)" d="M0 117h3M4 117h1M9 117h1M11 117h2M14 117h2M18 117h2M21 117h4M26 117h5M32 117h3M36 117h4M41 117h1M44 117h4M50 117h2M53 117h2M56 117h1M58 117h7M66 117h7M75 117h3M79 117h3M83 117h1M85 117h5M91 117h1M95 117h3M99 117h7M107 117h2M111 117h1M113 117h2M116 117h1M118 117h2M121 117h1M123 117h5M129 117h3M133 117h2M136 117h5M144 117h1M146 117h2M150 117h2M153 117h1M155 117h1M157 117h1M159 117h3M163 117h5M170 117h6M177 117h1M179 117h1M181 117h1M183 117h1M185 117h4M191 117h4M198 117h1M200 117h1M203 117h3M208 117h1M211 117h3M215 117h3M220 117h7M229 117h2M233 117h4M238 117h1M240 117h6M247 117h1M249 117h1M251 117h1M254 117h4M259 117h1M261 117h2M264 117h2M267 117h1M270 117h1M272 117h1M276 117h1M279 117h3M286 117h5M293 117h4M298 117h6M306 117h1M311 117h2M315 117h1M317 117h1M319 117h3M324 117h2M327 117h1M329 117h1M331 117h6M338 117h6M346 117h1M348 117h4M354 117h1M356 117h2M359 117h1M361 117h2M365 117h1M367 117h5M375 117h5M381 117h2M384 117h1M386 117h2M389 117h3M393 117h1M395 117h5M401 117h2M404 117h4M409 117h1M411 117h2M414 117h2M417 117h2M424 117h1M427 117h1M429 117h3M436 117h4M442 117h1M444 117h4M449 117h1M455 117h2M458 117h2M461 117h4M468 117h14M483 117h12M496 117h1M499 117h2M502 117h4M508 117h1M510 117h2M513 117h1M515 117h6M522 117h1M524 117h3M528 117h7M536 117h1M538 117h2M541 117h6M548 117h2M555 117h3M559 117h1M564 117h3M569 117h9M579 117h3M584 117h3M588 117h2M591 117h1M594 117h1M596 117h1M598 117h2M601 117h7M609 117h3M614 117h1M616 117h5M622 117h1M625 117h2M629 117h9M639 117h1M642 117h1M645 117h2M648 117h2M651 117h3M656 117h6M664 117h3M668 117h2M671 117h1M673 117h2M676 117h4M681 117h6M691 117h1M693 117h2M696 117h1M698 117h1M700 117h3M704 117h3M708 117h2M711 117h14M726 117h1M729 117h1M731 117h2M735 117h2M742 117h1M744 117h4M750 117h3M754 117h2M757 117h1M759 117h2M763 117h1M766 117h4M771 117h1M773 117h2M776 117h1M778 117h4M784 117h3M788 117h2M793 117h5" />
<path stroke="rgba(147,187,196,0.35294117647058826)" d="M3 117h1M5 117h1M7 117h2M10 117h1M13 117h1M17 117h1M20 117h1M25 117h1M35 117h1M40 117h1M42 117h1M48 117h1M52 117h1M55 117h1M57 117h1M65 117h1M73 117h1M78 117h1M82 117h1M84 117h1M90 117h1M92 117h1M98 117h1M110 117h1M112 117h1M115 117h1M117 117h1M122 117h1M128 117h1M132 117h1M135 117h1M143 117h1M145 117h1M148 117h1M152 117h1M158 117h1M162 117h1M168 117h1M178 117h1M180 117h1M190 117h1M195 117h1M202 117h1M207 117h1M209 117h2M227 117h2M232 117h1M237 117h1M239 117h1M248 117h1M250 117h1M252 117h2M258 117h1M260 117h1M263 117h1M268 117h1M275 117h1M277 117h2M282 117h4M292 117h1M297 117h1M305 117h1M307 117h2M313 117h2M318 117h1M322 117h2M328 117h1M330 117h1M337 117h1M345 117h1M347 117h1M352 117h2M355 117h1M358 117h1M360 117h1M363 117h1M372 117h2M380 117h1M383 117h1M385 117h1M388 117h1M392 117h1M400 117h1M403 117h1M408 117h1M410 117h1M413 117h1M420 117h1M422 117h2M425 117h1M428 117h1M432 117h2M435 117h1M440 117h1M443 117h1M448 117h1M450 117h1M452 117h2M457 117h1M465 117h1M467 117h1M482 117h1M495 117h1M498 117h1M507 117h1M512 117h1M514 117h1M523 117h1M527 117h1M535 117h1M537 117h1M540 117h1M547 117h1M550 117h1M552 117h2M558 117h1M563 117h1M567 117h2M578 117h1M582 117h2M587 117h1M590 117h1M592 117h2M595 117h1M597 117h1M600 117h1M608 117h1M612 117h2M615 117h1M623 117h1M628 117h1M638 117h1M640 117h1M643 117h1M647 117h1M650 117h1M655 117h1M662 117h2M667 117h1M670 117h1M672 117h1M675 117h1M680 117h1M687 117h2M692 117h1M695 117h1M697 117h1M703 117h1M710 117h1M725 117h1M727 117h2M730 117h1M733 117h1M737 117h2M740 117h1M743 117h1M748 117h2M753 117h1M758 117h1M762 117h1M765 117h1M770 117h1M772 117h1M775 117h1M777 117h1M782 117h2M790 117h1M792 117h1" />
<path stroke="rgba(147,188,194,0.3607843137254902)" d="M6 117h1M16 117h1M31 117h1M43 117h1M49 117h1M74 117h1M106 117h1M109 117h1M120 117h1M141 117h2M149 117h1M154 117h1M156 117h1M169 117h1M176 117h1M182 117h1M184 117h1M189 117h1M196 117h2M199 117h1M201 117h1M206 117h1M214 117h1M218 117h2M231 117h1M246 117h1M266 117h1M271 117h1M274 117h1M291 117h1M304 117h1M316 117h1M326 117h1M344 117h1M364 117h1M366 117h1M374 117h1M394 117h1M416 117h1M419 117h1M421 117h1M426 117h1M434 117h1M441 117h1M451 117h1M454 117h1M466 117h1M497 117h1M501 117h1M506 117h1M509 117h1M521 117h1M551 117h1M554 117h1M560 117h3M621 117h1M624 117h1M627 117h1M641 117h1M644 117h1M654 117h1M699 117h1M707 117h1M734 117h1M739 117h1M741 117h1M756 117h1M761 117h1M764 117h1M787 117h1M791 117h1" />
<path stroke="#335955" d="M689 117h2M170 118h1M688 118h2M170 119h1M568 119h2M165 120h1M169 120h2M166 121h2M97 122h2M268 122h1M277 122h1M428 122h1M434 122h2M454 122h1M456 122h3M469 122h1M590 122h1M631 122h1M681 122h5M211 123h1M238 123h1M398 123h1M400 123h1M451 123h1M586 123h5M630 123h2M723 123h2M96 124h1M114 124h1M185 124h2M199 124h6M212 124h1M284 124h2M303 124h2M309 124h1M314 124h2M326 124h1M352 124h1M357 124h1M359 124h1M384 124h4M397 124h3M406 124h3M451 124h1M724 124h3M25 125h1M92 125h5M114 125h2M134 125h1M143 125h3M153 125h1M183 125h3M204 125h1M244 125h2M288 125h4M452 125h2M501 125h2M505 125h1M517 125h1M520 125h1M563 125h4M665 125h2M703 125h2M789 125h2M22 126h4M44 126h3M61 126h3M84 126h3M134 126h3M146 126h2M152 126h2M166 126h1M245 126h2M323 126h3M328 126h1M330 126h1M377 126h3M427 126h2M434 126h1M442 126h4M484 126h2M490 126h1M492 126h1M520 126h1M523 126h1M531 126h1M621 126h4M666 126h1M702 126h4M763 126h3M790 126h4M22 127h1M86 127h1M136 127h1M266 127h2M276 127h3M295 127h1M424 127h7M483 127h1M659 127h4M706 127h1M743 127h3M765 127h3M770 127h2" />
<path stroke="rgba(147,187,194,0.44313725490196076)" d="M0 118h1M8 118h1M10 118h1M12 118h4M17 118h4M24 118h2M30 118h1M33 118h3M37 118h2M40 118h1M44 118h2M47 118h1M49 118h2M53 118h1M55 118h1M59 118h2M65 118h1M67 118h2M70 118h1M73 118h1M75 118h1M77 118h1M83 118h1M85 118h1M88 118h1M90 118h1M95 118h1M98 118h3M102 118h1M105 118h1M110 118h1M114 118h2M117 118h1M120 118h1M123 118h1M125 118h1M127 118h1M130 118h1M134 118h2M138 118h1M140 118h1M143 118h3M152 118h1M155 118h1M157 118h4M163 118h1M165 118h1M167 118h1M172 118h1M175 118h1M177 118h3M182 118h1M185 118h1M187 118h1M190 118h1M193 118h1M195 118h1M198 118h1M200 118h1M204 118h2M208 118h3M212 118h1M214 118h2M217 118h4M222 118h1M225 118h1M228 118h1M232 118h1M234 118h2M237 118h2M240 118h1M242 118h1M244 118h2M248 118h1M250 118h1M252 118h1M260 118h1M262 118h4M275 118h1M277 118h1M280 118h1M284 118h2M287 118h4M295 118h1M297 118h1M300 118h1M305 118h1M307 118h1M310 118h1M312 118h1M314 118h2M319 118h2M323 118h3M327 118h2M330 118h1M332 118h4M337 118h1M340 118h1M343 118h3M347 118h1M350 118h1M352 118h1M354 118h2M359 118h2M365 118h1M370 118h1M374 118h2M377 118h2M380 118h1M383 118h3M393 118h3M398 118h3M403 118h1M405 118h1M410 118h1M414 118h2M417 118h1M419 118h2M422 118h4M428 118h1M432 118h2M435 118h1M440 118h1M443 118h1M445 118h1M447 118h1M450 118h1M452 118h1M455 118h1M457 118h1M462 118h1M465 118h1M469 118h2M472 118h1M474 118h2M478 118h1M480 118h1M485 118h1M487 118h1M490 118h1M494 118h2M499 118h2M505 118h1M510 118h1M512 118h4M518 118h1M520 118h1M525 118h1M527 118h4M532 118h1M535 118h1M538 118h1M540 118h1M542 118h1M544 118h2M547 118h1M550 118h1M553 118h1M555 118h1M558 118h3M562 118h1M564 118h2M567 118h1M570 118h1M574 118h2M578 118h1M582 118h4M588 118h3M592 118h1M595 118h1M600 118h1M603 118h1M609 118h2M613 118h1M615 118h1M617 118h2M620 118h1M623 118h3M627 118h1M629 118h2M633 118h1M635 118h1M639 118h2M643 118h1M645 118h1M648 118h3M652 118h1M655 118h1M657 118h1M660 118h1M664 118h2M667 118h4M672 118h2M675 118h1M677 118h4M682 118h1M684 118h2M690 118h1M693 118h3M697 118h2M700 118h1M702 118h1M704 118h2M707 118h4M713 118h3M717 118h2M720 118h1M722 118h1M725 118h1M727 118h1M729 118h2M732 118h1M735 118h1M738 118h1M740 118h1M743 118h2M748 118h1M755 118h1M760 118h1M763 118h1M765 118h1M767 118h1M770 118h1M772 118h1M774 118h2M777 118h4M782 118h4M787 118h4M793 118h1M795 118h1" />
<path stroke="rgba(148,188,195,0.4470588235294118)" d="M1 118h7M9 118h1M11 118h1M16 118h1M21 118h3M26 118h4M31 118h2M36 118h1M39 118h1M41 118h3M46 118h1M48 118h1M51 118h2M54 118h1M56 118h3M61 118h4M66 118h1M69 118h1M71 118h2M74 118h1M76 118h1M78 118h5M84 118h1M87 118h1M91 118h2M94 118h1M96 118h2M101 118h1M103 118h2M106 118h4M111 118h3M116 118h1M118 118h2M121 118h2M124 118h1M128 118h2M131 118h3M136 118h2M139 118h1M141 118h2M146 118h6M153 118h2M156 118h1M161 118h2M164 118h1M166 118h1M168 118h2M171 118h1M173 118h2M180 118h2M183 118h2M186 118h1M188 118h2M191 118h2M194 118h1M196 118h2M199 118h1M201 118h3M206 118h2M211 118h1M213 118h1M216 118h1M221 118h1M223 118h2M226 118h2M229 118h3M233 118h1M239 118h1M241 118h1M243 118h1M246 118h2M249 118h1M251 118h1M253 118h7M261 118h1M266 118h4M272 118h1M274 118h1M276 118h1M278 118h2M281 118h3M286 118h1M291 118h4M296 118h1M298 118h2M301 118h4M306 118h1M313 118h1M316 118h3M321 118h2M326 118h1M329 118h1M331 118h1M336 118h1M338 118h2M341 118h2M348 118h2M353 118h1M356 118h3M361 118h4M366 118h4M372 118h2M376 118h1M379 118h1M381 118h2M386 118h3M391 118h2M396 118h2M401 118h2M404 118h1M406 118h4M411 118h3M416 118h1M418 118h1M421 118h1M426 118h2M431 118h1M434 118h1M436 118h4M441 118h2M444 118h1M446 118h1M448 118h2M453 118h2M458 118h2M463 118h2M466 118h3M471 118h1M473 118h1M476 118h2M479 118h1M481 118h4M486 118h1M488 118h2M491 118h3M496 118h3M501 118h4M506 118h3M511 118h1M517 118h1M519 118h1M521 118h4M526 118h1M531 118h1M533 118h2M536 118h2M539 118h1M541 118h1M543 118h1M546 118h1M548 118h2M551 118h2M554 118h1M556 118h2M561 118h1M563 118h1M566 118h1M568 118h2M571 118h3M576 118h2M579 118h3M586 118h1M591 118h1M593 118h2M596 118h4M601 118h2M604 118h5M611 118h2M614 118h1M616 118h1M619 118h1M621 118h2M626 118h1M628 118h1M631 118h2M634 118h1M636 118h3M641 118h2M644 118h1M646 118h2M651 118h1M653 118h2M656 118h1M658 118h2M661 118h3M666 118h1M671 118h1M674 118h1M676 118h1M681 118h1M683 118h1M686 118h2M691 118h2M696 118h1M699 118h1M701 118h1M703 118h1M706 118h1M711 118h2M716 118h1M719 118h1M721 118h1M723 118h2M726 118h1M728 118h1M733 118h2M736 118h2M739 118h1M741 118h2M745 118h3M749 118h6M756 118h4M761 118h2M764 118h1M766 118h1M768 118h2M771 118h1M773 118h1M776 118h1M781 118h1M786 118h1M791 118h2M794 118h1M796 118h2" />
<path stroke="rgba(146,188,195,0.45098039215686275)" d="M86 118h1M126 118h1M176 118h1M236 118h1M311 118h1M346 118h1M351 118h1M371 118h1M451 118h1M456 118h1M509 118h1M516 118h1M731 118h1" />
<path stroke="rgba(147,189,195,0.4823529411764706)" d="M0 119h1M2 119h1M4 119h2M7 119h1M9 119h2M12 119h1M14 119h2M17 119h4M22 119h1M24 119h2M27 119h1M29 119h2M32 119h1M34 119h2M37 119h1M39 119h2M42 119h1M44 119h2M47 119h1M49 119h2M52 119h1M54 119h2M57 119h1M59 119h2M62 119h1M64 119h2M67 119h1M69 119h2M72 119h1M74 119h2M77 119h1M79 119h2M82 119h1M84 119h2M87 119h1M94 119h2M97 119h1M99 119h4M104 119h2M107 119h1M109 119h2M112 119h1M114 119h2M117 119h1M119 119h2M122 119h1M124 119h2M127 119h1M129 119h2M132 119h1M134 119h2M137 119h1M139 119h2M142 119h1M144 119h2M147 119h1M149 119h2M152 119h1M154 119h2M157 119h1M159 119h2M162 119h1M164 119h2M167 119h1M172 119h1M174 119h2M177 119h1M179 119h2M182 119h1M184 119h2M187 119h1M189 119h2M192 119h1M194 119h2M197 119h1M199 119h2M202 119h4M207 119h1M209 119h2M212 119h1M214 119h2M217 119h1M219 119h2M222 119h1M224 119h2M227 119h1M229 119h2M232 119h1M234 119h2M237 119h1M239 119h4M244 119h2M247 119h1M249 119h2M252 119h1M254 119h2M257 119h1M259 119h4M264 119h2M267 119h1M269 119h2M274 119h4M279 119h2M282 119h1M284 119h2M287 119h1M289 119h2M292 119h1M294 119h2M297 119h1M299 119h2M302 119h1M304 119h2M309 119h2M312 119h1M314 119h2M317 119h1M319 119h2M322 119h1M324 119h4M329 119h2M332 119h1M334 119h2M337 119h1M339 119h2M342 119h1M344 119h2M347 119h1M349 119h2M352 119h1M354 119h2M357 119h1M359 119h2M362 119h1M364 119h2M367 119h1M369 119h2M372 119h1M374 119h4M379 119h2M382 119h1M384 119h2M387 119h1M389 119h1M392 119h1M394 119h2M397 119h1M399 119h2M402 119h1M404 119h2M407 119h4M412 119h1M414 119h2M417 119h1M419 119h2M422 119h1M424 119h2M427 119h1M429 119h1M432 119h1M434 119h2M437 119h1M439 119h2M442 119h1M444 119h2M447 119h1M449 119h2M452 119h1M454 119h2M457 119h1M459 119h2M462 119h1M464 119h2M469 119h2M472 119h1M474 119h2M477 119h1M479 119h2M482 119h1M484 119h2M487 119h1M489 119h2M492 119h1M494 119h2M497 119h1M499 119h2M502 119h1M504 119h2M507 119h1M509 119h2M512 119h1M514 119h2M517 119h1M519 119h2M522 119h1M524 119h2M527 119h1M532 119h1M534 119h2M537 119h1M539 119h2M542 119h1M544 119h2M547 119h1M549 119h2M552 119h1M555 119h1M557 119h1M559 119h2M562 119h1M564 119h2M570 119h1M572 119h1M574 119h2M577 119h1M579 119h2M582 119h1M584 119h2M587 119h1M590 119h1M592 119h1M594 119h2M597 119h1M599 119h2M602 119h1M604 119h2M607 119h1M609 119h2M612 119h1M614 119h2M617 119h1M619 119h2M622 119h1M624 119h2M627 119h1M629 119h2M632 119h1M634 119h2M637 119h1M639 119h2M642 119h1M644 119h2M647 119h1M649 119h2M652 119h1M654 119h2M657 119h1M659 119h2M662 119h1M664 119h2M667 119h1M669 119h2M672 119h1M674 119h2M677 119h1M679 119h2M682 119h1M684 119h2M687 119h1M689 119h2M692 119h1M694 119h2M697 119h1M699 119h2M702 119h1M704 119h2M707 119h1M709 119h2M712 119h1M714 119h2M717 119h1M719 119h2M722 119h1M724 119h2M727 119h4M732 119h1M734 119h2M737 119h1M739 119h4M744 119h2M747 119h1M749 119h2M752 119h1M754 119h2M757 119h1M759 119h2M762 119h1M764 119h4M769 119h2M772 119h1M774 119h2M777 119h1M779 119h2M782 119h1M784 119h2M787 119h1M789 119h2M792 119h1M794 119h2M797 119h1" />
<path stroke="rgba(146,188,194,0.47843137254901963)" d="M1 119h1M3 119h1M6 119h1M8 119h1M11 119h1M13 119h1M16 119h1M21 119h1M23 119h1M26 119h1M28 119h1M31 119h1M33 119h1M36 119h1M38 119h1M41 119h1M43 119h1M46 119h1M48 119h1M51 119h1M53 119h1M56 119h1M58 119h1M61 119h1M63 119h1M66 119h1M68 119h1M71 119h1M73 119h1M76 119h1M78 119h1M81 119h1M83 119h1M86 119h1M88 119h1M91 119h1M93 119h1M96 119h1M98 119h1M103 119h1M106 119h1M108 119h1M111 119h1M113 119h1M116 119h1M118 119h1M121 119h1M123 119h1M126 119h1M128 119h1M131 119h1M133 119h1M136 119h1M138 119h1M141 119h1M143 119h1M146 119h1M148 119h1M151 119h1M153 119h1M156 119h1M158 119h1M161 119h1M163 119h1M166 119h1M168 119h1M171 119h1M173 119h1M176 119h1M178 119h1M181 119h1M183 119h1M186 119h1M188 119h1M191 119h1M193 119h1M196 119h1M198 119h1M201 119h1M206 119h1M208 119h1M211 119h1M213 119h1M216 119h1M218 119h1M221 119h1M223 119h1M226 119h1M228 119h1M231 119h1M233 119h1M236 119h1M238 119h1M243 119h1M246 119h1M248 119h1M251 119h1M253 119h1M256 119h1M258 119h1M263 119h1M266 119h1M268 119h1M273 119h1M278 119h1M281 119h1M283 119h1M286 119h1M288 119h1M291 119h1M293 119h1M296 119h1M298 119h1M301 119h1M303 119h1M306 119h1M311 119h1M313 119h1M316 119h1M318 119h1M321 119h1M323 119h1M328 119h1M331 119h1M333 119h1M336 119h1M338 119h1M341 119h1M343 119h1M346 119h1M348 119h1M351 119h1M353 119h1M356 119h1M358 119h1M361 119h1M363 119h1M366 119h1M368 119h1M371 119h1M373 119h1M378 119h1M381 119h1M383 119h1M386 119h1M388 119h1M393 119h1M396 119h1M398 119h1M401 119h1M403 119h1M406 119h1M411 119h1M413 119h1M416 119h1M418 119h1M421 119h1M423 119h1M426 119h1M428 119h1M431 119h1M433 119h1M436 119h1M438 119h1M441 119h1M443 119h1M446 119h1M448 119h1M451 119h1M453 119h1M456 119h1M458 119h1M463 119h1M466 119h1M471 119h1M473 119h1M476 119h1M478 119h1M481 119h1M483 119h1M486 119h1M488 119h1M491 119h1M493 119h1M496 119h1M498 119h1M501 119h1M503 119h1M506 119h1M508 119h1M511 119h1M513 119h1M516 119h1M518 119h1M521 119h1M523 119h1M526 119h1M528 119h1M531 119h1M533 119h1M536 119h1M538 119h1M541 119h1M543 119h1M546 119h1M548 119h1M551 119h1M553 119h1M556 119h1M558 119h1M561 119h1M563 119h1M566 119h1M571 119h1M573 119h1M576 119h1M578 119h1M581 119h1M583 119h1M586 119h1M591 119h1M593 119h1M596 119h1M598 119h1M601 119h1M603 119h1M606 119h1M608 119h1M611 119h1M613 119h1M616 119h1M618 119h1M621 119h1M623 119h1M626 119h1M628 119h1M631 119h1M633 119h1M636 119h1M638 119h1M641 119h1M643 119h1M646 119h1M648 119h1M651 119h1M653 119h1M656 119h1M658 119h1M661 119h1M663 119h1M666 119h1M668 119h1M671 119h1M673 119h1M676 119h1M678 119h1M681 119h1M686 119h1M691 119h1M693 119h1M696 119h1M698 119h1M701 119h1M703 119h1M706 119h1M708 119h1M711 119h1M713 119h1M716 119h1M718 119h1M721 119h1M723 119h1M726 119h1M731 119h1M733 119h1M736 119h1M738 119h1M743 119h1M746 119h1M748 119h1M751 119h1M753 119h1M756 119h1M758 119h1M761 119h1M763 119h1M768 119h1M771 119h1M773 119h1M776 119h1M778 119h1M781 119h1M783 119h1M786 119h1M788 119h1M791 119h1M793 119h1M796 119h1" />
<path stroke="rgba(147,188,196,0.49019607843137253)" d="M0 120h91M93 120h72M166 120h2M171 120h33M205 120h67M274 120h33M308 120h83M392 120h39M432 120h29M462 120h4M468 120h60M529 120h1M531 120h23M556 120h8M567 120h23M591 120h93M686 120h1M688 120h110M0 121h64M65 121h27M93 121h73M168 121h37M206 121h67M274 121h31M306 121h1M308 121h84M393 121h11M405 121h25M434 121h27M467 121h60M528 121h28M558 121h5M564 121h27M593 121h2M601 121h84M688 121h110M0 122h37M39 122h21M62 122h1M65 122h24M100 122h67M168 122h12M182 122h23M206 122h32M239 122h29M280 122h8M289 122h17M308 122h48M357 122h36M394 122h7M402 122h1M404 122h24M436 122h18M472 122h54M527 122h30M559 122h2M563 122h27M591 122h2M596 122h4M602 122h28M632 122h49M695 122h103" />
<path stroke="#405669" d="M0 123h31M32 123h7M40 123h21M63 123h44M113 123h13M130 123h15M148 123h7M157 123h1M163 123h5M169 123h12M183 123h22M206 123h4M212 123h26M240 123h46M290 123h17M309 123h47M357 123h36M394 123h4M399 123h1M0 124h16M19 124h5M31 124h9M41 124h2M55 124h7M64 124h2M68 124h9M82 124h14M97 124h3M103 124h9M115 124h15M133 124h4M140 124h3M146 124h8M156 124h1M159 124h9M170 124h13M188 124h11M217 124h21M239 124h3M249 124h24M276 124h8M289 124h14M319 124h7M327 124h25M360 124h18M379 124h5M0 125h6M12 125h7M21 125h4M26 125h1M29 125h5M35 125h2M39 125h2M43 125h21M70 125h9M85 125h1M91 125h1M101 125h8M113 125h1M116 125h10M127 125h6M135 125h4M149 125h4M155 125h4M161 125h6M170 125h1M173 125h7M186 125h2M191 125h11M206 125h11M219 125h15M246 125h12M263 125h7M273 125h6M292 125h10M305 125h3M314 125h5M321 125h1M323 125h2M327 125h7M337 125h4M349 125h8M358 125h10M371 125h7M380 125h3M386 125h8M395 125h6M0 126h11M13 126h1M19 126h1M26 126h5M34 126h5M47 126h6M59 126h2M64 126h1M68 126h16M87 126h4M100 126h13M120 126h6M128 126h6M137 126h9M148 126h4M154 126h3M160 126h5M168 126h2M172 126h1M185 126h5M193 126h45M243 126h2M247 126h8M259 126h7M271 126h1M274 126h14M290 126h9M303 126h1M308 126h14M331 126h3M335 126h23M360 126h11M376 126h1M380 126h6M396 126h4M0 127h12M15 127h4M21 127h1M24 127h3M31 127h30M65 127h21M87 127h8M96 127h40M137 127h17M158 127h20M182 127h11M195 127h34M230 127h25M256 127h10M279 127h10M293 127h2M296 127h3M304 127h26M334 127h18M354 127h5M361 127h37" />
<path stroke="#35414a" d="M31 123h1M145 123h3M24 124h7M43 124h12M77 124h5M137 124h3M143 124h3M211 124h1M213 124h4M242 124h7M273 124h3M316 124h3M6 125h6M27 125h2M34 125h1M67 125h3M86 125h5M100 125h1M109 125h4M126 125h1M139 125h4M159 125h2M171 125h2M188 125h3M217 125h2M234 125h3M238 125h4M258 125h5M270 125h3M279 125h9M302 125h3M308 125h6M319 125h2M334 125h3M341 125h8M357 125h1M368 125h3M383 125h3M394 125h1M11 126h2M14 126h5M31 126h3M53 126h6M65 126h3M91 126h9M113 126h7M126 126h2M157 126h3M173 126h5M179 126h6M190 126h3M255 126h4M268 126h3M288 126h2M299 126h4M304 126h4M334 126h1M358 126h2M371 126h5M386 126h10M12 127h3M19 127h2M27 127h4M61 127h4M95 127h1M154 127h4M193 127h2M229 127h1M255 127h1M289 127h4M299 127h5M330 127h4M352 127h2M359 127h2" />
<path stroke="#485c70" d="M403 123h39M443 123h8M452 123h20M476 123h25M502 123h19M523 123h2M527 123h30M561 123h20M582 123h4M595 123h34M632 123h31M665 123h21M689 123h34M725 123h73M409 124h11M421 124h17M440 124h1M442 124h7M452 124h16M472 124h4M479 124h9M489 124h9M504 124h9M517 124h6M524 124h1M526 124h31M561 124h21M584 124h9M594 124h12M612 124h9M624 124h3M630 124h16M657 124h2M662 124h1M665 124h31M698 124h11M713 124h10M730 124h33M766 124h11M779 124h14M796 124h2M401 125h20M430 125h4M436 125h3M442 125h7M454 125h12M468 125h10M479 125h8M489 125h12M506 125h2M510 125h7M521 125h3M526 125h4M531 125h7M540 125h16M557 125h3M567 125h16M585 125h12M602 125h2M606 125h17M626 125h1M631 125h7M642 125h2M647 125h14M669 125h3M676 125h4M685 125h8M705 125h7M715 125h5M721 125h3M726 125h12M741 125h13M763 125h12M777 125h11M794 125h4M404 126h6M412 126h15M429 126h1M446 126h6M455 126h29M493 126h11M508 126h12M532 126h7M542 126h15M561 126h4M571 126h13M587 126h20M609 126h10M628 126h13M645 126h11M661 126h1M667 126h18M688 126h9M700 126h1M706 126h14M721 126h2M725 126h9M742 126h19M767 126h6M775 126h11M787 126h2M794 126h4M398 127h14M414 127h10M431 127h19M457 127h26M484 127h5M492 127h11M505 127h37M545 127h16M566 127h20M592 127h16M609 127h43M656 127h2M663 127h26M697 127h9M707 127h12M721 127h13M735 127h7M752 127h13M773 127h13M789 127h9" />
<path stroke="#434b56" d="M472 123h4M581 123h1M420 124h1M468 124h4M476 124h3M513 124h4M582 124h2M606 124h6M646 124h11M696 124h2M709 124h4M763 124h3M793 124h3M421 125h9M434 125h2M449 125h1M466 125h2M478 125h1M487 125h1M508 125h2M538 125h2M556 125h1M583 125h2M597 125h5M604 125h2M624 125h1M628 125h3M638 125h4M644 125h3M667 125h2M672 125h4M680 125h5M712 125h3M720 125h1M724 125h2M754 125h9M791 125h3M400 126h4M410 126h2M430 126h4M452 126h3M504 126h4M539 126h3M557 126h4M565 126h6M584 126h3M607 126h2M641 126h4M656 126h5M685 126h3M701 126h1M720 126h1M723 126h2M738 126h2M786 126h1M789 126h1M412 127h2M450 127h7M503 127h2M542 127h3M561 127h5M586 127h6M608 127h1M652 127h4M719 127h2M747 127h5M786 127h3" />
</svg>