<svg xmlns="http://www.w3.org/2000/svg" viewBox="0 -0.5 185 128" shape-rendering="crispEdges">
<metadata>Made with Pixels to Svg https://codepen.io/shshaw/pen/XbxvNj</metadata>
<path stroke="#14191a" d="M0 0h180M184 0h1M0 1h179M184 1h1M0 2h179M184 2h1M0 3h82M85 3h78M164 3h15M184 3h1M0 4h82M84 4h80M165 4h14M184 4h1M0 5h82M84 5h80M166 5h13M184 5h1M0 6h81M84 6h79M164 6h1M167 6h12M184 6h1M0 7h82M84 7h79M175 7h4M184 7h1M0 8h82M84 8h78M167 8h12M184 8h1M0 9h76M77 9h5M84 9h65M152 9h9M163 9h3M167 9h10M178 9h1M184 9h1M0 10h75M76 10h6M84 10h82M167 10h9M178 10h1M0 11h62M64 11h11M76 11h6M84 11h65M150 11h16M167 11h9M178 11h1M0 12h62M63 12h11M75 12h8M84 12h66M151 12h15M167 12h9M178 12h1M0 13h62M63 13h10M75 13h8M84 13h91M178 13h1M0 14h73M74 14h9M84 14h91M178 14h1M0 15h72M74 15h102M0 16h72M73 16h20M96 16h80M0 17h63M64 17h28M94 17h82M0 18h63M64 18h27M93 18h84M0 19h91M92 19h3M97 19h80M0 20h62M63 20h27M92 20h3M97 20h80M0 21h62M63 21h11M75 21h15M91 21h4M97 21h80M0 22h62M63 22h10M75 22h14M90 22h5M96 22h81M0 23h62M63 23h10M75 23h13M89 23h6M96 23h82M0 24h73M75 24h19M95 24h83M0 25h61M62 25h11M75 25h7M83 25h4M88 25h6M95 25h84M0 26h61M62 26h11M75 26h7M83 26h11M95 26h54M154 26h25M0 27h61M62 27h11M75 27h7M83 27h69M153 27h26M0 28h61M62 28h11M75 28h6M83 28h3M87 28h66M154 28h25M0 29h58M59 29h2M62 29h11M75 29h6M83 29h96M0 30h61M62 30h10M74 30h7M82 30h96M0 31h60M62 31h10M73 31h7M82 31h95M0 32h60M62 32h9M73 32h7M82 32h95M179 32h2M0 33h60M62 33h9M72 33h7M81 33h6M88 33h7M96 33h75M173 33h8M0 34h60M62 34h5M68 34h2M71 34h8M80 34h7M88 34h94M0 35h56M57 35h3M62 35h16M80 35h7M88 35h95M0 36h56M57 36h3M62 36h16M79 36h8M88 36h33M124 36h2M128 36h3M132 36h2M135 36h3M140 36h41M0 37h29M30 37h26M57 37h2M62 37h15M78 37h10M90 37h32M123 37h2M128 37h3M132 37h1M135 37h3M140 37h37M0 38h55M57 38h2M62 38h14M78 38h10M90 38h32M123 38h2M126 38h1M129 38h2M134 38h3M141 38h24M173 38h4M0 39h48M49 39h6M57 39h2M63 39h13M77 39h12M91 39h3M95 39h25M121 39h1M123 39h2M126 39h1M128 39h4M134 39h3M138 39h2M141 39h24M173 39h4M0 40h48M49 40h6M57 40h2M63 40h12M76 40h13M91 40h29M123 40h9M133 40h4M138 40h2M141 40h23M173 40h4M0 41h30M31 41h16M49 41h6M57 41h2M61 41h28M92 41h72M173 41h4M0 42h29M31 42h16M49 42h6M57 42h2M61 42h7M69 42h4M74 42h15M90 42h73M173 42h4M0 43h28M30 43h17M48 43h6M57 43h2M61 43h7M69 43h15M85 43h5M91 43h72M173 43h4M0 44h27M30 44h17M48 44h6M56 44h4M61 44h7M70 44h2M73 44h17M91 44h58M150 44h1M152 44h10M173 44h4M0 45h26M27 45h1M29 45h17M48 45h6M56 45h4M62 45h6M72 45h11M84 45h6M91 45h40M133 45h2M136 45h3M142 45h1M146 45h2M150 45h2M155 45h7M172 45h5M0 46h26M29 46h17M48 46h6M56 46h4M62 46h7M71 46h11M83 46h8M92 46h4M98 46h33M132 46h3M136 46h3M142 46h2M145 46h3M150 46h3M154 46h8M172 46h5M0 47h27M29 47h17M47 47h6M56 47h5M62 47h20M83 47h14M98 47h33M133 47h1M135 47h4M141 47h3M145 47h3M149 47h4M154 47h8M172 47h4M0 48h25M26 48h1M28 48h18M47 48h2M50 48h3M55 48h6M62 48h20M83 48h14M98 48h34M133 48h2M137 48h2M140 48h1M142 48h1M146 48h2M149 48h4M154 48h8M172 48h4M0 49h26M28 49h18M47 49h2M50 49h3M55 49h6M62 49h36M99 49h31M133 49h15M149 49h13M172 49h4M0 50h26M27 50h22M50 50h3M55 50h6M62 50h36M99 50h63M171 50h5M0 51h26M27 51h18M46 51h3M50 51h3M55 51h43M99 51h14M115 51h47M171 51h5M0 52h53M55 52h43M99 52h17M117 52h45M171 52h4M0 53h53M55 53h43M99 53h17M117 53h45M171 53h4M0 54h23M24 54h28M55 54h5M61 54h8M71 54h46M119 54h43M170 54h5M0 55h23M24 55h22M47 55h5M55 55h14M73 55h45M119 55h43M170 55h4M0 56h23M24 56h2M27 56h19M47 56h5M54 56h16M72 56h47M121 56h41M169 56h5M0 57h23M24 57h21M46 57h6M54 57h17M72 57h48M121 57h40M169 57h5M0 58h23M24 58h21M46 58h5M54 58h15M71 58h50M122 58h39M168 58h5M0 59h23M24 59h20M45 59h3M49 59h2M53 59h8M62 59h7M71 59h21M93 59h68M168 59h5M0 60h23M24 60h3M28 60h20M49 60h2M53 60h8M62 60h30M93 60h23M117 60h43M167 60h6M0 61h23M24 61h3M28 61h20M49 61h3M53 61h39M93 61h67M167 61h6M0 62h27M28 62h45M74 62h22M97 62h20M118 62h42M166 62h5M172 62h1M0 63h22M23 63h4M28 63h45M74 63h22M97 63h20M118 63h41M165 63h5M172 63h1M0 64h27M28 64h13M42 64h31M74 64h15M90 64h6M97 64h21M119 64h7M127 64h32M165 64h5M172 64h1M0 65h27M28 65h13M42 65h9M52 65h37M90 65h6M97 65h21M119 65h7M128 65h31M164 65h5M0 66h27M28 66h13M42 66h9M52 66h12M65 66h24M90 66h6M97 66h22M120 66h7M128 66h31M163 66h6M0 67h27M28 67h13M42 67h9M52 67h11M65 67h23M90 67h5M96 67h22M121 67h6M128 67h31M163 67h5M0 68h27M28 68h13M42 68h8M52 68h11M65 68h6M72 68h16M89 68h27M121 68h38M162 68h5M0 69h27M28 69h13M42 69h8M52 69h11M65 69h21M89 69h26M119 69h41M161 69h5M0 70h18M19 70h8M28 70h13M42 70h8M52 70h11M65 70h7M73 70h13M87 70h28M117 70h48M0 71h18M19 71h22M42 71h8M52 71h11M65 71h18M87 71h27M115 71h11M127 71h38M0 72h17M18 72h23M42 72h9M53 72h10M65 72h16M85 72h29M115 72h11M128 72h39M0 73h17M18 73h9M28 73h13M42 73h9M53 73h10M65 73h48M115 73h11M127 73h42M0 74h16M18 74h9M28 74h13M42 74h10M53 74h10M65 74h11M77 74h36M114 74h12M127 74h43M0 75h16M17 75h35M53 75h10M65 75h27M93 75h19M113 75h13M127 75h44M0 76h16M17 76h45M65 76h27M93 76h78M0 77h16M17 77h36M54 77h8M64 77h27M92 77h82M0 78h16M17 78h27M45 78h8M55 78h7M64 78h3M73 78h10M85 78h6M92 78h33M126 78h46M0 79h16M17 79h37M55 79h7M63 79h1M66 79h24M91 79h34M126 79h47M0 80h16M17 80h37M55 80h6M63 80h23M87 80h3M91 80h82M0 81h30M31 81h14M46 81h8M55 81h6M62 81h26M90 81h82M0 82h45M46 82h9M56 82h5M62 82h27M90 82h63M158 82h14M0 83h55M56 83h4M61 83h29M91 83h34M126 83h23M155 83h1M159 83h13M0 84h55M56 84h35M93 84h32M126 84h32M163 84h9M0 85h13M14 85h41M56 85h36M94 85h31M126 85h30M157 85h5M163 85h10M0 86h13M14 86h30M45 86h48M95 86h8M104 86h21M126 86h31M158 86h3M163 86h9M0 87h30M31 87h64M96 87h7M104 87h21M126 87h31M158 87h3M162 87h10M0 88h30M33 88h48M83 88h13M97 88h5M103 88h22M126 88h31M158 88h3M162 88h9M0 89h31M34 89h47M82 89h15M98 89h3M103 89h47M151 89h6M158 89h3M162 89h8M0 90h32M35 90h45M81 90h18M103 90h48M153 90h4M158 90h12M0 91h15M16 91h18M37 91h9M47 91h33M81 91h18M102 91h50M153 91h5M159 91h11M0 92h36M39 92h7M48 92h9M58 92h21M80 92h20M101 92h57M159 92h11M0 93h16M17 93h22M41 93h6M48 93h10M60 93h19M80 93h78M159 93h12M0 94h17M18 94h23M43 94h4M49 94h9M60 94h8M69 94h52M122 94h50M0 95h17M19 95h33M53 95h16M70 95h101M0 96h18M20 96h32M53 96h16M72 96h98M0 97h19M22 97h56M80 97h90M0 98h20M23 98h57M82 98h86M0 99h22M24 99h57M82 99h25M109 99h10M120 99h48M0 100h23M26 100h56M84 100h23M110 100h56M167 100h1M0 101h25M27 101h57M85 101h23M110 101h39M150 101h13M167 101h1M0 102h27M28 102h80M110 102h40M151 102h10M162 102h1M167 102h1M0 103h109M110 103h9M120 103h31M152 103h8M162 103h1M167 103h1M0 104h31M32 104h77M111 104h7M119 104h32M153 104h7M162 104h1M167 104h1M0 105h33M34 105h76M112 105h5M118 105h42M167 105h1M0 106h35M38 106h6M45 106h65M112 106h1M114 106h46M167 106h1M0 107h38M41 107h31M74 107h37M114 107h46M167 107h1M0 108h111M113 108h47M167 108h1M0 109h52M54 109h57M113 109h47M0 110h57M61 110h51M114 110h46M0 111h57M61 111h12M74 111h38M114 111h45M0 112h57M58 112h3M62 112h3M66 112h47M114 112h45M0 113h58M59 113h54M114 113h42M0 114h58M59 114h14M74 114h39M115 114h38M154 114h1M0 115h59M60 115h54M115 115h38M0 116h59M60 116h54M116 116h37M0 117h60M61 117h54M116 117h38M0 118h60M61 118h54M117 118h38M0 119h61M62 119h54M117 119h38M0 120h61M62 120h54M117 120h38M0 121h61M62 121h55M118 121h38M0 122h62M63 122h94M0 123h62M63 123h18M82 123h76M0 124h63M64 124h18M83 124h76M0 125h63M64 125h19M84 125h75M0 126h63M64 126h20M85 126h74M0 127h64M65 127h20M86 127h31M118 127h41" />
<path stroke="#162229" d="M82 3h3M163 3h1M82 4h2M164 4h1M82 5h2M164 5h2M81 6h3M163 6h1M165 6h2M82 7h2M163 7h12M82 8h2M162 8h5M76 9h1M82 9h2M149 9h3M161 9h2M166 9h1M75 10h1M82 10h2M166 10h1M62 11h2M75 11h1M82 11h2M149 11h1M166 11h1M62 12h1M74 12h1M83 12h1M150 12h1M166 12h1M62 13h1M73 13h2M83 13h1M73 14h1M83 14h1M72 15h2M72 16h1M93 16h3M63 17h1M92 17h2M63 18h1M91 18h2M91 19h1M95 19h2M62 20h1M90 20h2M95 20h2M62 21h1M74 21h1M90 21h1M95 21h2M62 22h1M73 22h2M89 22h1M95 22h1M62 23h1M73 23h2M88 23h1M95 23h1M73 24h2M94 24h1M61 25h1M73 25h2M82 25h1M87 25h1M94 25h1M61 26h1M73 26h2M82 26h1M94 26h1M149 26h5M61 27h1M73 27h2M82 27h1M152 27h1M61 28h1M73 28h2M81 28h2M86 28h1M153 28h1M58 29h1M61 29h1M73 29h2M81 29h2M61 30h1M72 30h2M81 30h1M60 31h2M72 31h1M80 31h2M60 32h2M71 32h2M80 32h2M60 33h2M71 33h1M79 33h2M87 33h1M95 33h1M60 34h2M67 34h1M70 34h1M79 34h1M87 34h1M56 35h1M60 35h2M78 35h2M87 35h1M56 36h1M60 36h2M78 36h1M87 36h1M121 36h3M126 36h2M131 36h1M134 36h1M138 36h2M29 37h1M56 37h1M59 37h3M77 37h1M88 37h2M122 37h1M125 37h3M131 37h1M133 37h2M138 37h2M55 38h2M59 38h3M76 38h2M88 38h2M122 38h1M125 38h1M127 38h2M131 38h3M137 38h4M48 39h1M55 39h2M59 39h4M76 39h1M89 39h2M94 39h1M120 39h1M122 39h1M125 39h1M127 39h1M132 39h2M137 39h1M140 39h1M48 40h1M55 40h2M59 40h4M75 40h1M89 40h2M120 40h3M132 40h1M137 40h1M140 40h1M30 41h1M47 41h2M55 41h2M59 41h2M89 41h3M29 42h2M47 42h2M55 42h2M59 42h2M68 42h1M73 42h1M89 42h1M28 43h2M47 43h1M54 43h3M59 43h2M68 43h1M84 43h1M90 43h1M27 44h3M47 44h1M54 44h2M60 44h1M68 44h2M72 44h1M90 44h1M149 44h1M151 44h1M26 45h1M28 45h1M46 45h2M54 45h2M60 45h2M68 45h4M83 45h1M90 45h1M131 45h2M135 45h1M139 45h3M143 45h3M148 45h2M152 45h3M26 46h3M46 46h2M54 46h2M60 46h2M69 46h2M82 46h1M91 46h1M96 46h2M131 46h1M135 46h1M139 46h3M144 46h1M148 46h2M153 46h1M27 47h2M46 47h1M53 47h3M61 47h1M82 47h1M97 47h1M131 47h2M134 47h1M139 47h2M144 47h1M148 47h1M153 47h1M25 48h1M27 48h1M46 48h1M49 48h1M53 48h2M61 48h1M82 48h1M97 48h1M132 48h1M135 48h2M139 48h1M141 48h1M143 48h3M148 48h1M153 48h1M26 49h2M46 49h1M49 49h1M53 49h2M61 49h1M98 49h1M130 49h3M148 49h1M26 50h1M49 50h1M53 50h2M61 50h1M98 50h1M26 51h1M45 51h1M49 51h1M53 51h2M98 51h1M113 51h2M53 52h2M98 52h1M116 52h1M53 53h2M98 53h1M116 53h1M23 54h1M52 54h3M60 54h1M69 54h2M117 54h2M23 55h1M46 55h1M52 55h3M69 55h4M118 55h1M23 56h1M26 56h1M46 56h1M52 56h2M70 56h2M119 56h2M23 57h1M45 57h1M52 57h2M71 57h1M120 57h1M23 58h1M45 58h1M51 58h3M69 58h2M121 58h1M23 59h1M44 59h1M48 59h1M51 59h2M61 59h1M69 59h2M92 59h1M23 60h1M27 60h1M48 60h1M51 60h2M61 60h1M92 60h1M116 60h1M23 61h1M27 61h1M48 61h1M52 61h1M92 61h1M27 62h1M73 62h1M96 62h1M117 62h1M22 63h1M27 63h1M73 63h1M96 63h1M117 63h1M27 64h1M41 64h1M73 64h1M89 64h1M96 64h1M118 64h1M126 64h1M27 65h1M41 65h1M51 65h1M89 65h1M96 65h1M118 65h1M126 65h2M27 66h1M41 66h1M51 66h1M64 66h1M89 66h1M96 66h1M119 66h1M127 66h1M27 67h1M41 67h1M51 67h1M63 67h2M88 67h2M95 67h1M118 67h3M127 67h1M27 68h1M41 68h1M50 68h2M63 68h2M71 68h1M88 68h1M116 68h5M27 69h1M41 69h1M50 69h2M63 69h2M86 69h3M115 69h4M18 70h1M27 70h1M41 70h1M50 70h2M63 70h2M72 70h1M86 70h1M115 70h2M18 71h1M41 71h1M50 71h2M63 71h2M83 71h4M114 71h1M126 71h1M17 72h1M41 72h1M51 72h2M63 72h2M81 72h4M114 72h1M126 72h2M17 73h1M27 73h1M41 73h1M51 73h2M63 73h2M113 73h2M126 73h1M16 74h2M27 74h1M41 74h1M52 74h1M63 74h2M76 74h1M113 74h1M126 74h1M16 75h1M52 75h1M63 75h2M92 75h1M112 75h1M126 75h1M16 76h1M62 76h3M92 76h1M16 77h1M53 77h1M62 77h2M91 77h1M16 78h1M44 78h1M53 78h2M62 78h2M67 78h6M83 78h2M91 78h1M125 78h1M16 79h1M54 79h1M62 79h1M64 79h2M90 79h1M125 79h1M16 80h1M54 80h1M61 80h2M86 80h1M90 80h1M30 81h1M45 81h1M54 81h1M61 81h1M88 81h2M45 82h1M55 82h1M61 82h1M89 82h1M153 82h5M55 83h1M60 83h1M90 83h1M125 83h1M149 83h6M156 83h3M55 84h1M91 84h2M125 84h1M158 84h5M13 85h1M55 85h1M92 85h2M125 85h1M156 85h1M162 85h1M13 86h1M44 86h1M93 86h2M103 86h1M125 86h1M157 86h1M161 86h2M30 87h1M95 87h1M103 87h1M125 87h1M157 87h1M161 87h1M30 88h3M81 88h2M96 88h1M102 88h1M125 88h1M157 88h1M161 88h1M31 89h3M81 89h1M97 89h1M101 89h2M150 89h1M157 89h1M161 89h1M32 90h3M80 90h1M99 90h4M151 90h2M157 90h1M15 91h1M34 91h3M46 91h1M80 91h1M99 91h3M152 91h1M158 91h1M36 92h3M46 92h2M57 92h1M79 92h1M100 92h1M158 92h1M16 93h1M39 93h2M47 93h1M58 93h2M79 93h1M158 93h1M17 94h1M41 94h2M47 94h2M58 94h2M68 94h1M121 94h1M17 95h2M52 95h1M69 95h1M18 96h2M52 96h1M69 96h3M19 97h3M78 97h2M20 98h3M80 98h2M22 99h2M81 99h1M107 99h2M119 99h1M23 100h3M82 100h2M107 100h3M25 101h2M84 101h1M108 101h2M149 101h1M27 102h1M108 102h2M150 102h1M109 103h1M119 103h1M151 103h1M31 104h1M109 104h2M118 104h1M151 104h2M33 105h1M110 105h2M117 105h1M35 106h3M44 106h1M110 106h2M113 106h1M38 107h3M72 107h2M111 107h3M111 108h2M52 109h2M111 109h2M57 110h4M112 110h2M57 111h4M73 111h1M112 111h2M57 112h1M61 112h1M65 112h1M113 112h1M58 113h1M113 113h1M58 114h1M73 114h1M113 114h2M59 115h1M114 115h1M59 116h1M114 116h2M60 117h1M115 117h1M60 118h1M115 118h2M61 119h1M116 119h1M61 120h1M116 120h1M61 121h1M117 121h1M62 122h1M62 123h1M81 123h1M63 124h1M82 124h1M63 125h1M83 125h1M63 126h1M84 126h1M64 127h1M85 127h1M117 127h1" />
</svg>