<svg xmlns="http://www.w3.org/2000/svg" viewBox="0 -0.5 150 123" shape-rendering="crispEdges">
<metadata>Made with Pixels to Svg https://codepen.io/shshaw/pen/XbxvNj</metadata>
<path stroke="rgba(128,128,128,0.00784313725490196)" d="M31 0h1M130 0h1M130 1h1M31 2h1M40 3h1M102 4h1" />
<path stroke="rgba(85,85,85,0.011764705882352941)" d="M31 1h1M31 3h1M102 3h1M130 3h1M40 4h1" />
<path stroke="rgba(0,0,0,0.00392156862745098)" d="M40 1h1M102 1h1M40 2h1M102 2h1M130 2h1" />
<path stroke="rgba(64,128,128,0.01568627450980392)" d="M31 4h1M130 4h1M102 5h1" />
<path stroke="rgba(85,128,128,0.023529411764705882)" d="M31 5h1M130 5h1" />
<path stroke="rgba(102,102,102,0.0196078431372549)" d="M40 5h1" />
<path stroke="rgba(73,109,109,0.027450980392156862)" d="M31 6h1M102 6h1" />
<path stroke="rgba(96,96,128,0.03137254901960784)" d="M40 6h1M130 6h1" />
<path stroke="rgba(85,106,128,0.047058823529411764)" d="M31 7h1" />
<path stroke="rgba(102,102,128,0.0392156862745098)" d="M40 7h1" />
<path stroke="rgba(93,116,116,0.043137254901960784)" d="M102 7h1M130 7h1" />
<path stroke="rgba(85,119,119,0.058823529411764705)" d="M31 8h1M102 8h1" />
<path stroke="rgba(91,109,128,0.054901960784313725)" d="M40 8h1M130 8h1" />
<path stroke="rgba(89,115,115,0.0784313725490196)" d="M31 9h1M40 9h1M102 9h1M129 9h1" />
<path stroke="rgba(94,113,123,0.10588235294117647)" d="M31 10h1" />
<path stroke="rgba(88,108,118,0.10196078431372549)" d="M40 10h1M102 10h1M129 10h1" />
<path stroke="rgba(90,113,120,0.13333333333333333)" d="M31 11h1M40 11h1M129 11h1" />
<path stroke="rgba(87,109,124,0.13725490196078433)" d="M102 11h1" />
<path stroke="rgba(93,110,122,0.17254901960784313)" d="M31 12h1M102 12h1" />
<path stroke="rgba(89,113,119,0.16862745098039217)" d="M41 12h1" />
<path stroke="rgba(91,109,121,0.16470588235294117)" d="M129 12h1" />
<path stroke="rgba(88,113,123,0.20392156862745098)" d="M31 13h1M129 13h1" />
<path stroke="rgba(91,111,120,0.20784313725490197)" d="M41 13h1" />
<path stroke="rgba(90,113,123,0.21176470588235294)" d="M102 13h1" />
<path stroke="rgba(90,111,119,0.24313725490196078)" d="M31 14h1" />
<path stroke="rgba(89,109,121,0.24705882352941178)" d="M41 14h1M102 14h1" />
<path stroke="rgba(92,112,120,0.25098039215686274)" d="M129 14h1" />
<path stroke="rgba(88,112,122,0.29411764705882354)" d="M31 15h1" />
<path stroke="rgba(89,113,123,0.30196078431372547)" d="M41 15h1M102 15h1" />
<path stroke="rgba(92,111,121,0.3058823529411765)" d="M129 15h1" />
<path stroke="rgba(89,112,120,0.34901960784313724)" d="M31 16h1M41 16h1M102 16h1" />
<path stroke="rgba(90,112,120,0.3568627450980392)" d="M129 16h1" />
<path stroke="rgba(89,111,121,0.403921568627451)" d="M31 17h1M41 17h1" />
<path stroke="rgba(91,110,120,0.40784313725490196)" d="M102 17h1" />
<path stroke="rgba(90,110,120,0.4)" d="M129 17h1" />
<path stroke="rgba(90,111,120,0.4666666666666667)" d="M31 18h1" />
<path stroke="rgba(91,110,121,0.4627450980392157)" d="M41 18h1M102 18h1M129 18h1" />
<path stroke="rgba(90,112,122,0.5098039215686274)" d="M31 19h1M102 19h1" />
<path stroke="rgba(91,110,122,0.5176470588235295)" d="M41 19h1M129 19h1" />
<path stroke="rgba(91,112,121,0.5725490196078431)" d="M31 20h1" />
<path stroke="rgba(90,111,121,0.5686274509803921)" d="M41 20h1" />
<path stroke="rgba(90,112,120,0.5647058823529412)" d="M102 20h1M129 20h1" />
<path stroke="rgba(90,111,120,0.6235294117647059)" d="M31 21h1M129 21h1" />
<path stroke="rgba(90,111,121,0.6196078431372549)" d="M41 21h1" />
<path stroke="rgba(89,110,120,0.615686274509804)" d="M102 21h1" />
<path stroke="rgba(90,111,121,0.6666666666666666)" d="M31 22h1" />
<path stroke="rgba(90,111,122,0.6745098039215687)" d="M41 22h1M102 22h1" />
<path stroke="rgba(89,110,121,0.6705882352941176)" d="M129 22h1" />
<path stroke="rgba(91,111,121,0.7176470588235294)" d="M31 23h1M41 23h1M102 23h1M129 23h1" />
<path stroke="rgba(89,110,121,0.7607843137254902)" d="M31 24h1" />
<path stroke="rgba(90,111,122,0.7647058823529411)" d="M41 24h1" />
<path stroke="rgba(90,111,122,0.7568627450980392)" d="M102 24h1M129 24h1" />
<path stroke="rgba(90,111,121,0.8)" d="M31 25h1M102 25h1M129 25h1" />
<path stroke="rgba(90,111,121,0.796078431372549)" d="M41 25h1" />
<path stroke="rgba(90,111,121,0.8352941176470589)" d="M31 26h1M129 26h1" />
<path stroke="rgba(91,111,122,0.8392156862745098)" d="M41 26h1M102 26h1" />
<path stroke="rgba(90,111,121,0.8705882352941177)" d="M31 27h1" />
<path stroke="rgba(90,111,121,0.8588235294117647)" d="M41 27h1M102 27h1" />
<path stroke="rgba(90,111,121,0.8666666666666667)" d="M129 27h1" />
<path stroke="rgba(89,111,121,0.8941176470588236)" d="M31 28h1M102 28h1" />
<path stroke="rgba(90,112,121,0.8784313725490196)" d="M41 28h1" />
<path stroke="rgba(90,111,121,0.8901960784313725)" d="M129 28h1" />
<path stroke="rgba(90,111,121,0.9176470588235294)" d="M31 29h1M41 29h1M129 29h1" />
<path stroke="rgba(90,111,121,0.9137254901960784)" d="M102 29h1" />
<path stroke="rgba(90,111,121,0.9294117647058824)" d="M31 30h1M42 30h1" />
<path stroke="rgba(90,111,121,0.9372549019607843)" d="M102 30h1" />
<path stroke="rgba(90,111,121,0.9333333333333333)" d="M128 30h1" />
<path stroke="rgba(90,111,121,0.9450980392156862)" d="M31 31h1" />
<path stroke="rgba(90,111,121,0.9529411764705882)" d="M42 31h1M128 31h1" />
<path stroke="rgba(90,111,121,0.9490196078431372)" d="M102 31h1" />
<path stroke="rgba(90,111,121,0.9568627450980393)" d="M31 32h1M102 32h1M128 32h1" />
<path stroke="rgba(90,111,121,0.9607843137254902)" d="M42 32h1" />
<path stroke="rgba(90,111,121,0.9686274509803922)" d="M31 33h1M102 33h1" />
<path stroke="rgba(90,111,121,0.9725490196078431)" d="M42 33h1" />
<path stroke="rgba(90,111,121,0.9647058823529412)" d="M128 33h1" />
<path stroke="rgba(90,111,121,0.9764705882352941)" d="M31 34h1M42 34h1M102 34h1" />
<path stroke="rgba(90,111,121,0.9803921568627451)" d="M128 34h1" />
<path stroke="rgba(90,111,121,0.9882352941176471)" d="M31 35h1M42 35h1M42 36h1" />
<path stroke="rgba(90,111,121,0.984313725490196)" d="M102 35h1M128 35h1" />
<path stroke="rgba(90,111,121,0.9921568627450981)" d="M31 36h1M102 36h1M128 36h1M31 37h1M42 37h1" />
<path stroke="rgba(90,111,121,0.996078431372549)" d="M102 37h1M128 37h1M42 38h1M102 38h1M128 38h1M42 39h1" />
<path stroke="#5a6f79" d="M31 38h1M31 39h1M102 39h1M128 39h1M31 40h1M42 40h1M102 40h1M128 40h1M31 41h1M42 41h1M102 41h1M128 41h1M31 42h1M42 42h1M102 42h1M128 42h1M31 43h1M42 43h1M102 43h1M128 43h1M31 44h1M42 44h1M102 44h1M128 44h1M31 45h1M42 45h1M102 45h1M128 45h1M31 46h1M42 46h1M102 46h1M128 46h1M31 47h1M42 47h1M102 47h1M128 47h1M31 48h1M42 48h1M102 48h1M128 48h1M31 49h1M42 49h2M102 49h1M127 49h1M31 50h1M43 50h1M127 50h1M31 51h1M43 51h1M127 51h1M31 52h1M43 52h1M127 52h1M31 53h1M43 53h1M126 53h1M31 54h1M43 54h1M126 54h1M31 55h1M43 55h1M126 55h1M31 56h1M43 56h2M125 56h1M31 57h1M44 57h1M125 57h1M31 58h1M44 58h1M124 58h2M31 59h1M44 59h1M124 59h1M31 60h1M44 60h1M124 60h1M31 61h1M44 61h2M123 61h2M31 62h1M45 62h1M122 62h2M31 63h1M45 63h1M122 63h2M31 64h1M45 64h2M122 64h1M31 65h1M46 65h1M121 65h2M31 66h1M46 66h1M121 66h2M31 67h1M46 67h1M121 67h1M31 68h1M46 68h2M121 68h1M31 69h1M47 69h1M120 69h2M31 70h1M47 70h2M120 70h1M31 71h1M48 71h1M120 71h1M31 72h1M48 72h1M119 72h2M31 73h1M49 73h1M119 73h1M31 74h1M49 74h1M119 74h1M31 75h1M49 75h1M118 75h2M31 76h1M50 76h1M118 76h1M31 77h1M50 77h2M117 77h2M31 78h1M51 78h1M117 78h1M31 79h1M52 79h1M116 79h1M31 80h1M52 80h2M116 80h1M31 81h1M53 81h2M114 81h2M31 82h1M54 82h2M114 82h2M31 83h1M55 83h1M113 83h2M31 84h1M56 84h1M112 84h2M31 85h1M57 85h2M111 85h2M31 86h1M58 86h1M110 86h1M31 87h1M59 87h1M109 87h2M31 88h1M60 88h1M108 88h2M31 89h1M61 89h1M107 89h2M31 90h1M62 90h2M106 90h2M31 91h1M63 91h2M105 91h2M31 92h1M64 92h3M104 92h1M31 93h1M67 93h3M103 93h2M31 94h1M69 94h4M102 94h1M31 95h1M72 95h5M100 95h2M31 96h1M77 96h5M99 96h2M31 97h1M98 97h1M31 98h1M96 98h2M31 99h1M95 99h2M31 100h1M94 100h2M31 101h1M92 101h2M31 102h1M90 102h3M31 103h1M88 103h3M31 104h1M85 104h4M31 105h1M80 105h6M31 106h1M31 107h1M31 108h1M31 109h1M31 110h1M31 111h1M31 112h1M31 113h1M31 114h1M31 115h1M31 116h1M31 117h1M31 118h1" />
</svg>