<svg xmlns="http://www.w3.org/2000/svg" viewBox="0 -0.5 32 32" shape-rendering="crispEdges">
<metadata>Made with Pixels to Svg https://codepen.io/shshaw/pen/XbxvNj</metadata>
<path stroke="#343844" d="M23 9h1M23 10h1M23 11h1M23 12h1M20 13h1M23 13h1M10 14h2M20 14h1M23 14h1M9 15h5M20 15h1M23 15h1M11 16h3M20 16h2M23 16h1M12 17h2M21 17h3M13 18h1M21 18h1M13 19h1M21 19h1M12 20h3M21 20h1M11 21h4M18 21h1M21 21h1M10 22h5M18 22h1M10 23h6M18 23h2M21 23h1M10 24h6M20 24h2M9 25h1M11 25h1M13 25h3M21 25h1M9 26h3M13 26h4M21 26h1M9 27h3M13 27h5M21 27h1M12 28h6M21 28h1M12 29h6M21 29h1M12 30h2M16 30h2M21 30h1M12 31h1M17 31h1M21 31h1" />
<path stroke="#414b59" d="M11 12h4M10 13h7M12 14h6M14 15h1M18 15h1M14 18h1M18 18h1M14 19h4M15 20h3M15 21h3M15 22h3M19 22h2M16 23h2M20 23h1M16 24h2M16 25h2M17 26h1" />
<path stroke="#20222a" d="M15 15h3M14 16h1M16 16h1M18 16h1M14 17h1M16 17h1M18 17h1M15 18h3" />
<path stroke="#16b3c3" d="M15 16h1M17 16h1M15 17h1M17 17h1M21 22h1M10 25h1M12 25h1M12 26h1M12 27h1" />
</svg>