<svg xmlns="http://www.w3.org/2000/svg" viewBox="0 -0.5 165 128" shape-rendering="crispEdges">
<metadata>Made with Pixels to Svg https://codepen.io/shshaw/pen/XbxvNj</metadata>
<path stroke="#14191a" d="M0 0h73M75 0h90M1 1h45M47 1h26M75 1h90M2 2h3M10 2h10M24 2h22M47 2h25M75 2h90M2 3h1M11 3h8M20 3h26M47 3h25M75 3h90M2 4h1M12 4h35M48 4h24M75 4h90M2 5h1M13 5h34M48 5h23M72 5h93M13 6h34M49 6h21M72 6h93M13 7h1M16 7h32M49 7h21M72 7h93M13 8h1M17 8h31M49 8h21M72 8h93M13 9h1M17 9h32M50 9h19M72 9h93M13 10h1M17 10h32M50 10h19M72 10h93M13 11h1M17 11h32M50 11h19M72 11h93M13 12h1M17 12h33M51 12h18M72 12h87M162 12h3M13 13h1M17 13h33M51 13h18M72 13h87M162 13h3M13 14h1M16 14h53M72 14h83M160 14h5M16 15h53M72 15h83M158 15h7M16 16h52M69 16h86M156 16h9M16 17h51M69 17h96M16 18h51M69 18h83M155 18h10M15 19h52M69 19h83M155 19h10M15 20h52M69 20h83M154 20h11M15 21h52M69 21h83M154 21h11M15 22h52M69 22h82M153 22h12M14 23h53M69 23h82M153 23h12M14 24h54M69 24h21M91 24h48M142 24h9M153 24h12M14 25h54M70 25h20M92 25h43M139 25h12M153 25h12M14 26h54M70 26h22M93 26h40M135 26h14M152 26h13M14 27h54M70 27h12M84 27h9M96 27h35M133 27h16M153 27h12M13 28h55M70 28h13M86 28h10M98 28h33M132 28h17M153 28h12M13 29h55M70 29h14M87 29h11M100 29h20M121 29h28M153 29h12M13 30h47M61 30h7M70 30h16M88 30h12M101 30h17M120 30h30M153 30h12M14 31h47M62 31h6M70 31h17M89 31h25M118 31h34M154 31h11M14 32h9M24 32h38M63 32h6M70 32h18M90 32h22M114 32h38M154 32h11M14 33h7M23 33h40M64 33h5M70 33h21M93 33h60M155 33h10M14 34h5M21 34h42M65 34h4M70 34h9M80 34h2M83 34h8M94 34h49M145 34h8M156 34h9M15 35h3M20 35h48M70 35h8M85 35h9M95 35h45M147 35h7M157 35h8M15 36h3M19 36h49M70 36h7M86 36h52M148 36h7M158 36h7M15 37h3M19 37h1M21 37h47M71 37h3M81 37h3M87 37h47M138 37h8M149 37h8M159 37h6M12 38h2M15 38h2M18 38h2M21 38h47M71 38h2M79 38h7M87 38h10M98 38h33M137 38h10M151 38h6M160 38h5M12 39h9M22 39h46M71 39h2M78 39h8M87 39h43M134 39h13M151 39h14M12 40h10M23 40h43M74 40h13M90 40h9M100 40h27M129 40h1M134 40h14M152 40h13M12 41h11M24 41h41M74 41h13M90 41h10M101 41h25M129 41h21M153 41h12M13 42h52M67 42h20M92 42h9M103 42h22M128 42h22M154 42h11M13 43h52M67 43h22M95 43h8M105 43h18M124 43h27M154 43h11M13 44h52M67 44h22M95 44h9M107 44h14M124 44h28M154 44h11M13 45h52M67 45h11M98 45h8M112 45h1M116 45h3M123 45h1M144 45h9M156 45h9M13 46h52M66 46h12M79 46h8M93 46h2M99 46h9M112 46h1M116 46h3M123 46h1M128 46h6M144 46h11M157 46h4M162 46h3M13 47h52M66 47h25M93 47h2M100 47h16M122 47h2M125 47h17M144 47h13M162 47h3M14 48h51M66 48h5M76 48h17M96 48h1M101 48h16M119 48h3M124 48h19M144 48h14M162 48h3M15 49h49M66 49h5M74 49h19M96 49h3M102 49h15M119 49h3M124 49h36M161 49h4M15 50h48M66 50h2M72 50h21M96 50h3M103 50h14M118 50h2M123 50h21M147 50h18M15 51h47M63 51h5M70 51h25M98 51h1M104 51h12M117 51h3M122 51h23M147 51h18M15 52h46M63 52h5M69 52h26M98 52h2M105 52h10M117 52h3M121 52h24M147 52h18M15 53h46M68 53h27M101 53h2M107 53h7M120 53h26M149 53h16M15 54h45M66 54h32M101 54h2M108 54h1M118 54h29M149 54h16M15 55h45M66 55h32M101 55h13M117 55h31M149 55h16M16 56h44M63 56h37M103 56h11M116 56h33M154 56h11M16 57h44M63 57h37M105 57h9M116 57h33M155 57h10M16 58h44M85 58h10M105 58h9M117 58h32M156 58h9M17 59h43M105 59h6M117 59h31M157 59h8M17 60h44M105 60h6M119 60h15M140 60h7M158 60h7M18 61h43M63 61h15M98 61h5M105 61h6M114 61h1M121 61h8M152 61h4M159 61h6M18 62h44M63 62h15M84 62h19M105 62h6M114 62h2M133 62h5M148 62h8M160 62h5M18 63h44M63 63h15M80 63h2M84 63h19M105 63h6M114 63h5M126 63h30M160 63h5M18 64h45M66 64h12M80 64h3M84 64h19M105 64h6M114 64h5M121 64h3M126 64h11M140 64h7M156 64h9M18 65h46M71 65h7M84 65h19M105 65h6M114 65h5M126 65h2M144 65h3M156 65h5M164 65h1M18 66h47M84 66h8M102 66h1M105 66h6M146 66h1M156 66h5M164 66h1M18 67h48M102 67h1M105 67h6M121 67h20M149 67h12M164 67h1M18 68h49M94 68h7M102 68h1M105 68h6M115 68h26M149 68h16M19 69h49M71 69h32M105 69h6M114 69h27M149 69h8M161 69h4M19 70h49M71 70h32M105 70h6M113 70h28M144 70h12M161 70h4M19 71h50M71 71h32M105 71h6M113 71h27M144 71h12M161 71h4M19 72h51M72 72h30M104 72h8M114 72h26M144 72h11M159 72h6M19 73h51M73 73h28M104 73h9M114 73h25M142 73h13M158 73h7M19 74h52M74 74h27M104 74h10M116 74h22M142 74h13M158 74h7M19 75h53M75 75h24M101 75h13M117 75h20M142 75h12M157 75h8M19 76h54M75 76h23M101 76h14M117 76h18M140 76h14M155 76h10M19 77h54M76 77h22M101 77h15M118 77h11M140 77h13M155 77h10M18 78h56M78 78h18M98 78h18M120 78h8M139 78h14M155 78h5M18 79h56M80 79h15M98 79h19M131 79h21M153 79h12M17 80h57M83 80h4M97 80h20M131 80h20M153 80h12M17 81h57M76 81h6M95 81h19M115 81h3M124 81h5M131 81h19M153 81h12M17 82h57M76 82h6M93 82h56M152 82h13M16 83h58M76 83h73M152 83h13M16 84h58M76 84h72M151 84h14M16 85h58M76 85h71M150 85h15M16 86h60M78 86h31M111 86h35M149 86h16M16 87h41M60 87h16M78 87h31M111 87h35M149 87h16M16 88h39M57 88h19M79 88h30M110 88h36M149 88h16M16 89h39M56 89h20M78 89h31M110 89h36M149 89h16M16 90h6M23 90h29M55 90h21M78 90h31M110 90h36M149 90h16M16 91h3M22 91h30M53 91h23M78 91h31M110 91h12M125 91h22M149 91h16M16 92h3M21 92h29M52 92h24M77 92h32M110 92h12M125 92h5M131 92h18M151 92h14M16 93h2M20 93h29M50 93h26M77 93h32M110 93h14M127 93h3M132 93h17M152 93h13M16 94h2M20 94h28M49 94h26M76 94h11M89 94h17M109 94h16M127 94h3M133 94h19M153 94h12M17 95h1M19 95h28M48 95h26M76 95h11M90 95h17M109 95h17M127 95h3M135 95h17M154 95h11M17 96h57M76 96h10M92 96h15M109 96h18M130 96h2M137 96h15M154 96h11M16 97h58M76 97h9M87 97h3M93 97h14M109 97h19M130 97h3M138 97h14M155 97h10M16 98h58M76 98h8M87 98h3M93 98h14M109 98h19M130 98h5M138 98h14M155 98h10M6 99h2M15 99h58M74 99h10M85 99h8M95 99h14M110 99h20M133 99h2M138 99h14M156 99h9M6 100h5M15 100h57M74 100h10M85 100h8M96 100h13M110 100h20M133 100h3M138 100h16M156 100h9M6 101h6M13 101h1M15 101h57M74 101h9M85 101h8M96 101h13M110 101h20M133 101h3M138 101h12M152 101h2M156 101h9M6 102h65M74 102h9M85 102h10M97 102h12M111 102h19M133 102h2M138 102h12M152 102h2M157 102h8M5 103h66M73 103h10M85 103h10M98 103h11M111 103h19M133 103h2M137 103h12M152 103h3M157 103h8M5 104h65M72 104h11M85 104h5M94 104h1M98 104h11M112 104h18M133 104h1M137 104h12M150 104h6M158 104h7M4 105h65M71 105h11M85 105h5M95 105h3M99 105h10M112 105h18M131 105h2M137 105h11M150 105h6M158 105h7M3 106h30M35 106h33M71 106h11M85 106h5M95 106h3M100 106h10M112 106h18M131 106h2M136 106h11M150 106h6M159 106h6M2 107h31M34 107h33M70 107h12M85 107h2M90 107h1M100 107h10M114 107h15M131 107h2M136 107h11M150 107h15M2 108h8M11 108h22M34 108h33M68 108h14M90 108h4M98 108h13M114 108h15M130 108h3M136 108h10M152 108h13M2 109h8M12 109h6M24 109h8M33 109h33M68 109h14M92 109h2M99 109h2M102 109h9M114 109h14M130 109h2M135 109h11M152 109h4M160 109h5M3 110h8M18 110h13M32 110h33M68 110h14M83 110h1M92 110h3M99 110h2M103 110h11M115 110h13M130 110h2M135 110h10M148 110h1M153 110h4M161 110h4M3 111h9M13 111h6M20 111h11M32 111h33M68 111h13M82 111h7M92 111h3M103 111h11M116 111h11M130 111h1M134 111h11M148 111h2M153 111h5M161 111h1M3 112h9M13 112h6M20 112h10M31 112h34M67 112h12M82 112h6M91 112h4M104 112h10M116 112h11M130 112h1M134 112h11M148 112h2M153 112h6M161 112h1M3 113h9M13 113h6M20 113h10M31 113h31M66 113h11M79 113h9M91 113h5M104 113h11M116 113h11M128 113h2M133 113h12M148 113h2M153 113h7M4 114h8M13 114h6M20 114h10M31 114h31M66 114h10M79 114h9M91 114h5M104 114h11M117 114h9M128 114h2M132 114h18M153 114h9M4 115h14M19 115h9M30 115h32M65 115h10M79 115h9M91 115h5M104 115h11M117 115h9M128 115h2M132 115h11M145 115h8M155 115h8M4 116h24M29 116h33M64 116h10M77 116h11M90 116h7M100 116h1M104 116h11M117 116h9M128 116h2M132 116h11M145 116h8M156 116h9M4 117h23M28 117h33M64 117h10M77 117h11M89 117h8M100 117h1M104 117h11M117 117h8M128 117h1M132 117h11M145 117h9M157 117h8M3 118h24M28 118h32M63 118h10M74 118h13M89 118h7M99 118h2M104 118h10M117 118h8M128 118h1M132 118h11M145 118h10M159 118h6M3 119h24M28 119h32M63 119h10M74 119h12M89 119h6M99 119h2M104 119h10M117 119h8M128 119h1M132 119h11M145 119h11M160 119h5M3 120h23M27 120h33M62 120h10M74 120h11M88 120h6M99 120h2M104 120h10M117 120h8M128 120h1M131 120h12M146 120h10M159 120h1M161 120h3M3 121h23M27 121h33M62 121h10M74 121h11M88 121h5M98 121h3M104 121h10M116 121h9M131 121h13M146 121h10M159 121h3M3 122h57M61 122h11M74 122h10M87 122h6M97 122h4M104 122h10M116 122h8M125 122h3M131 122h13M146 122h9M159 122h6M3 123h57M61 123h11M73 123h10M86 123h7M96 123h5M104 123h7M114 123h9M125 123h3M131 123h13M146 123h8M155 123h3M162 123h3M4 124h56M61 124h10M73 124h10M85 124h7M94 124h7M103 124h8M114 124h8M125 124h4M132 124h14M149 124h3M155 124h3M162 124h3M4 125h56M61 125h10M73 125h9M84 125h7M94 125h7M103 125h8M114 125h8M125 125h4M133 125h13M152 125h8M4 126h56M61 126h10M73 126h8M83 126h8M95 126h6M103 126h7M114 126h8M125 126h6M134 126h12M153 126h8M5 127h66M73 127h8M82 127h10M95 127h6M103 127h7M113 127h9M125 127h6M134 127h13M153 127h10" />
<path stroke="#162229" d="M73 0h2M46 1h1M73 1h2M20 2h4M46 2h1M72 2h3M19 3h1M46 3h1M72 3h3M47 4h1M72 4h3M47 5h1M71 5h1M47 6h2M70 6h2M48 7h1M70 7h2M48 8h1M70 8h2M49 9h1M69 9h3M49 10h1M69 10h3M49 11h1M69 11h3M50 12h1M69 12h3M159 12h3M50 13h1M69 13h3M159 13h3M69 14h3M155 14h5M69 15h3M155 15h3M68 16h1M155 16h1M67 17h2M67 18h2M152 18h3M67 19h2M152 19h3M67 20h2M152 20h2M67 21h2M152 21h2M67 22h2M151 22h2M67 23h2M151 23h2M68 24h1M90 24h1M139 24h3M151 24h2M68 25h2M90 25h2M135 25h4M151 25h2M68 26h2M92 26h1M133 26h2M149 26h3M7 27h2M68 27h2M82 27h2M93 27h3M131 27h2M149 27h4M8 28h4M68 28h2M83 28h3M96 28h2M131 28h1M149 28h4M8 29h5M68 29h2M84 29h3M98 29h2M120 29h1M149 29h4M9 30h4M60 30h1M68 30h2M86 30h2M100 30h1M118 30h2M150 30h3M9 31h5M61 31h1M68 31h2M87 31h2M114 31h4M152 31h2M10 32h4M23 32h1M62 32h1M69 32h1M88 32h2M112 32h2M152 32h2M10 33h4M21 33h2M63 33h1M69 33h1M91 33h2M153 33h2M11 34h3M19 34h2M63 34h2M69 34h1M79 34h1M82 34h1M91 34h3M143 34h2M153 34h3M11 35h4M18 35h2M68 35h2M78 35h7M94 35h1M140 35h7M154 35h3M12 36h3M18 36h1M68 36h2M77 36h9M138 36h10M155 36h3M12 37h3M18 37h1M20 37h1M68 37h3M74 37h7M84 37h3M134 37h4M146 37h3M157 37h2M14 38h1M17 38h1M20 38h1M68 38h3M73 38h6M86 38h1M97 38h1M131 38h6M147 38h4M157 38h3M21 39h1M68 39h3M73 39h5M86 39h1M130 39h4M147 39h4M22 40h1M66 40h8M87 40h3M99 40h1M127 40h2M130 40h4M148 40h4M23 41h1M65 41h9M87 41h3M100 41h1M126 41h3M150 41h3M65 42h2M87 42h5M101 42h2M125 42h3M150 42h4M65 43h2M89 43h6M103 43h2M123 43h1M151 43h3M65 44h2M89 44h6M104 44h3M121 44h3M152 44h2M65 45h2M78 45h20M106 45h6M113 45h3M119 45h4M124 45h20M153 45h3M65 46h1M78 46h1M87 46h6M95 46h4M108 46h4M113 46h3M119 46h4M124 46h4M134 46h10M155 46h2M161 46h1M65 47h1M91 47h2M95 47h5M116 47h6M124 47h1M142 47h2M157 47h5M65 48h1M71 48h5M93 48h3M97 48h4M117 48h2M122 48h2M143 48h1M158 48h4M64 49h2M71 49h3M93 49h3M99 49h3M117 49h2M122 49h2M160 49h1M63 50h3M68 50h4M93 50h3M99 50h4M117 50h1M120 50h3M144 50h3M62 51h1M68 51h2M95 51h3M99 51h5M116 51h1M120 51h2M145 51h2M61 52h2M68 52h1M95 52h3M100 52h5M115 52h2M120 52h1M145 52h2M61 53h7M95 53h6M103 53h4M114 53h6M146 53h3M60 54h6M98 54h3M103 54h5M109 54h9M147 54h2M60 55h6M98 55h3M114 55h3M148 55h1M60 56h3M100 56h3M114 56h2M149 56h5M60 57h3M100 57h5M114 57h2M149 57h6M60 58h25M95 58h10M114 58h3M149 58h7M60 59h45M111 59h6M148 59h9M61 60h44M111 60h8M134 60h6M147 60h11M61 61h2M78 61h20M103 61h2M111 61h3M115 61h6M129 61h23M156 61h3M62 62h1M78 62h6M103 62h2M111 62h3M116 62h17M138 62h10M156 62h4M62 63h1M78 63h2M82 63h2M103 63h2M111 63h3M119 63h7M156 63h4M63 64h3M78 64h2M83 64h1M103 64h2M111 64h3M119 64h2M124 64h2M137 64h3M147 64h9M64 65h7M78 65h6M103 65h2M111 65h3M119 65h7M128 65h16M147 65h9M161 65h3M65 66h19M92 66h10M103 66h2M111 66h35M147 66h9M161 66h3M66 67h36M103 67h2M111 67h10M141 67h8M161 67h3M67 68h27M101 68h1M103 68h2M111 68h4M141 68h8M68 69h3M103 69h2M111 69h3M141 69h8M157 69h4M68 70h3M103 70h2M111 70h2M141 70h3M156 70h5M69 71h2M103 71h2M111 71h2M140 71h4M156 71h5M70 72h2M102 72h2M112 72h2M140 72h4M155 72h4M70 73h3M101 73h3M113 73h1M139 73h3M155 73h3M71 74h3M101 74h3M114 74h2M138 74h4M155 74h3M72 75h3M99 75h2M114 75h3M137 75h5M154 75h3M73 76h2M98 76h3M115 76h2M135 76h5M154 76h1M73 77h3M98 77h3M116 77h2M129 77h11M153 77h2M74 78h4M96 78h2M116 78h4M128 78h11M153 78h2M160 78h5M74 79h6M95 79h3M117 79h14M152 79h1M74 80h9M87 80h10M117 80h14M151 80h2M74 81h2M82 81h13M114 81h1M118 81h6M129 81h2M150 81h3M74 82h2M82 82h11M149 82h3M74 83h2M149 83h3M74 84h2M148 84h3M74 85h2M147 85h3M76 86h2M109 86h2M146 86h3M57 87h3M76 87h2M109 87h2M146 87h3M55 88h2M76 88h3M109 88h1M146 88h3M55 89h1M76 89h2M109 89h1M146 89h3M22 90h1M52 90h3M76 90h2M109 90h1M146 90h3M19 91h3M52 91h1M76 91h2M109 91h1M122 91h3M147 91h2M19 92h2M50 92h2M76 92h1M109 92h1M122 92h3M130 92h1M149 92h2M18 93h2M49 93h1M76 93h1M109 93h1M124 93h3M130 93h2M149 93h3M1 94h2M18 94h2M48 94h1M75 94h1M87 94h2M106 94h3M125 94h2M130 94h3M152 94h1M1 95h6M14 95h3M18 95h1M47 95h1M74 95h2M87 95h3M107 95h2M126 95h1M130 95h5M152 95h2M4 96h5M14 96h3M74 96h2M86 96h6M107 96h2M127 96h3M132 96h5M152 96h2M6 97h5M13 97h3M74 97h2M85 97h2M90 97h3M107 97h2M128 97h2M133 97h5M152 97h3M8 98h4M13 98h3M74 98h2M84 98h3M90 98h3M107 98h2M128 98h2M135 98h3M152 98h3M10 99h5M73 99h1M84 99h1M93 99h2M109 99h1M130 99h3M135 99h3M152 99h4M11 100h4M72 100h2M84 100h1M93 100h3M109 100h1M130 100h3M136 100h2M154 100h2M12 101h1M14 101h1M72 101h2M83 101h2M93 101h3M109 101h1M130 101h3M136 101h2M150 101h2M154 101h2M71 102h3M83 102h2M95 102h2M109 102h2M130 102h3M135 102h3M150 102h2M154 102h3M71 103h2M83 103h2M95 103h3M109 103h2M130 103h3M135 103h2M149 103h3M155 103h2M70 104h2M83 104h2M90 104h4M95 104h3M109 104h3M130 104h3M134 104h3M149 104h1M156 104h2M69 105h2M82 105h3M90 105h5M98 105h1M109 105h3M130 105h1M133 105h4M148 105h2M156 105h2M33 106h2M68 106h3M82 106h3M90 106h5M98 106h2M110 106h2M130 106h1M133 106h3M147 106h3M156 106h3M33 107h1M67 107h3M82 107h3M87 107h3M91 107h9M110 107h4M129 107h2M133 107h3M147 107h3M10 108h1M33 108h1M67 108h1M82 108h8M94 108h4M111 108h3M129 108h1M133 108h3M146 108h6M10 109h2M18 109h6M32 109h1M66 109h2M82 109h10M94 109h5M101 109h1M111 109h3M128 109h2M132 109h3M146 109h6M156 109h4M11 110h7M31 110h1M65 110h3M82 110h1M84 110h8M95 110h4M101 110h2M114 110h1M128 110h2M132 110h3M145 110h3M149 110h4M157 110h4M12 111h1M19 111h1M31 111h1M65 111h3M81 111h1M89 111h3M95 111h8M114 111h2M127 111h3M131 111h3M145 111h3M150 111h3M158 111h3M162 111h3M12 112h1M19 112h1M30 112h1M65 112h2M79 112h3M88 112h3M95 112h9M114 112h2M127 112h3M131 112h3M145 112h3M150 112h3M159 112h2M162 112h3M12 113h1M19 113h1M30 113h1M62 113h4M77 113h2M88 113h3M96 113h8M115 113h1M127 113h1M130 113h3M145 113h3M150 113h3M160 113h5M12 114h1M19 114h1M30 114h1M62 114h4M76 114h3M88 114h3M96 114h8M115 114h2M126 114h2M130 114h2M150 114h3M162 114h3M18 115h1M28 115h2M62 115h3M75 115h4M88 115h3M96 115h8M115 115h2M126 115h2M130 115h2M143 115h2M153 115h2M163 115h2M28 116h1M62 116h2M74 116h3M88 116h2M97 116h3M101 116h3M115 116h2M126 116h2M130 116h2M143 116h2M153 116h3M27 117h1M61 117h3M74 117h3M88 117h1M97 117h3M101 117h3M115 117h2M125 117h3M129 117h3M143 117h2M154 117h3M27 118h1M60 118h3M73 118h1M87 118h2M96 118h3M101 118h3M114 118h3M125 118h3M129 118h3M143 118h2M155 118h4M27 119h1M60 119h3M73 119h1M86 119h3M95 119h4M101 119h3M114 119h3M125 119h3M129 119h3M143 119h2M156 119h4M26 120h1M60 120h2M72 120h2M85 120h3M94 120h5M101 120h3M114 120h3M125 120h3M129 120h2M143 120h3M156 120h3M160 120h1M164 120h1M26 121h1M60 121h2M72 121h2M85 121h3M93 121h5M101 121h3M114 121h2M125 121h6M144 121h2M156 121h3M162 121h3M60 122h1M72 122h2M84 122h3M93 122h4M101 122h3M114 122h2M124 122h1M128 122h3M144 122h2M155 122h4M60 123h1M72 123h1M83 123h3M93 123h3M101 123h3M111 123h3M123 123h2M128 123h3M144 123h2M154 123h1M158 123h4M60 124h1M71 124h2M83 124h2M92 124h2M101 124h2M111 124h3M122 124h3M129 124h3M146 124h3M152 124h3M158 124h4M60 125h1M71 125h2M82 125h2M91 125h3M101 125h2M111 125h3M122 125h3M129 125h4M146 125h6M160 125h5M60 126h1M71 126h2M81 126h2M91 126h4M101 126h2M110 126h4M122 126h3M131 126h3M146 126h7M161 126h4M71 127h2M81 127h1M92 127h3M101 127h2M110 127h3M122 127h3M131 127h3M147 127h6M163 127h2" />
</svg>